<?xml version="1.0" encoding="UTF-8" standalone="no"?>
<!DOCTYPE svg PUBLIC "-//W3C//DTD SVG 1.1//EN"
 "http://www.w3.org/Graphics/SVG/1.1/DTD/svg11.dtd">
<!-- Generated by graphviz version 2.43.0 (0)
 -->
<!-- Title: snakemake_dag Pages: 1 -->
<svg width="3746pt" height="852pt"
 viewBox="0.00 0.00 3746.00 852.00" xmlns="http://www.w3.org/2000/svg" xmlns:xlink="http://www.w3.org/1999/xlink">
<g id="graph0" class="graph" transform="scale(1 1) rotate(0) translate(4 848)">
<title>snakemake_dag</title>
<polygon fill="white" stroke="transparent" points="-4,4 -4,-848 3742,-848 3742,4 -4,4"/>
<!-- 0 -->
<g id="node1" class="node">
<title>0</title>
<path fill="none" stroke="#56d8d0" stroke-width="2" d="M1874,-36C1874,-36 1842,-36 1842,-36 1836,-36 1830,-30 1830,-24 1830,-24 1830,-12 1830,-12 1830,-6 1836,0 1842,0 1842,0 1874,0 1874,0 1880,0 1886,-6 1886,-12 1886,-12 1886,-24 1886,-24 1886,-30 1880,-36 1874,-36"/>
<text text-anchor="middle" x="1858" y="-15.5" font-family="sans" font-size="10.00">rna_gex</text>
</g>
<!-- 1 -->
<g id="node2" class="node">
<title>1</title>
<path fill="none" stroke="#56d863" stroke-width="2" d="M369,-684C369,-684 277,-684 277,-684 271,-684 265,-678 265,-672 265,-672 265,-660 265,-660 265,-654 271,-648 277,-648 277,-648 369,-648 369,-648 375,-648 381,-654 381,-660 381,-660 381,-672 381,-672 381,-678 375,-684 369,-684"/>
<text text-anchor="middle" x="323" y="-663.5" font-family="sans" font-size="10.00">align_multi_starsolo</text>
</g>
<!-- 1&#45;&gt;0 -->
<g id="edge1" class="edge">
<title>1&#45;&gt;0</title>
<path fill="none" stroke="grey" stroke-width="2" d="M381.32,-660.46C462.04,-650.63 598,-619.72 598,-523 598,-523 598,-523 598,-161 598,-34.83 1608.56,-20.76 1819.64,-19.19"/>
<polygon fill="grey" stroke="grey" stroke-width="2" points="1819.94,-22.69 1829.92,-19.12 1819.89,-15.69 1819.94,-22.69"/>
</g>
<!-- 22 -->
<g id="node23" class="node">
<title>22</title>
<path fill="none" stroke="#56d882" stroke-width="2" d="M350.5,-324C350.5,-324 257.5,-324 257.5,-324 251.5,-324 245.5,-318 245.5,-312 245.5,-312 245.5,-300 245.5,-300 245.5,-294 251.5,-288 257.5,-288 257.5,-288 350.5,-288 350.5,-288 356.5,-288 362.5,-294 362.5,-300 362.5,-300 362.5,-312 362.5,-312 362.5,-318 356.5,-324 350.5,-324"/>
<text text-anchor="middle" x="304" y="-303.5" font-family="sans" font-size="10.00">stellarscope_cellsort</text>
</g>
<!-- 1&#45;&gt;22 -->
<g id="edge33" class="edge">
<title>1&#45;&gt;22</title>
<path fill="none" stroke="grey" stroke-width="2" d="M285.17,-647.9C242.5,-625.72 179,-582.69 179,-523 179,-523 179,-523 179,-449 179,-396.4 227.93,-354.03 264.56,-329.69"/>
<polygon fill="grey" stroke="grey" stroke-width="2" points="266.59,-332.54 273.1,-324.18 262.8,-326.66 266.59,-332.54"/>
</g>
<!-- 26 -->
<g id="node27" class="node">
<title>26</title>
<path fill="none" stroke="#5673d8" stroke-width="2" d="M338,-612C338,-612 308,-612 308,-612 302,-612 296,-606 296,-600 296,-600 296,-588 296,-588 296,-582 302,-576 308,-576 308,-576 338,-576 338,-576 344,-576 350,-582 350,-588 350,-588 350,-600 350,-600 350,-606 344,-612 338,-612"/>
<text text-anchor="middle" x="323" y="-591.5" font-family="sans" font-size="10.00">cell_qc</text>
</g>
<!-- 1&#45;&gt;26 -->
<g id="edge38" class="edge">
<title>1&#45;&gt;26</title>
<path fill="none" stroke="grey" stroke-width="2" d="M323,-647.7C323,-639.98 323,-630.71 323,-622.11"/>
<polygon fill="grey" stroke="grey" stroke-width="2" points="326.5,-622.1 323,-612.1 319.5,-622.1 326.5,-622.1"/>
</g>
<!-- 2 -->
<g id="node3" class="node">
<title>2</title>
<path fill="none" stroke="#80d856" stroke-width="2" d="M349.5,-756C349.5,-756 296.5,-756 296.5,-756 290.5,-756 284.5,-750 284.5,-744 284.5,-744 284.5,-732 284.5,-732 284.5,-726 290.5,-720 296.5,-720 296.5,-720 349.5,-720 349.5,-720 355.5,-720 361.5,-726 361.5,-732 361.5,-732 361.5,-744 361.5,-744 361.5,-750 355.5,-756 349.5,-756"/>
<text text-anchor="middle" x="323" y="-735.5" font-family="sans" font-size="10.00">sra_to_fastq</text>
</g>
<!-- 2&#45;&gt;1 -->
<g id="edge13" class="edge">
<title>2&#45;&gt;1</title>
<path fill="none" stroke="grey" stroke-width="2" d="M323,-719.7C323,-711.98 323,-702.71 323,-694.11"/>
<polygon fill="grey" stroke="grey" stroke-width="2" points="326.5,-694.1 323,-684.1 319.5,-694.1 326.5,-694.1"/>
</g>
<!-- 3 -->
<g id="node4" class="node">
<title>3</title>
<path fill="none" stroke="#56a9d8" stroke-width="2" d="M396,-844C396,-844 250,-844 250,-844 244,-844 238,-838 238,-832 238,-832 238,-804 238,-804 238,-798 244,-792 250,-792 250,-792 396,-792 396,-792 402,-792 408,-798 408,-804 408,-804 408,-832 408,-832 408,-838 402,-844 396,-844"/>
<text text-anchor="middle" x="323" y="-832" font-family="sans" font-size="10.00">prefetch_sra</text>
<text text-anchor="middle" x="323" y="-821" font-family="sans" font-size="10.00">dataset: rna_gex_PRJNA587486</text>
<text text-anchor="middle" x="323" y="-810" font-family="sans" font-size="10.00">samp: GC1_GSM4148370</text>
<text text-anchor="middle" x="323" y="-799" font-family="sans" font-size="10.00">sra_run: SRR11827034</text>
</g>
<!-- 3&#45;&gt;2 -->
<g id="edge14" class="edge">
<title>3&#45;&gt;2</title>
<path fill="none" stroke="grey" stroke-width="2" d="M323,-791.89C323,-783.84 323,-774.88 323,-766.66"/>
<polygon fill="grey" stroke="grey" stroke-width="2" points="326.5,-766.41 323,-756.41 319.5,-766.41 326.5,-766.41"/>
</g>
<!-- 4 -->
<g id="node5" class="node">
<title>4</title>
<path fill="none" stroke="#56d863" stroke-width="2" d="M995,-684C995,-684 903,-684 903,-684 897,-684 891,-678 891,-672 891,-672 891,-660 891,-660 891,-654 897,-648 903,-648 903,-648 995,-648 995,-648 1001,-648 1007,-654 1007,-660 1007,-660 1007,-672 1007,-672 1007,-678 1001,-684 995,-684"/>
<text text-anchor="middle" x="949" y="-663.5" font-family="sans" font-size="10.00">align_multi_starsolo</text>
</g>
<!-- 4&#45;&gt;0 -->
<g id="edge2" class="edge">
<title>4&#45;&gt;0</title>
<path fill="none" stroke="grey" stroke-width="2" d="M1007.32,-660.46C1088.04,-650.63 1224,-619.72 1224,-523 1224,-523 1224,-523 1224,-161 1224,-109.27 1253.18,-96 1299,-72 1389.87,-24.4 1709.14,-19.24 1819.85,-18.92"/>
<polygon fill="grey" stroke="grey" stroke-width="2" points="1819.91,-22.42 1829.9,-18.9 1819.9,-15.42 1819.91,-22.42"/>
</g>
<!-- 33 -->
<g id="node34" class="node">
<title>33</title>
<path fill="none" stroke="#56d882" stroke-width="2" d="M976.5,-324C976.5,-324 883.5,-324 883.5,-324 877.5,-324 871.5,-318 871.5,-312 871.5,-312 871.5,-300 871.5,-300 871.5,-294 877.5,-288 883.5,-288 883.5,-288 976.5,-288 976.5,-288 982.5,-288 988.5,-294 988.5,-300 988.5,-300 988.5,-312 988.5,-312 988.5,-318 982.5,-324 976.5,-324"/>
<text text-anchor="middle" x="930" y="-303.5" font-family="sans" font-size="10.00">stellarscope_cellsort</text>
</g>
<!-- 4&#45;&gt;33 -->
<g id="edge53" class="edge">
<title>4&#45;&gt;33</title>
<path fill="none" stroke="grey" stroke-width="2" d="M911.17,-647.9C868.5,-625.72 805,-582.69 805,-523 805,-523 805,-523 805,-449 805,-396.4 853.93,-354.03 890.56,-329.69"/>
<polygon fill="grey" stroke="grey" stroke-width="2" points="892.59,-332.54 899.1,-324.18 888.8,-326.66 892.59,-332.54"/>
</g>
<!-- 37 -->
<g id="node38" class="node">
<title>37</title>
<path fill="none" stroke="#5673d8" stroke-width="2" d="M964,-612C964,-612 934,-612 934,-612 928,-612 922,-606 922,-600 922,-600 922,-588 922,-588 922,-582 928,-576 934,-576 934,-576 964,-576 964,-576 970,-576 976,-582 976,-588 976,-588 976,-600 976,-600 976,-606 970,-612 964,-612"/>
<text text-anchor="middle" x="949" y="-591.5" font-family="sans" font-size="10.00">cell_qc</text>
</g>
<!-- 4&#45;&gt;37 -->
<g id="edge58" class="edge">
<title>4&#45;&gt;37</title>
<path fill="none" stroke="grey" stroke-width="2" d="M949,-647.7C949,-639.98 949,-630.71 949,-622.11"/>
<polygon fill="grey" stroke="grey" stroke-width="2" points="952.5,-622.1 949,-612.1 945.5,-622.1 952.5,-622.1"/>
</g>
<!-- 5 -->
<g id="node6" class="node">
<title>5</title>
<path fill="none" stroke="#80d856" stroke-width="2" d="M975.5,-756C975.5,-756 922.5,-756 922.5,-756 916.5,-756 910.5,-750 910.5,-744 910.5,-744 910.5,-732 910.5,-732 910.5,-726 916.5,-720 922.5,-720 922.5,-720 975.5,-720 975.5,-720 981.5,-720 987.5,-726 987.5,-732 987.5,-732 987.5,-744 987.5,-744 987.5,-750 981.5,-756 975.5,-756"/>
<text text-anchor="middle" x="949" y="-735.5" font-family="sans" font-size="10.00">sra_to_fastq</text>
</g>
<!-- 5&#45;&gt;4 -->
<g id="edge15" class="edge">
<title>5&#45;&gt;4</title>
<path fill="none" stroke="grey" stroke-width="2" d="M949,-719.7C949,-711.98 949,-702.71 949,-694.11"/>
<polygon fill="grey" stroke="grey" stroke-width="2" points="952.5,-694.1 949,-684.1 945.5,-694.1 952.5,-694.1"/>
</g>
<!-- 6 -->
<g id="node7" class="node">
<title>6</title>
<path fill="none" stroke="#56a9d8" stroke-width="2" d="M1022,-844C1022,-844 876,-844 876,-844 870,-844 864,-838 864,-832 864,-832 864,-804 864,-804 864,-798 870,-792 876,-792 876,-792 1022,-792 1022,-792 1028,-792 1034,-798 1034,-804 1034,-804 1034,-832 1034,-832 1034,-838 1028,-844 1022,-844"/>
<text text-anchor="middle" x="949" y="-832" font-family="sans" font-size="10.00">prefetch_sra</text>
<text text-anchor="middle" x="949" y="-821" font-family="sans" font-size="10.00">dataset: rna_gex_PRJNA587486</text>
<text text-anchor="middle" x="949" y="-810" font-family="sans" font-size="10.00">samp: GC2_GSM4148371</text>
<text text-anchor="middle" x="949" y="-799" font-family="sans" font-size="10.00">sra_run: SRR11827035</text>
</g>
<!-- 6&#45;&gt;5 -->
<g id="edge16" class="edge">
<title>6&#45;&gt;5</title>
<path fill="none" stroke="grey" stroke-width="2" d="M949,-791.89C949,-783.84 949,-774.88 949,-766.66"/>
<polygon fill="grey" stroke="grey" stroke-width="2" points="952.5,-766.41 949,-756.41 945.5,-766.41 952.5,-766.41"/>
</g>
<!-- 7 -->
<g id="node8" class="node">
<title>7</title>
<path fill="none" stroke="#56d863" stroke-width="2" d="M1439,-684C1439,-684 1347,-684 1347,-684 1341,-684 1335,-678 1335,-672 1335,-672 1335,-660 1335,-660 1335,-654 1341,-648 1347,-648 1347,-648 1439,-648 1439,-648 1445,-648 1451,-654 1451,-660 1451,-660 1451,-672 1451,-672 1451,-678 1445,-684 1439,-684"/>
<text text-anchor="middle" x="1393" y="-663.5" font-family="sans" font-size="10.00">align_multi_starsolo</text>
</g>
<!-- 7&#45;&gt;0 -->
<g id="edge3" class="edge">
<title>7&#45;&gt;0</title>
<path fill="none" stroke="grey" stroke-width="2" d="M1359.94,-647.8C1321.14,-624.96 1262,-580.69 1262,-523 1262,-523 1262,-523 1262,-161 1262,-45.91 1687.83,-23.93 1819.61,-19.88"/>
<polygon fill="grey" stroke="grey" stroke-width="2" points="1819.76,-23.38 1829.65,-19.59 1819.56,-16.38 1819.76,-23.38"/>
</g>
<!-- 44 -->
<g id="node45" class="node">
<title>44</title>
<path fill="none" stroke="#56d882" stroke-width="2" d="M1564.5,-324C1564.5,-324 1471.5,-324 1471.5,-324 1465.5,-324 1459.5,-318 1459.5,-312 1459.5,-312 1459.5,-300 1459.5,-300 1459.5,-294 1465.5,-288 1471.5,-288 1471.5,-288 1564.5,-288 1564.5,-288 1570.5,-288 1576.5,-294 1576.5,-300 1576.5,-300 1576.5,-312 1576.5,-312 1576.5,-318 1570.5,-324 1564.5,-324"/>
<text text-anchor="middle" x="1518" y="-303.5" font-family="sans" font-size="10.00">stellarscope_cellsort</text>
</g>
<!-- 7&#45;&gt;44 -->
<g id="edge73" class="edge">
<title>7&#45;&gt;44</title>
<path fill="none" stroke="grey" stroke-width="2" d="M1393,-647.95C1393,-621.29 1393,-568.11 1393,-523 1393,-523 1393,-523 1393,-449 1393,-396.4 1441.93,-354.03 1478.56,-329.69"/>
<polygon fill="grey" stroke="grey" stroke-width="2" points="1480.59,-332.54 1487.1,-324.18 1476.8,-326.66 1480.59,-332.54"/>
</g>
<!-- 48 -->
<g id="node49" class="node">
<title>48</title>
<path fill="none" stroke="#5673d8" stroke-width="2" d="M1494,-612C1494,-612 1464,-612 1464,-612 1458,-612 1452,-606 1452,-600 1452,-600 1452,-588 1452,-588 1452,-582 1458,-576 1464,-576 1464,-576 1494,-576 1494,-576 1500,-576 1506,-582 1506,-588 1506,-588 1506,-600 1506,-600 1506,-606 1500,-612 1494,-612"/>
<text text-anchor="middle" x="1479" y="-591.5" font-family="sans" font-size="10.00">cell_qc</text>
</g>
<!-- 7&#45;&gt;48 -->
<g id="edge78" class="edge">
<title>7&#45;&gt;48</title>
<path fill="none" stroke="grey" stroke-width="2" d="M1414.26,-647.7C1425.09,-638.88 1438.42,-628.03 1450.16,-618.47"/>
<polygon fill="grey" stroke="grey" stroke-width="2" points="1452.44,-621.13 1457.99,-612.1 1448.02,-615.7 1452.44,-621.13"/>
</g>
<!-- 8 -->
<g id="node9" class="node">
<title>8</title>
<path fill="none" stroke="#80d856" stroke-width="2" d="M1419.5,-756C1419.5,-756 1366.5,-756 1366.5,-756 1360.5,-756 1354.5,-750 1354.5,-744 1354.5,-744 1354.5,-732 1354.5,-732 1354.5,-726 1360.5,-720 1366.5,-720 1366.5,-720 1419.5,-720 1419.5,-720 1425.5,-720 1431.5,-726 1431.5,-732 1431.5,-732 1431.5,-744 1431.5,-744 1431.5,-750 1425.5,-756 1419.5,-756"/>
<text text-anchor="middle" x="1393" y="-735.5" font-family="sans" font-size="10.00">sra_to_fastq</text>
</g>
<!-- 8&#45;&gt;7 -->
<g id="edge17" class="edge">
<title>8&#45;&gt;7</title>
<path fill="none" stroke="grey" stroke-width="2" d="M1393,-719.7C1393,-711.98 1393,-702.71 1393,-694.11"/>
<polygon fill="grey" stroke="grey" stroke-width="2" points="1396.5,-694.1 1393,-684.1 1389.5,-694.1 1396.5,-694.1"/>
</g>
<!-- 9 -->
<g id="node10" class="node">
<title>9</title>
<path fill="none" stroke="#56a9d8" stroke-width="2" d="M1466,-844C1466,-844 1320,-844 1320,-844 1314,-844 1308,-838 1308,-832 1308,-832 1308,-804 1308,-804 1308,-798 1314,-792 1320,-792 1320,-792 1466,-792 1466,-792 1472,-792 1478,-798 1478,-804 1478,-804 1478,-832 1478,-832 1478,-838 1472,-844 1466,-844"/>
<text text-anchor="middle" x="1393" y="-832" font-family="sans" font-size="10.00">prefetch_sra</text>
<text text-anchor="middle" x="1393" y="-821" font-family="sans" font-size="10.00">dataset: rna_gex_PRJNA587486</text>
<text text-anchor="middle" x="1393" y="-810" font-family="sans" font-size="10.00">samp: DZ1_GSM4148372</text>
<text text-anchor="middle" x="1393" y="-799" font-family="sans" font-size="10.00">sra_run: SRR11827036</text>
</g>
<!-- 9&#45;&gt;8 -->
<g id="edge18" class="edge">
<title>9&#45;&gt;8</title>
<path fill="none" stroke="grey" stroke-width="2" d="M1393,-791.89C1393,-783.84 1393,-774.88 1393,-766.66"/>
<polygon fill="grey" stroke="grey" stroke-width="2" points="1396.5,-766.41 1393,-756.41 1389.5,-766.41 1396.5,-766.41"/>
</g>
<!-- 10 -->
<g id="node11" class="node">
<title>10</title>
<path fill="none" stroke="#56d863" stroke-width="2" d="M2225,-684C2225,-684 2133,-684 2133,-684 2127,-684 2121,-678 2121,-672 2121,-672 2121,-660 2121,-660 2121,-654 2127,-648 2133,-648 2133,-648 2225,-648 2225,-648 2231,-648 2237,-654 2237,-660 2237,-660 2237,-672 2237,-672 2237,-678 2231,-684 2225,-684"/>
<text text-anchor="middle" x="2179" y="-663.5" font-family="sans" font-size="10.00">align_multi_starsolo</text>
</g>
<!-- 10&#45;&gt;0 -->
<g id="edge4" class="edge">
<title>10&#45;&gt;0</title>
<path fill="none" stroke="grey" stroke-width="2" d="M2237.32,-662.49C2323.82,-655.29 2476,-627.73 2476,-523 2476,-523 2476,-523 2476,-161 2476,-41.49 2031.46,-22.56 1896.43,-19.56"/>
<polygon fill="grey" stroke="grey" stroke-width="2" points="1896.23,-16.06 1886.16,-19.35 1896.09,-23.06 1896.23,-16.06"/>
</g>
<!-- 55 -->
<g id="node56" class="node">
<title>55</title>
<path fill="none" stroke="#56d882" stroke-width="2" d="M2206.5,-324C2206.5,-324 2113.5,-324 2113.5,-324 2107.5,-324 2101.5,-318 2101.5,-312 2101.5,-312 2101.5,-300 2101.5,-300 2101.5,-294 2107.5,-288 2113.5,-288 2113.5,-288 2206.5,-288 2206.5,-288 2212.5,-288 2218.5,-294 2218.5,-300 2218.5,-300 2218.5,-312 2218.5,-312 2218.5,-318 2212.5,-324 2206.5,-324"/>
<text text-anchor="middle" x="2160" y="-303.5" font-family="sans" font-size="10.00">stellarscope_cellsort</text>
</g>
<!-- 10&#45;&gt;55 -->
<g id="edge93" class="edge">
<title>10&#45;&gt;55</title>
<path fill="none" stroke="grey" stroke-width="2" d="M2141.17,-647.9C2098.5,-625.72 2035,-582.69 2035,-523 2035,-523 2035,-523 2035,-449 2035,-396.4 2083.93,-354.03 2120.56,-329.69"/>
<polygon fill="grey" stroke="grey" stroke-width="2" points="2122.59,-332.54 2129.1,-324.18 2118.8,-326.66 2122.59,-332.54"/>
</g>
<!-- 59 -->
<g id="node60" class="node">
<title>59</title>
<path fill="none" stroke="#5673d8" stroke-width="2" d="M2194,-612C2194,-612 2164,-612 2164,-612 2158,-612 2152,-606 2152,-600 2152,-600 2152,-588 2152,-588 2152,-582 2158,-576 2164,-576 2164,-576 2194,-576 2194,-576 2200,-576 2206,-582 2206,-588 2206,-588 2206,-600 2206,-600 2206,-606 2200,-612 2194,-612"/>
<text text-anchor="middle" x="2179" y="-591.5" font-family="sans" font-size="10.00">cell_qc</text>
</g>
<!-- 10&#45;&gt;59 -->
<g id="edge98" class="edge">
<title>10&#45;&gt;59</title>
<path fill="none" stroke="grey" stroke-width="2" d="M2179,-647.7C2179,-639.98 2179,-630.71 2179,-622.11"/>
<polygon fill="grey" stroke="grey" stroke-width="2" points="2182.5,-622.1 2179,-612.1 2175.5,-622.1 2182.5,-622.1"/>
</g>
<!-- 11 -->
<g id="node12" class="node">
<title>11</title>
<path fill="none" stroke="#80d856" stroke-width="2" d="M2205.5,-756C2205.5,-756 2152.5,-756 2152.5,-756 2146.5,-756 2140.5,-750 2140.5,-744 2140.5,-744 2140.5,-732 2140.5,-732 2140.5,-726 2146.5,-720 2152.5,-720 2152.5,-720 2205.5,-720 2205.5,-720 2211.5,-720 2217.5,-726 2217.5,-732 2217.5,-732 2217.5,-744 2217.5,-744 2217.5,-750 2211.5,-756 2205.5,-756"/>
<text text-anchor="middle" x="2179" y="-735.5" font-family="sans" font-size="10.00">sra_to_fastq</text>
</g>
<!-- 11&#45;&gt;10 -->
<g id="edge19" class="edge">
<title>11&#45;&gt;10</title>
<path fill="none" stroke="grey" stroke-width="2" d="M2179,-719.7C2179,-711.98 2179,-702.71 2179,-694.11"/>
<polygon fill="grey" stroke="grey" stroke-width="2" points="2182.5,-694.1 2179,-684.1 2175.5,-694.1 2182.5,-694.1"/>
</g>
<!-- 12 -->
<g id="node13" class="node">
<title>12</title>
<path fill="none" stroke="#56a9d8" stroke-width="2" d="M2252,-844C2252,-844 2106,-844 2106,-844 2100,-844 2094,-838 2094,-832 2094,-832 2094,-804 2094,-804 2094,-798 2100,-792 2106,-792 2106,-792 2252,-792 2252,-792 2258,-792 2264,-798 2264,-804 2264,-804 2264,-832 2264,-832 2264,-838 2258,-844 2252,-844"/>
<text text-anchor="middle" x="2179" y="-832" font-family="sans" font-size="10.00">prefetch_sra</text>
<text text-anchor="middle" x="2179" y="-821" font-family="sans" font-size="10.00">dataset: rna_gex_PRJNA587486</text>
<text text-anchor="middle" x="2179" y="-810" font-family="sans" font-size="10.00">samp: DZ2_GSM4148373</text>
<text text-anchor="middle" x="2179" y="-799" font-family="sans" font-size="10.00">sra_run: SRR11827037</text>
</g>
<!-- 12&#45;&gt;11 -->
<g id="edge20" class="edge">
<title>12&#45;&gt;11</title>
<path fill="none" stroke="grey" stroke-width="2" d="M2179,-791.89C2179,-783.84 2179,-774.88 2179,-766.66"/>
<polygon fill="grey" stroke="grey" stroke-width="2" points="2182.5,-766.41 2179,-756.41 2175.5,-766.41 2182.5,-766.41"/>
</g>
<!-- 13 -->
<g id="node14" class="node">
<title>13</title>
<path fill="none" stroke="#56d863" stroke-width="2" d="M2851,-684C2851,-684 2759,-684 2759,-684 2753,-684 2747,-678 2747,-672 2747,-672 2747,-660 2747,-660 2747,-654 2753,-648 2759,-648 2759,-648 2851,-648 2851,-648 2857,-648 2863,-654 2863,-660 2863,-660 2863,-672 2863,-672 2863,-678 2857,-684 2851,-684"/>
<text text-anchor="middle" x="2805" y="-663.5" font-family="sans" font-size="10.00">align_multi_starsolo</text>
</g>
<!-- 13&#45;&gt;0 -->
<g id="edge5" class="edge">
<title>13&#45;&gt;0</title>
<path fill="none" stroke="grey" stroke-width="2" d="M2863.32,-662.49C2949.82,-655.29 3102,-627.73 3102,-523 3102,-523 3102,-523 3102,-161 3102,-36.48 2105.34,-21.1 1896.21,-19.25"/>
<polygon fill="grey" stroke="grey" stroke-width="2" points="1896.05,-15.75 1886.02,-19.16 1895.99,-22.75 1896.05,-15.75"/>
</g>
<!-- 66 -->
<g id="node67" class="node">
<title>66</title>
<path fill="none" stroke="#56d882" stroke-width="2" d="M2832.5,-324C2832.5,-324 2739.5,-324 2739.5,-324 2733.5,-324 2727.5,-318 2727.5,-312 2727.5,-312 2727.5,-300 2727.5,-300 2727.5,-294 2733.5,-288 2739.5,-288 2739.5,-288 2832.5,-288 2832.5,-288 2838.5,-288 2844.5,-294 2844.5,-300 2844.5,-300 2844.5,-312 2844.5,-312 2844.5,-318 2838.5,-324 2832.5,-324"/>
<text text-anchor="middle" x="2786" y="-303.5" font-family="sans" font-size="10.00">stellarscope_cellsort</text>
</g>
<!-- 13&#45;&gt;66 -->
<g id="edge113" class="edge">
<title>13&#45;&gt;66</title>
<path fill="none" stroke="grey" stroke-width="2" d="M2767.17,-647.9C2724.5,-625.72 2661,-582.69 2661,-523 2661,-523 2661,-523 2661,-449 2661,-396.4 2709.93,-354.03 2746.56,-329.69"/>
<polygon fill="grey" stroke="grey" stroke-width="2" points="2748.59,-332.54 2755.1,-324.18 2744.8,-326.66 2748.59,-332.54"/>
</g>
<!-- 70 -->
<g id="node71" class="node">
<title>70</title>
<path fill="none" stroke="#5673d8" stroke-width="2" d="M2820,-612C2820,-612 2790,-612 2790,-612 2784,-612 2778,-606 2778,-600 2778,-600 2778,-588 2778,-588 2778,-582 2784,-576 2790,-576 2790,-576 2820,-576 2820,-576 2826,-576 2832,-582 2832,-588 2832,-588 2832,-600 2832,-600 2832,-606 2826,-612 2820,-612"/>
<text text-anchor="middle" x="2805" y="-591.5" font-family="sans" font-size="10.00">cell_qc</text>
</g>
<!-- 13&#45;&gt;70 -->
<g id="edge118" class="edge">
<title>13&#45;&gt;70</title>
<path fill="none" stroke="grey" stroke-width="2" d="M2805,-647.7C2805,-639.98 2805,-630.71 2805,-622.11"/>
<polygon fill="grey" stroke="grey" stroke-width="2" points="2808.5,-622.1 2805,-612.1 2801.5,-622.1 2808.5,-622.1"/>
</g>
<!-- 14 -->
<g id="node15" class="node">
<title>14</title>
<path fill="none" stroke="#80d856" stroke-width="2" d="M2831.5,-756C2831.5,-756 2778.5,-756 2778.5,-756 2772.5,-756 2766.5,-750 2766.5,-744 2766.5,-744 2766.5,-732 2766.5,-732 2766.5,-726 2772.5,-720 2778.5,-720 2778.5,-720 2831.5,-720 2831.5,-720 2837.5,-720 2843.5,-726 2843.5,-732 2843.5,-732 2843.5,-744 2843.5,-744 2843.5,-750 2837.5,-756 2831.5,-756"/>
<text text-anchor="middle" x="2805" y="-735.5" font-family="sans" font-size="10.00">sra_to_fastq</text>
</g>
<!-- 14&#45;&gt;13 -->
<g id="edge21" class="edge">
<title>14&#45;&gt;13</title>
<path fill="none" stroke="grey" stroke-width="2" d="M2805,-719.7C2805,-711.98 2805,-702.71 2805,-694.11"/>
<polygon fill="grey" stroke="grey" stroke-width="2" points="2808.5,-694.1 2805,-684.1 2801.5,-694.1 2808.5,-694.1"/>
</g>
<!-- 15 -->
<g id="node16" class="node">
<title>15</title>
<path fill="none" stroke="#56a9d8" stroke-width="2" d="M2878,-844C2878,-844 2732,-844 2732,-844 2726,-844 2720,-838 2720,-832 2720,-832 2720,-804 2720,-804 2720,-798 2726,-792 2732,-792 2732,-792 2878,-792 2878,-792 2884,-792 2890,-798 2890,-804 2890,-804 2890,-832 2890,-832 2890,-838 2884,-844 2878,-844"/>
<text text-anchor="middle" x="2805" y="-832" font-family="sans" font-size="10.00">prefetch_sra</text>
<text text-anchor="middle" x="2805" y="-821" font-family="sans" font-size="10.00">dataset: rna_gex_PRJNA587486</text>
<text text-anchor="middle" x="2805" y="-810" font-family="sans" font-size="10.00">samp: LZ1_GSM4148374</text>
<text text-anchor="middle" x="2805" y="-799" font-family="sans" font-size="10.00">sra_run: SRR11827038</text>
</g>
<!-- 15&#45;&gt;14 -->
<g id="edge22" class="edge">
<title>15&#45;&gt;14</title>
<path fill="none" stroke="grey" stroke-width="2" d="M2805,-791.89C2805,-783.84 2805,-774.88 2805,-766.66"/>
<polygon fill="grey" stroke="grey" stroke-width="2" points="2808.5,-766.41 2805,-756.41 2801.5,-766.41 2808.5,-766.41"/>
</g>
<!-- 16 -->
<g id="node17" class="node">
<title>16</title>
<path fill="none" stroke="#56d863" stroke-width="2" d="M3339,-684C3339,-684 3247,-684 3247,-684 3241,-684 3235,-678 3235,-672 3235,-672 3235,-660 3235,-660 3235,-654 3241,-648 3247,-648 3247,-648 3339,-648 3339,-648 3345,-648 3351,-654 3351,-660 3351,-660 3351,-672 3351,-672 3351,-678 3345,-684 3339,-684"/>
<text text-anchor="middle" x="3293" y="-663.5" font-family="sans" font-size="10.00">align_multi_starsolo</text>
</g>
<!-- 16&#45;&gt;0 -->
<g id="edge6" class="edge">
<title>16&#45;&gt;0</title>
<path fill="none" stroke="grey" stroke-width="2" d="M3251.6,-647.97C3206.28,-626.26 3140,-584.06 3140,-523 3140,-523 3140,-523 3140,-161 3140,-123.82 3303.86,-155.3 2955,-72 2747.79,-22.52 2066.49,-19.04 1896.63,-18.95"/>
<polygon fill="grey" stroke="grey" stroke-width="2" points="1896.41,-15.45 1886.41,-18.95 1896.41,-22.45 1896.41,-15.45"/>
</g>
<!-- 77 -->
<g id="node78" class="node">
<title>77</title>
<path fill="none" stroke="#56d882" stroke-width="2" d="M3464.5,-324C3464.5,-324 3371.5,-324 3371.5,-324 3365.5,-324 3359.5,-318 3359.5,-312 3359.5,-312 3359.5,-300 3359.5,-300 3359.5,-294 3365.5,-288 3371.5,-288 3371.5,-288 3464.5,-288 3464.5,-288 3470.5,-288 3476.5,-294 3476.5,-300 3476.5,-300 3476.5,-312 3476.5,-312 3476.5,-318 3470.5,-324 3464.5,-324"/>
<text text-anchor="middle" x="3418" y="-303.5" font-family="sans" font-size="10.00">stellarscope_cellsort</text>
</g>
<!-- 16&#45;&gt;77 -->
<g id="edge133" class="edge">
<title>16&#45;&gt;77</title>
<path fill="none" stroke="grey" stroke-width="2" d="M3293,-647.95C3293,-621.29 3293,-568.11 3293,-523 3293,-523 3293,-523 3293,-449 3293,-396.4 3341.93,-354.03 3378.56,-329.69"/>
<polygon fill="grey" stroke="grey" stroke-width="2" points="3380.59,-332.54 3387.1,-324.18 3376.8,-326.66 3380.59,-332.54"/>
</g>
<!-- 81 -->
<g id="node82" class="node">
<title>81</title>
<path fill="none" stroke="#5673d8" stroke-width="2" d="M3393,-612C3393,-612 3363,-612 3363,-612 3357,-612 3351,-606 3351,-600 3351,-600 3351,-588 3351,-588 3351,-582 3357,-576 3363,-576 3363,-576 3393,-576 3393,-576 3399,-576 3405,-582 3405,-588 3405,-588 3405,-600 3405,-600 3405,-606 3399,-612 3393,-612"/>
<text text-anchor="middle" x="3378" y="-591.5" font-family="sans" font-size="10.00">cell_qc</text>
</g>
<!-- 16&#45;&gt;81 -->
<g id="edge138" class="edge">
<title>16&#45;&gt;81</title>
<path fill="none" stroke="grey" stroke-width="2" d="M3314.01,-647.7C3324.72,-638.88 3337.89,-628.03 3349.5,-618.47"/>
<polygon fill="grey" stroke="grey" stroke-width="2" points="3351.74,-621.16 3357.23,-612.1 3347.29,-615.76 3351.74,-621.16"/>
</g>
<!-- 17 -->
<g id="node18" class="node">
<title>17</title>
<path fill="none" stroke="#80d856" stroke-width="2" d="M3319.5,-756C3319.5,-756 3266.5,-756 3266.5,-756 3260.5,-756 3254.5,-750 3254.5,-744 3254.5,-744 3254.5,-732 3254.5,-732 3254.5,-726 3260.5,-720 3266.5,-720 3266.5,-720 3319.5,-720 3319.5,-720 3325.5,-720 3331.5,-726 3331.5,-732 3331.5,-732 3331.5,-744 3331.5,-744 3331.5,-750 3325.5,-756 3319.5,-756"/>
<text text-anchor="middle" x="3293" y="-735.5" font-family="sans" font-size="10.00">sra_to_fastq</text>
</g>
<!-- 17&#45;&gt;16 -->
<g id="edge23" class="edge">
<title>17&#45;&gt;16</title>
<path fill="none" stroke="grey" stroke-width="2" d="M3293,-719.7C3293,-711.98 3293,-702.71 3293,-694.11"/>
<polygon fill="grey" stroke="grey" stroke-width="2" points="3296.5,-694.1 3293,-684.1 3289.5,-694.1 3296.5,-694.1"/>
</g>
<!-- 18 -->
<g id="node19" class="node">
<title>18</title>
<path fill="none" stroke="#56a9d8" stroke-width="2" d="M3366,-844C3366,-844 3220,-844 3220,-844 3214,-844 3208,-838 3208,-832 3208,-832 3208,-804 3208,-804 3208,-798 3214,-792 3220,-792 3220,-792 3366,-792 3366,-792 3372,-792 3378,-798 3378,-804 3378,-804 3378,-832 3378,-832 3378,-838 3372,-844 3366,-844"/>
<text text-anchor="middle" x="3293" y="-832" font-family="sans" font-size="10.00">prefetch_sra</text>
<text text-anchor="middle" x="3293" y="-821" font-family="sans" font-size="10.00">dataset: rna_gex_PRJNA587486</text>
<text text-anchor="middle" x="3293" y="-810" font-family="sans" font-size="10.00">samp: LZ2_GSM4148375</text>
<text text-anchor="middle" x="3293" y="-799" font-family="sans" font-size="10.00">sra_run: SRR11827039</text>
</g>
<!-- 18&#45;&gt;17 -->
<g id="edge24" class="edge">
<title>18&#45;&gt;17</title>
<path fill="none" stroke="grey" stroke-width="2" d="M3293,-791.89C3293,-783.84 3293,-774.88 3293,-766.66"/>
<polygon fill="grey" stroke="grey" stroke-width="2" points="3296.5,-766.41 3293,-756.41 3289.5,-766.41 3296.5,-766.41"/>
</g>
<!-- 19 -->
<g id="node20" class="node">
<title>19</title>
<path fill="none" stroke="#61d856" stroke-width="2" d="M430.5,-108C430.5,-108 319.5,-108 319.5,-108 313.5,-108 307.5,-102 307.5,-96 307.5,-96 307.5,-84 307.5,-84 307.5,-78 313.5,-72 319.5,-72 319.5,-72 430.5,-72 430.5,-72 436.5,-72 442.5,-78 442.5,-84 442.5,-84 442.5,-96 442.5,-96 442.5,-102 436.5,-108 430.5,-108"/>
<text text-anchor="middle" x="375" y="-87.5" font-family="sans" font-size="10.00">stellarscope_poolmodes</text>
</g>
<!-- 19&#45;&gt;0 -->
<g id="edge7" class="edge">
<title>19&#45;&gt;0</title>
<path fill="none" stroke="grey" stroke-width="2" d="M442.72,-82.81C483.61,-79.24 536.76,-74.9 584,-72 1071.12,-42.07 1664.07,-24.38 1819.32,-20.05"/>
<polygon fill="grey" stroke="grey" stroke-width="2" points="1819.83,-23.54 1829.73,-19.76 1819.64,-16.54 1819.83,-23.54"/>
</g>
<!-- 20 -->
<g id="node21" class="node">
<title>20</title>
<path fill="none" stroke="#56c1d8" stroke-width="2" d="M422,-180C422,-180 328,-180 328,-180 322,-180 316,-174 316,-168 316,-168 316,-156 316,-156 316,-150 322,-144 328,-144 328,-144 422,-144 422,-144 428,-144 434,-150 434,-156 434,-156 434,-168 434,-168 434,-174 428,-180 422,-180"/>
<text text-anchor="middle" x="375" y="-165" font-family="sans" font-size="10.00">stellarscope_resume</text>
<text text-anchor="middle" x="375" y="-154" font-family="sans" font-size="10.00">pmode: individual</text>
</g>
<!-- 20&#45;&gt;19 -->
<g id="edge25" class="edge">
<title>20&#45;&gt;19</title>
<path fill="none" stroke="grey" stroke-width="2" d="M375,-143.7C375,-135.98 375,-126.71 375,-118.11"/>
<polygon fill="grey" stroke="grey" stroke-width="2" points="378.5,-118.1 375,-108.1 371.5,-118.1 378.5,-118.1"/>
</g>
<!-- 21 -->
<g id="node22" class="node">
<title>21</title>
<path fill="none" stroke="#b6d856" stroke-width="2" d="M366,-252C366,-252 288,-252 288,-252 282,-252 276,-246 276,-240 276,-240 276,-228 276,-228 276,-222 282,-216 288,-216 288,-216 366,-216 366,-216 372,-216 378,-222 378,-228 378,-228 378,-240 378,-240 378,-246 372,-252 366,-252"/>
<text text-anchor="middle" x="327" y="-231.5" font-family="sans" font-size="10.00">stellarscope_load</text>
</g>
<!-- 21&#45;&gt;20 -->
<g id="edge29" class="edge">
<title>21&#45;&gt;20</title>
<path fill="none" stroke="grey" stroke-width="2" d="M338.87,-215.7C344.5,-207.47 351.35,-197.48 357.57,-188.42"/>
<polygon fill="grey" stroke="grey" stroke-width="2" points="360.5,-190.33 363.27,-180.1 354.73,-186.37 360.5,-190.33"/>
</g>
<!-- 27 -->
<g id="node28" class="node">
<title>27</title>
<path fill="none" stroke="#56c1d8" stroke-width="2" d="M558,-180C558,-180 464,-180 464,-180 458,-180 452,-174 452,-168 452,-168 452,-156 452,-156 452,-150 458,-144 464,-144 464,-144 558,-144 558,-144 564,-144 570,-150 570,-156 570,-156 570,-168 570,-168 570,-174 564,-180 558,-180"/>
<text text-anchor="middle" x="511" y="-165" font-family="sans" font-size="10.00">stellarscope_resume</text>
<text text-anchor="middle" x="511" y="-154" font-family="sans" font-size="10.00">pmode: pseudobulk</text>
</g>
<!-- 21&#45;&gt;27 -->
<g id="edge39" class="edge">
<title>21&#45;&gt;27</title>
<path fill="none" stroke="grey" stroke-width="2" d="M372.01,-215.88C397.5,-206.18 429.57,-193.98 456.48,-183.74"/>
<polygon fill="grey" stroke="grey" stroke-width="2" points="458.03,-186.9 466.13,-180.07 455.54,-180.35 458.03,-186.9"/>
</g>
<!-- 28 -->
<g id="node29" class="node">
<title>28</title>
<path fill="none" stroke="#56c1d8" stroke-width="2" d="M106,-180C106,-180 12,-180 12,-180 6,-180 0,-174 0,-168 0,-168 0,-156 0,-156 0,-150 6,-144 12,-144 12,-144 106,-144 106,-144 112,-144 118,-150 118,-156 118,-156 118,-168 118,-168 118,-174 112,-180 106,-180"/>
<text text-anchor="middle" x="59" y="-165" font-family="sans" font-size="10.00">stellarscope_resume</text>
<text text-anchor="middle" x="59" y="-154" font-family="sans" font-size="10.00">pmode: celltype</text>
</g>
<!-- 21&#45;&gt;28 -->
<g id="edge41" class="edge">
<title>21&#45;&gt;28</title>
<path fill="none" stroke="grey" stroke-width="2" d="M275.96,-219.67C234.08,-208.73 174.37,-193.14 128.19,-181.07"/>
<polygon fill="grey" stroke="grey" stroke-width="2" points="128.82,-177.62 118.26,-178.48 127.05,-184.39 128.82,-177.62"/>
</g>
<!-- 29 -->
<g id="node30" class="node">
<title>29</title>
<path fill="none" stroke="#d8c356" stroke-width="2" d="M286,-180C286,-180 148,-180 148,-180 142,-180 136,-174 136,-168 136,-168 136,-156 136,-156 136,-150 142,-144 148,-144 148,-144 286,-144 286,-144 292,-144 298,-150 298,-156 298,-156 298,-168 298,-168 298,-174 292,-180 286,-180"/>
<text text-anchor="middle" x="217" y="-165" font-family="sans" font-size="10.00">stellarscope_resume_celltype</text>
<text text-anchor="middle" x="217" y="-154" font-family="sans" font-size="10.00">lvl: l1</text>
</g>
<!-- 21&#45;&gt;29 -->
<g id="edge43" class="edge">
<title>21&#45;&gt;29</title>
<path fill="none" stroke="grey" stroke-width="2" d="M300.09,-215.88C285.84,-206.81 268.15,-195.55 252.76,-185.76"/>
<polygon fill="grey" stroke="grey" stroke-width="2" points="254.33,-182.61 244.01,-180.19 250.57,-188.51 254.33,-182.61"/>
</g>
<!-- 22&#45;&gt;21 -->
<g id="edge31" class="edge">
<title>22&#45;&gt;21</title>
<path fill="none" stroke="grey" stroke-width="2" d="M309.69,-287.7C312.25,-279.9 315.33,-270.51 318.18,-261.83"/>
<polygon fill="grey" stroke="grey" stroke-width="2" points="321.58,-262.7 321.38,-252.1 314.93,-260.51 321.58,-262.7"/>
</g>
<!-- 23 -->
<g id="node24" class="node">
<title>23</title>
<path fill="none" stroke="#568ad8" stroke-width="2" d="M339,-396C339,-396 307,-396 307,-396 301,-396 295,-390 295,-384 295,-384 295,-372 295,-372 295,-366 301,-360 307,-360 307,-360 339,-360 339,-360 345,-360 351,-366 351,-372 351,-372 351,-384 351,-384 351,-390 345,-396 339,-396"/>
<text text-anchor="middle" x="323" y="-375.5" font-family="sans" font-size="10.00">scrublet</text>
</g>
<!-- 23&#45;&gt;21 -->
<g id="edge32" class="edge">
<title>23&#45;&gt;21</title>
<path fill="none" stroke="grey" stroke-width="2" d="M344.71,-359.79C354.76,-350.41 365.64,-337.9 371,-324 376.76,-309.07 376.43,-303.05 371,-288 367.25,-277.6 360.46,-267.8 353.33,-259.52"/>
<polygon fill="grey" stroke="grey" stroke-width="2" points="355.83,-257.06 346.47,-252.08 350.68,-261.81 355.83,-257.06"/>
</g>
<!-- 23&#45;&gt;22 -->
<g id="edge34" class="edge">
<title>23&#45;&gt;22</title>
<path fill="none" stroke="grey" stroke-width="2" d="M318.3,-359.7C316.19,-351.9 313.64,-342.51 311.28,-333.83"/>
<polygon fill="grey" stroke="grey" stroke-width="2" points="314.64,-332.84 308.64,-324.1 307.88,-334.67 314.64,-332.84"/>
</g>
<!-- 24 -->
<g id="node25" class="node">
<title>24</title>
<path fill="none" stroke="#d88d56" stroke-width="2" d="M371,-468C371,-468 275,-468 275,-468 269,-468 263,-462 263,-456 263,-456 263,-444 263,-444 263,-438 269,-432 275,-432 275,-432 371,-432 371,-432 377,-432 383,-438 383,-444 383,-444 383,-456 383,-456 383,-462 377,-468 371,-468"/>
<text text-anchor="middle" x="323" y="-447.5" font-family="sans" font-size="10.00">seurat_to_mtx_forscr</text>
</g>
<!-- 24&#45;&gt;23 -->
<g id="edge35" class="edge">
<title>24&#45;&gt;23</title>
<path fill="none" stroke="grey" stroke-width="2" d="M323,-431.7C323,-423.98 323,-414.71 323,-406.11"/>
<polygon fill="grey" stroke="grey" stroke-width="2" points="326.5,-406.1 323,-396.1 319.5,-406.1 326.5,-406.1"/>
</g>
<!-- 25 -->
<g id="node26" class="node">
<title>25</title>
<path fill="none" stroke="#ced856" stroke-width="2" d="M388.5,-540C388.5,-540 257.5,-540 257.5,-540 251.5,-540 245.5,-534 245.5,-528 245.5,-528 245.5,-516 245.5,-516 245.5,-510 251.5,-504 257.5,-504 257.5,-504 388.5,-504 388.5,-504 394.5,-504 400.5,-510 400.5,-516 400.5,-516 400.5,-528 400.5,-528 400.5,-534 394.5,-540 388.5,-540"/>
<text text-anchor="middle" x="323" y="-519.5" font-family="sans" font-size="10.00">annotate_celltypes_azimuth</text>
</g>
<!-- 25&#45;&gt;20 -->
<g id="edge30" class="edge">
<title>25&#45;&gt;20</title>
<path fill="none" stroke="grey" stroke-width="2" d="M351.73,-503.96C365.37,-494.71 381.05,-482.26 392,-468 418.09,-434.03 429,-421.84 429,-379 429,-379 429,-379 429,-305 429,-262.11 407.21,-216.41 391.31,-188.78"/>
<polygon fill="grey" stroke="grey" stroke-width="2" points="394.3,-186.95 386.19,-180.13 388.28,-190.52 394.3,-186.95"/>
</g>
<!-- 25&#45;&gt;24 -->
<g id="edge36" class="edge">
<title>25&#45;&gt;24</title>
<path fill="none" stroke="grey" stroke-width="2" d="M323,-503.7C323,-495.98 323,-486.71 323,-478.11"/>
<polygon fill="grey" stroke="grey" stroke-width="2" points="326.5,-478.1 323,-468.1 319.5,-478.1 326.5,-478.1"/>
</g>
<!-- 25&#45;&gt;27 -->
<g id="edge40" class="edge">
<title>25&#45;&gt;27</title>
<path fill="none" stroke="grey" stroke-width="2" d="M370.57,-503.84C419.62,-482.73 489,-441.77 489,-379 489,-379 489,-379 489,-305 489,-264.74 497.74,-218.81 504.21,-190.36"/>
<polygon fill="grey" stroke="grey" stroke-width="2" points="507.68,-190.89 506.55,-180.35 500.86,-189.29 507.68,-190.89"/>
</g>
<!-- 25&#45;&gt;28 -->
<g id="edge42" class="edge">
<title>25&#45;&gt;28</title>
<path fill="none" stroke="grey" stroke-width="2" d="M245.32,-505.09C180.96,-486.83 100,-449.8 100,-379 100,-379 100,-379 100,-305 100,-263.41 83.56,-217.56 71.5,-189.51"/>
<polygon fill="grey" stroke="grey" stroke-width="2" points="74.55,-187.75 67.3,-180.03 68.15,-190.59 74.55,-187.75"/>
</g>
<!-- 25&#45;&gt;29 -->
<g id="edge44" class="edge">
<title>25&#45;&gt;29</title>
<path fill="none" stroke="grey" stroke-width="2" d="M294.27,-503.96C280.63,-494.71 264.95,-482.26 254,-468 227.91,-434.03 217,-421.84 217,-379 217,-379 217,-379 217,-305 217,-265 217,-218.65 217,-190.08"/>
<polygon fill="grey" stroke="grey" stroke-width="2" points="220.5,-190.05 217,-180.05 213.5,-190.05 220.5,-190.05"/>
</g>
<!-- 26&#45;&gt;25 -->
<g id="edge37" class="edge">
<title>26&#45;&gt;25</title>
<path fill="none" stroke="grey" stroke-width="2" d="M323,-575.7C323,-567.98 323,-558.71 323,-550.11"/>
<polygon fill="grey" stroke="grey" stroke-width="2" points="326.5,-550.1 323,-540.1 319.5,-550.1 326.5,-550.1"/>
</g>
<!-- 27&#45;&gt;19 -->
<g id="edge26" class="edge">
<title>27&#45;&gt;19</title>
<path fill="none" stroke="grey" stroke-width="2" d="M477.73,-143.88C459.54,-134.51 436.81,-122.81 417.36,-112.8"/>
<polygon fill="grey" stroke="grey" stroke-width="2" points="418.89,-109.65 408.4,-108.19 415.69,-115.88 418.89,-109.65"/>
</g>
<!-- 28&#45;&gt;19 -->
<g id="edge27" class="edge">
<title>28&#45;&gt;19</title>
<path fill="none" stroke="grey" stroke-width="2" d="M118.31,-146.05C121.25,-145.34 124.15,-144.66 127,-144 183.98,-130.79 248.61,-117.02 297.6,-106.83"/>
<polygon fill="grey" stroke="grey" stroke-width="2" points="298.42,-110.23 307.5,-104.77 296.99,-103.38 298.42,-110.23"/>
</g>
<!-- 29&#45;&gt;19 -->
<g id="edge28" class="edge">
<title>29&#45;&gt;19</title>
<path fill="none" stroke="grey" stroke-width="2" d="M255.65,-143.88C277.25,-134.31 304.35,-122.3 327.27,-112.15"/>
<polygon fill="grey" stroke="grey" stroke-width="2" points="328.75,-115.32 336.47,-108.07 325.91,-108.92 328.75,-115.32"/>
</g>
<!-- 30 -->
<g id="node31" class="node">
<title>30</title>
<path fill="none" stroke="#61d856" stroke-width="2" d="M1056.5,-108C1056.5,-108 945.5,-108 945.5,-108 939.5,-108 933.5,-102 933.5,-96 933.5,-96 933.5,-84 933.5,-84 933.5,-78 939.5,-72 945.5,-72 945.5,-72 1056.5,-72 1056.5,-72 1062.5,-72 1068.5,-78 1068.5,-84 1068.5,-84 1068.5,-96 1068.5,-96 1068.5,-102 1062.5,-108 1056.5,-108"/>
<text text-anchor="middle" x="1001" y="-87.5" font-family="sans" font-size="10.00">stellarscope_poolmodes</text>
</g>
<!-- 30&#45;&gt;0 -->
<g id="edge8" class="edge">
<title>30&#45;&gt;0</title>
<path fill="none" stroke="grey" stroke-width="2" d="M1068.61,-83.48C1239.66,-69.51 1685.55,-33.09 1819.44,-22.15"/>
<polygon fill="grey" stroke="grey" stroke-width="2" points="1819.94,-25.62 1829.62,-21.32 1819.37,-18.64 1819.94,-25.62"/>
</g>
<!-- 31 -->
<g id="node32" class="node">
<title>31</title>
<path fill="none" stroke="#56c1d8" stroke-width="2" d="M1048,-180C1048,-180 954,-180 954,-180 948,-180 942,-174 942,-168 942,-168 942,-156 942,-156 942,-150 948,-144 954,-144 954,-144 1048,-144 1048,-144 1054,-144 1060,-150 1060,-156 1060,-156 1060,-168 1060,-168 1060,-174 1054,-180 1048,-180"/>
<text text-anchor="middle" x="1001" y="-165" font-family="sans" font-size="10.00">stellarscope_resume</text>
<text text-anchor="middle" x="1001" y="-154" font-family="sans" font-size="10.00">pmode: individual</text>
</g>
<!-- 31&#45;&gt;30 -->
<g id="edge45" class="edge">
<title>31&#45;&gt;30</title>
<path fill="none" stroke="grey" stroke-width="2" d="M1001,-143.7C1001,-135.98 1001,-126.71 1001,-118.11"/>
<polygon fill="grey" stroke="grey" stroke-width="2" points="1004.5,-118.1 1001,-108.1 997.5,-118.1 1004.5,-118.1"/>
</g>
<!-- 32 -->
<g id="node33" class="node">
<title>32</title>
<path fill="none" stroke="#b6d856" stroke-width="2" d="M992,-252C992,-252 914,-252 914,-252 908,-252 902,-246 902,-240 902,-240 902,-228 902,-228 902,-222 908,-216 914,-216 914,-216 992,-216 992,-216 998,-216 1004,-222 1004,-228 1004,-228 1004,-240 1004,-240 1004,-246 998,-252 992,-252"/>
<text text-anchor="middle" x="953" y="-231.5" font-family="sans" font-size="10.00">stellarscope_load</text>
</g>
<!-- 32&#45;&gt;31 -->
<g id="edge49" class="edge">
<title>32&#45;&gt;31</title>
<path fill="none" stroke="grey" stroke-width="2" d="M964.87,-215.7C970.5,-207.47 977.35,-197.48 983.57,-188.42"/>
<polygon fill="grey" stroke="grey" stroke-width="2" points="986.5,-190.33 989.27,-180.1 980.73,-186.37 986.5,-190.33"/>
</g>
<!-- 38 -->
<g id="node39" class="node">
<title>38</title>
<path fill="none" stroke="#56c1d8" stroke-width="2" d="M1184,-180C1184,-180 1090,-180 1090,-180 1084,-180 1078,-174 1078,-168 1078,-168 1078,-156 1078,-156 1078,-150 1084,-144 1090,-144 1090,-144 1184,-144 1184,-144 1190,-144 1196,-150 1196,-156 1196,-156 1196,-168 1196,-168 1196,-174 1190,-180 1184,-180"/>
<text text-anchor="middle" x="1137" y="-165" font-family="sans" font-size="10.00">stellarscope_resume</text>
<text text-anchor="middle" x="1137" y="-154" font-family="sans" font-size="10.00">pmode: pseudobulk</text>
</g>
<!-- 32&#45;&gt;38 -->
<g id="edge59" class="edge">
<title>32&#45;&gt;38</title>
<path fill="none" stroke="grey" stroke-width="2" d="M998.01,-215.88C1023.5,-206.18 1055.57,-193.98 1082.48,-183.74"/>
<polygon fill="grey" stroke="grey" stroke-width="2" points="1084.03,-186.9 1092.13,-180.07 1081.54,-180.35 1084.03,-186.9"/>
</g>
<!-- 39 -->
<g id="node40" class="node">
<title>39</title>
<path fill="none" stroke="#56c1d8" stroke-width="2" d="M732,-180C732,-180 638,-180 638,-180 632,-180 626,-174 626,-168 626,-168 626,-156 626,-156 626,-150 632,-144 638,-144 638,-144 732,-144 732,-144 738,-144 744,-150 744,-156 744,-156 744,-168 744,-168 744,-174 738,-180 732,-180"/>
<text text-anchor="middle" x="685" y="-165" font-family="sans" font-size="10.00">stellarscope_resume</text>
<text text-anchor="middle" x="685" y="-154" font-family="sans" font-size="10.00">pmode: celltype</text>
</g>
<!-- 32&#45;&gt;39 -->
<g id="edge61" class="edge">
<title>32&#45;&gt;39</title>
<path fill="none" stroke="grey" stroke-width="2" d="M901.96,-219.67C860.08,-208.73 800.37,-193.14 754.19,-181.07"/>
<polygon fill="grey" stroke="grey" stroke-width="2" points="754.82,-177.62 744.26,-178.48 753.05,-184.39 754.82,-177.62"/>
</g>
<!-- 40 -->
<g id="node41" class="node">
<title>40</title>
<path fill="none" stroke="#d8c356" stroke-width="2" d="M912,-180C912,-180 774,-180 774,-180 768,-180 762,-174 762,-168 762,-168 762,-156 762,-156 762,-150 768,-144 774,-144 774,-144 912,-144 912,-144 918,-144 924,-150 924,-156 924,-156 924,-168 924,-168 924,-174 918,-180 912,-180"/>
<text text-anchor="middle" x="843" y="-165" font-family="sans" font-size="10.00">stellarscope_resume_celltype</text>
<text text-anchor="middle" x="843" y="-154" font-family="sans" font-size="10.00">lvl: l1</text>
</g>
<!-- 32&#45;&gt;40 -->
<g id="edge63" class="edge">
<title>32&#45;&gt;40</title>
<path fill="none" stroke="grey" stroke-width="2" d="M926.09,-215.88C911.84,-206.81 894.15,-195.55 878.76,-185.76"/>
<polygon fill="grey" stroke="grey" stroke-width="2" points="880.33,-182.61 870.01,-180.19 876.57,-188.51 880.33,-182.61"/>
</g>
<!-- 33&#45;&gt;32 -->
<g id="edge51" class="edge">
<title>33&#45;&gt;32</title>
<path fill="none" stroke="grey" stroke-width="2" d="M935.69,-287.7C938.25,-279.9 941.33,-270.51 944.18,-261.83"/>
<polygon fill="grey" stroke="grey" stroke-width="2" points="947.58,-262.7 947.38,-252.1 940.93,-260.51 947.58,-262.7"/>
</g>
<!-- 34 -->
<g id="node35" class="node">
<title>34</title>
<path fill="none" stroke="#568ad8" stroke-width="2" d="M965,-396C965,-396 933,-396 933,-396 927,-396 921,-390 921,-384 921,-384 921,-372 921,-372 921,-366 927,-360 933,-360 933,-360 965,-360 965,-360 971,-360 977,-366 977,-372 977,-372 977,-384 977,-384 977,-390 971,-396 965,-396"/>
<text text-anchor="middle" x="949" y="-375.5" font-family="sans" font-size="10.00">scrublet</text>
</g>
<!-- 34&#45;&gt;32 -->
<g id="edge52" class="edge">
<title>34&#45;&gt;32</title>
<path fill="none" stroke="grey" stroke-width="2" d="M970.71,-359.79C980.76,-350.41 991.64,-337.9 997,-324 1002.76,-309.07 1002.43,-303.05 997,-288 993.25,-277.6 986.46,-267.8 979.33,-259.52"/>
<polygon fill="grey" stroke="grey" stroke-width="2" points="981.83,-257.06 972.47,-252.08 976.68,-261.81 981.83,-257.06"/>
</g>
<!-- 34&#45;&gt;33 -->
<g id="edge54" class="edge">
<title>34&#45;&gt;33</title>
<path fill="none" stroke="grey" stroke-width="2" d="M944.3,-359.7C942.19,-351.9 939.64,-342.51 937.28,-333.83"/>
<polygon fill="grey" stroke="grey" stroke-width="2" points="940.64,-332.84 934.64,-324.1 933.88,-334.67 940.64,-332.84"/>
</g>
<!-- 35 -->
<g id="node36" class="node">
<title>35</title>
<path fill="none" stroke="#d88d56" stroke-width="2" d="M997,-468C997,-468 901,-468 901,-468 895,-468 889,-462 889,-456 889,-456 889,-444 889,-444 889,-438 895,-432 901,-432 901,-432 997,-432 997,-432 1003,-432 1009,-438 1009,-444 1009,-444 1009,-456 1009,-456 1009,-462 1003,-468 997,-468"/>
<text text-anchor="middle" x="949" y="-447.5" font-family="sans" font-size="10.00">seurat_to_mtx_forscr</text>
</g>
<!-- 35&#45;&gt;34 -->
<g id="edge55" class="edge">
<title>35&#45;&gt;34</title>
<path fill="none" stroke="grey" stroke-width="2" d="M949,-431.7C949,-423.98 949,-414.71 949,-406.11"/>
<polygon fill="grey" stroke="grey" stroke-width="2" points="952.5,-406.1 949,-396.1 945.5,-406.1 952.5,-406.1"/>
</g>
<!-- 36 -->
<g id="node37" class="node">
<title>36</title>
<path fill="none" stroke="#ced856" stroke-width="2" d="M1014.5,-540C1014.5,-540 883.5,-540 883.5,-540 877.5,-540 871.5,-534 871.5,-528 871.5,-528 871.5,-516 871.5,-516 871.5,-510 877.5,-504 883.5,-504 883.5,-504 1014.5,-504 1014.5,-504 1020.5,-504 1026.5,-510 1026.5,-516 1026.5,-516 1026.5,-528 1026.5,-528 1026.5,-534 1020.5,-540 1014.5,-540"/>
<text text-anchor="middle" x="949" y="-519.5" font-family="sans" font-size="10.00">annotate_celltypes_azimuth</text>
</g>
<!-- 36&#45;&gt;31 -->
<g id="edge50" class="edge">
<title>36&#45;&gt;31</title>
<path fill="none" stroke="grey" stroke-width="2" d="M977.73,-503.96C991.37,-494.71 1007.05,-482.26 1018,-468 1044.09,-434.03 1055,-421.84 1055,-379 1055,-379 1055,-379 1055,-305 1055,-262.11 1033.21,-216.41 1017.31,-188.78"/>
<polygon fill="grey" stroke="grey" stroke-width="2" points="1020.3,-186.95 1012.19,-180.13 1014.28,-190.52 1020.3,-186.95"/>
</g>
<!-- 36&#45;&gt;35 -->
<g id="edge56" class="edge">
<title>36&#45;&gt;35</title>
<path fill="none" stroke="grey" stroke-width="2" d="M949,-503.7C949,-495.98 949,-486.71 949,-478.11"/>
<polygon fill="grey" stroke="grey" stroke-width="2" points="952.5,-478.1 949,-468.1 945.5,-478.1 952.5,-478.1"/>
</g>
<!-- 36&#45;&gt;38 -->
<g id="edge60" class="edge">
<title>36&#45;&gt;38</title>
<path fill="none" stroke="grey" stroke-width="2" d="M996.57,-503.84C1045.62,-482.73 1115,-441.77 1115,-379 1115,-379 1115,-379 1115,-305 1115,-264.74 1123.74,-218.81 1130.21,-190.36"/>
<polygon fill="grey" stroke="grey" stroke-width="2" points="1133.68,-190.89 1132.55,-180.35 1126.86,-189.29 1133.68,-190.89"/>
</g>
<!-- 36&#45;&gt;39 -->
<g id="edge62" class="edge">
<title>36&#45;&gt;39</title>
<path fill="none" stroke="grey" stroke-width="2" d="M871.32,-505.09C806.96,-486.83 726,-449.8 726,-379 726,-379 726,-379 726,-305 726,-263.41 709.56,-217.56 697.5,-189.51"/>
<polygon fill="grey" stroke="grey" stroke-width="2" points="700.55,-187.75 693.3,-180.03 694.15,-190.59 700.55,-187.75"/>
</g>
<!-- 36&#45;&gt;40 -->
<g id="edge64" class="edge">
<title>36&#45;&gt;40</title>
<path fill="none" stroke="grey" stroke-width="2" d="M920.27,-503.96C906.63,-494.71 890.95,-482.26 880,-468 853.91,-434.03 843,-421.84 843,-379 843,-379 843,-379 843,-305 843,-265 843,-218.65 843,-190.08"/>
<polygon fill="grey" stroke="grey" stroke-width="2" points="846.5,-190.05 843,-180.05 839.5,-190.05 846.5,-190.05"/>
</g>
<!-- 37&#45;&gt;36 -->
<g id="edge57" class="edge">
<title>37&#45;&gt;36</title>
<path fill="none" stroke="grey" stroke-width="2" d="M949,-575.7C949,-567.98 949,-558.71 949,-550.11"/>
<polygon fill="grey" stroke="grey" stroke-width="2" points="952.5,-550.1 949,-540.1 945.5,-550.1 952.5,-550.1"/>
</g>
<!-- 38&#45;&gt;30 -->
<g id="edge46" class="edge">
<title>38&#45;&gt;30</title>
<path fill="none" stroke="grey" stroke-width="2" d="M1103.73,-143.88C1085.54,-134.51 1062.81,-122.81 1043.36,-112.8"/>
<polygon fill="grey" stroke="grey" stroke-width="2" points="1044.89,-109.65 1034.4,-108.19 1041.69,-115.88 1044.89,-109.65"/>
</g>
<!-- 39&#45;&gt;30 -->
<g id="edge47" class="edge">
<title>39&#45;&gt;30</title>
<path fill="none" stroke="grey" stroke-width="2" d="M744.31,-146.05C747.25,-145.34 750.15,-144.66 753,-144 809.98,-130.79 874.61,-117.02 923.6,-106.83"/>
<polygon fill="grey" stroke="grey" stroke-width="2" points="924.42,-110.23 933.5,-104.77 922.99,-103.38 924.42,-110.23"/>
</g>
<!-- 40&#45;&gt;30 -->
<g id="edge48" class="edge">
<title>40&#45;&gt;30</title>
<path fill="none" stroke="grey" stroke-width="2" d="M881.65,-143.88C903.25,-134.31 930.35,-122.3 953.27,-112.15"/>
<polygon fill="grey" stroke="grey" stroke-width="2" points="954.75,-115.32 962.47,-108.07 951.91,-108.92 954.75,-115.32"/>
</g>
<!-- 41 -->
<g id="node42" class="node">
<title>41</title>
<path fill="none" stroke="#61d856" stroke-width="2" d="M1698.5,-108C1698.5,-108 1587.5,-108 1587.5,-108 1581.5,-108 1575.5,-102 1575.5,-96 1575.5,-96 1575.5,-84 1575.5,-84 1575.5,-78 1581.5,-72 1587.5,-72 1587.5,-72 1698.5,-72 1698.5,-72 1704.5,-72 1710.5,-78 1710.5,-84 1710.5,-84 1710.5,-96 1710.5,-96 1710.5,-102 1704.5,-108 1698.5,-108"/>
<text text-anchor="middle" x="1643" y="-87.5" font-family="sans" font-size="10.00">stellarscope_poolmodes</text>
</g>
<!-- 41&#45;&gt;0 -->
<g id="edge9" class="edge">
<title>41&#45;&gt;0</title>
<path fill="none" stroke="grey" stroke-width="2" d="M1695.32,-71.97C1733.9,-59.41 1785.48,-42.61 1820.13,-31.33"/>
<polygon fill="grey" stroke="grey" stroke-width="2" points="1821.44,-34.58 1829.87,-28.16 1819.27,-27.93 1821.44,-34.58"/>
</g>
<!-- 42 -->
<g id="node43" class="node">
<title>42</title>
<path fill="none" stroke="#56c1d8" stroke-width="2" d="M1848,-180C1848,-180 1754,-180 1754,-180 1748,-180 1742,-174 1742,-168 1742,-168 1742,-156 1742,-156 1742,-150 1748,-144 1754,-144 1754,-144 1848,-144 1848,-144 1854,-144 1860,-150 1860,-156 1860,-156 1860,-168 1860,-168 1860,-174 1854,-180 1848,-180"/>
<text text-anchor="middle" x="1801" y="-165" font-family="sans" font-size="10.00">stellarscope_resume</text>
<text text-anchor="middle" x="1801" y="-154" font-family="sans" font-size="10.00">pmode: individual</text>
</g>
<!-- 42&#45;&gt;41 -->
<g id="edge65" class="edge">
<title>42&#45;&gt;41</title>
<path fill="none" stroke="grey" stroke-width="2" d="M1762.35,-143.88C1740.75,-134.31 1713.65,-122.3 1690.73,-112.15"/>
<polygon fill="grey" stroke="grey" stroke-width="2" points="1692.09,-108.92 1681.53,-108.07 1689.25,-115.32 1692.09,-108.92"/>
</g>
<!-- 43 -->
<g id="node44" class="node">
<title>43</title>
<path fill="none" stroke="#b6d856" stroke-width="2" d="M1580,-252C1580,-252 1502,-252 1502,-252 1496,-252 1490,-246 1490,-240 1490,-240 1490,-228 1490,-228 1490,-222 1496,-216 1502,-216 1502,-216 1580,-216 1580,-216 1586,-216 1592,-222 1592,-228 1592,-228 1592,-240 1592,-240 1592,-246 1586,-252 1580,-252"/>
<text text-anchor="middle" x="1541" y="-231.5" font-family="sans" font-size="10.00">stellarscope_load</text>
</g>
<!-- 43&#45;&gt;42 -->
<g id="edge69" class="edge">
<title>43&#45;&gt;42</title>
<path fill="none" stroke="grey" stroke-width="2" d="M1592.06,-219.25C1632.07,-208.48 1688.13,-193.39 1732.11,-181.55"/>
<polygon fill="grey" stroke="grey" stroke-width="2" points="1733.13,-184.9 1741.87,-178.92 1731.31,-178.14 1733.13,-184.9"/>
</g>
<!-- 49 -->
<g id="node50" class="node">
<title>49</title>
<path fill="none" stroke="#56c1d8" stroke-width="2" d="M1396,-180C1396,-180 1302,-180 1302,-180 1296,-180 1290,-174 1290,-168 1290,-168 1290,-156 1290,-156 1290,-150 1296,-144 1302,-144 1302,-144 1396,-144 1396,-144 1402,-144 1408,-150 1408,-156 1408,-156 1408,-168 1408,-168 1408,-174 1402,-180 1396,-180"/>
<text text-anchor="middle" x="1349" y="-165" font-family="sans" font-size="10.00">stellarscope_resume</text>
<text text-anchor="middle" x="1349" y="-154" font-family="sans" font-size="10.00">pmode: pseudobulk</text>
</g>
<!-- 43&#45;&gt;49 -->
<g id="edge79" class="edge">
<title>43&#45;&gt;49</title>
<path fill="none" stroke="grey" stroke-width="2" d="M1494.03,-215.88C1467.32,-206.14 1433.68,-193.87 1405.53,-183.61"/>
<polygon fill="grey" stroke="grey" stroke-width="2" points="1406.41,-180.21 1395.82,-180.07 1404.01,-186.78 1406.41,-180.21"/>
</g>
<!-- 50 -->
<g id="node51" class="node">
<title>50</title>
<path fill="none" stroke="#56c1d8" stroke-width="2" d="M1532,-180C1532,-180 1438,-180 1438,-180 1432,-180 1426,-174 1426,-168 1426,-168 1426,-156 1426,-156 1426,-150 1432,-144 1438,-144 1438,-144 1532,-144 1532,-144 1538,-144 1544,-150 1544,-156 1544,-156 1544,-168 1544,-168 1544,-174 1538,-180 1532,-180"/>
<text text-anchor="middle" x="1485" y="-165" font-family="sans" font-size="10.00">stellarscope_resume</text>
<text text-anchor="middle" x="1485" y="-154" font-family="sans" font-size="10.00">pmode: celltype</text>
</g>
<!-- 43&#45;&gt;50 -->
<g id="edge81" class="edge">
<title>43&#45;&gt;50</title>
<path fill="none" stroke="grey" stroke-width="2" d="M1527.16,-215.7C1520.51,-207.39 1512.42,-197.28 1505.11,-188.14"/>
<polygon fill="grey" stroke="grey" stroke-width="2" points="1507.66,-185.73 1498.68,-180.1 1502.2,-190.1 1507.66,-185.73"/>
</g>
<!-- 51 -->
<g id="node52" class="node">
<title>51</title>
<path fill="none" stroke="#d8c356" stroke-width="2" d="M1712,-180C1712,-180 1574,-180 1574,-180 1568,-180 1562,-174 1562,-168 1562,-168 1562,-156 1562,-156 1562,-150 1568,-144 1574,-144 1574,-144 1712,-144 1712,-144 1718,-144 1724,-150 1724,-156 1724,-156 1724,-168 1724,-168 1724,-174 1718,-180 1712,-180"/>
<text text-anchor="middle" x="1643" y="-165" font-family="sans" font-size="10.00">stellarscope_resume_celltype</text>
<text text-anchor="middle" x="1643" y="-154" font-family="sans" font-size="10.00">lvl: l1</text>
</g>
<!-- 43&#45;&gt;51 -->
<g id="edge83" class="edge">
<title>43&#45;&gt;51</title>
<path fill="none" stroke="grey" stroke-width="2" d="M1565.95,-215.88C1579.04,-206.89 1595.26,-195.76 1609.44,-186.03"/>
<polygon fill="grey" stroke="grey" stroke-width="2" points="1611.69,-188.73 1617.95,-180.19 1607.73,-182.96 1611.69,-188.73"/>
</g>
<!-- 44&#45;&gt;43 -->
<g id="edge71" class="edge">
<title>44&#45;&gt;43</title>
<path fill="none" stroke="grey" stroke-width="2" d="M1523.69,-287.7C1526.25,-279.9 1529.33,-270.51 1532.18,-261.83"/>
<polygon fill="grey" stroke="grey" stroke-width="2" points="1535.58,-262.7 1535.38,-252.1 1528.93,-260.51 1535.58,-262.7"/>
</g>
<!-- 45 -->
<g id="node46" class="node">
<title>45</title>
<path fill="none" stroke="#568ad8" stroke-width="2" d="M1535,-396C1535,-396 1503,-396 1503,-396 1497,-396 1491,-390 1491,-384 1491,-384 1491,-372 1491,-372 1491,-366 1497,-360 1503,-360 1503,-360 1535,-360 1535,-360 1541,-360 1547,-366 1547,-372 1547,-372 1547,-384 1547,-384 1547,-390 1541,-396 1535,-396"/>
<text text-anchor="middle" x="1519" y="-375.5" font-family="sans" font-size="10.00">scrublet</text>
</g>
<!-- 45&#45;&gt;43 -->
<g id="edge72" class="edge">
<title>45&#45;&gt;43</title>
<path fill="none" stroke="grey" stroke-width="2" d="M1547.26,-362.36C1561.39,-353.38 1577.12,-340.43 1585,-324 1591.92,-309.57 1590.43,-303.05 1585,-288 1581.25,-277.6 1574.46,-267.8 1567.33,-259.52"/>
<polygon fill="grey" stroke="grey" stroke-width="2" points="1569.83,-257.06 1560.47,-252.08 1564.68,-261.81 1569.83,-257.06"/>
</g>
<!-- 45&#45;&gt;44 -->
<g id="edge74" class="edge">
<title>45&#45;&gt;44</title>
<path fill="none" stroke="grey" stroke-width="2" d="M1518.75,-359.7C1518.64,-351.98 1518.51,-342.71 1518.39,-334.11"/>
<polygon fill="grey" stroke="grey" stroke-width="2" points="1521.89,-334.05 1518.24,-324.1 1514.89,-334.15 1521.89,-334.05"/>
</g>
<!-- 46 -->
<g id="node47" class="node">
<title>46</title>
<path fill="none" stroke="#d88d56" stroke-width="2" d="M1567,-468C1567,-468 1471,-468 1471,-468 1465,-468 1459,-462 1459,-456 1459,-456 1459,-444 1459,-444 1459,-438 1465,-432 1471,-432 1471,-432 1567,-432 1567,-432 1573,-432 1579,-438 1579,-444 1579,-444 1579,-456 1579,-456 1579,-462 1573,-468 1567,-468"/>
<text text-anchor="middle" x="1519" y="-447.5" font-family="sans" font-size="10.00">seurat_to_mtx_forscr</text>
</g>
<!-- 46&#45;&gt;45 -->
<g id="edge75" class="edge">
<title>46&#45;&gt;45</title>
<path fill="none" stroke="grey" stroke-width="2" d="M1519,-431.7C1519,-423.98 1519,-414.71 1519,-406.11"/>
<polygon fill="grey" stroke="grey" stroke-width="2" points="1522.5,-406.1 1519,-396.1 1515.5,-406.1 1522.5,-406.1"/>
</g>
<!-- 47 -->
<g id="node48" class="node">
<title>47</title>
<path fill="none" stroke="#ced856" stroke-width="2" d="M1574.5,-540C1574.5,-540 1443.5,-540 1443.5,-540 1437.5,-540 1431.5,-534 1431.5,-528 1431.5,-528 1431.5,-516 1431.5,-516 1431.5,-510 1437.5,-504 1443.5,-504 1443.5,-504 1574.5,-504 1574.5,-504 1580.5,-504 1586.5,-510 1586.5,-516 1586.5,-516 1586.5,-528 1586.5,-528 1586.5,-534 1580.5,-540 1574.5,-540"/>
<text text-anchor="middle" x="1509" y="-519.5" font-family="sans" font-size="10.00">annotate_celltypes_azimuth</text>
</g>
<!-- 47&#45;&gt;42 -->
<g id="edge70" class="edge">
<title>47&#45;&gt;42</title>
<path fill="none" stroke="grey" stroke-width="2" d="M1586.58,-506.9C1654.02,-489.63 1741,-453.02 1741,-379 1741,-379 1741,-379 1741,-305 1741,-261.72 1764.94,-216.45 1782.58,-188.98"/>
<polygon fill="grey" stroke="grey" stroke-width="2" points="1785.68,-190.65 1788.28,-180.38 1779.84,-186.78 1785.68,-190.65"/>
</g>
<!-- 47&#45;&gt;46 -->
<g id="edge76" class="edge">
<title>47&#45;&gt;46</title>
<path fill="none" stroke="grey" stroke-width="2" d="M1511.47,-503.7C1512.57,-495.98 1513.9,-486.71 1515.13,-478.11"/>
<polygon fill="grey" stroke="grey" stroke-width="2" points="1518.61,-478.5 1516.56,-468.1 1511.68,-477.51 1518.61,-478.5"/>
</g>
<!-- 47&#45;&gt;49 -->
<g id="edge80" class="edge">
<title>47&#45;&gt;49</title>
<path fill="none" stroke="grey" stroke-width="2" d="M1465.68,-503.89C1419.21,-482.35 1352,-440.56 1352,-379 1352,-379 1352,-379 1352,-305 1352,-264.99 1350.79,-218.65 1349.91,-190.08"/>
<polygon fill="grey" stroke="grey" stroke-width="2" points="1353.41,-189.93 1349.59,-180.05 1346.41,-190.15 1353.41,-189.93"/>
</g>
<!-- 47&#45;&gt;50 -->
<g id="edge82" class="edge">
<title>47&#45;&gt;50</title>
<path fill="none" stroke="grey" stroke-width="2" d="M1483.45,-503.89C1471.53,-494.63 1458.21,-482.18 1450,-468 1429.74,-432.99 1431,-419.45 1431,-379 1431,-379 1431,-379 1431,-305 1431,-262.11 1452.79,-216.41 1468.69,-188.78"/>
<polygon fill="grey" stroke="grey" stroke-width="2" points="1471.72,-190.52 1473.81,-180.13 1465.7,-186.95 1471.72,-190.52"/>
</g>
<!-- 47&#45;&gt;51 -->
<g id="edge84" class="edge">
<title>47&#45;&gt;51</title>
<path fill="none" stroke="grey" stroke-width="2" d="M1542.81,-504C1582.51,-481.36 1643,-437.3 1643,-379 1643,-379 1643,-379 1643,-305 1643,-265 1643,-218.65 1643,-190.08"/>
<polygon fill="grey" stroke="grey" stroke-width="2" points="1646.5,-190.05 1643,-180.05 1639.5,-190.05 1646.5,-190.05"/>
</g>
<!-- 48&#45;&gt;47 -->
<g id="edge77" class="edge">
<title>48&#45;&gt;47</title>
<path fill="none" stroke="grey" stroke-width="2" d="M1486.42,-575.7C1489.79,-567.81 1493.87,-558.3 1497.62,-549.55"/>
<polygon fill="grey" stroke="grey" stroke-width="2" points="1500.95,-550.67 1501.67,-540.1 1494.51,-547.92 1500.95,-550.67"/>
</g>
<!-- 49&#45;&gt;41 -->
<g id="edge66" class="edge">
<title>49&#45;&gt;41</title>
<path fill="none" stroke="grey" stroke-width="2" d="M1408.33,-146.11C1411.26,-145.4 1414.16,-144.69 1417,-144 1466.24,-132.07 1521.61,-119.08 1565.23,-108.94"/>
<polygon fill="grey" stroke="grey" stroke-width="2" points="1566.25,-112.3 1575.2,-106.63 1564.66,-105.48 1566.25,-112.3"/>
</g>
<!-- 50&#45;&gt;41 -->
<g id="edge67" class="edge">
<title>50&#45;&gt;41</title>
<path fill="none" stroke="grey" stroke-width="2" d="M1523.65,-143.88C1545.25,-134.31 1572.35,-122.3 1595.27,-112.15"/>
<polygon fill="grey" stroke="grey" stroke-width="2" points="1596.75,-115.32 1604.47,-108.07 1593.91,-108.92 1596.75,-115.32"/>
</g>
<!-- 51&#45;&gt;41 -->
<g id="edge68" class="edge">
<title>51&#45;&gt;41</title>
<path fill="none" stroke="grey" stroke-width="2" d="M1643,-143.7C1643,-135.98 1643,-126.71 1643,-118.11"/>
<polygon fill="grey" stroke="grey" stroke-width="2" points="1646.5,-118.1 1643,-108.1 1639.5,-118.1 1646.5,-118.1"/>
</g>
<!-- 52 -->
<g id="node53" class="node">
<title>52</title>
<path fill="none" stroke="#61d856" stroke-width="2" d="M2128.5,-108C2128.5,-108 2017.5,-108 2017.5,-108 2011.5,-108 2005.5,-102 2005.5,-96 2005.5,-96 2005.5,-84 2005.5,-84 2005.5,-78 2011.5,-72 2017.5,-72 2017.5,-72 2128.5,-72 2128.5,-72 2134.5,-72 2140.5,-78 2140.5,-84 2140.5,-84 2140.5,-96 2140.5,-96 2140.5,-102 2134.5,-108 2128.5,-108"/>
<text text-anchor="middle" x="2073" y="-87.5" font-family="sans" font-size="10.00">stellarscope_poolmodes</text>
</g>
<!-- 52&#45;&gt;0 -->
<g id="edge10" class="edge">
<title>52&#45;&gt;0</title>
<path fill="none" stroke="grey" stroke-width="2" d="M2020.68,-71.97C1982.1,-59.41 1930.52,-42.61 1895.87,-31.33"/>
<polygon fill="grey" stroke="grey" stroke-width="2" points="1896.73,-27.93 1886.13,-28.16 1894.56,-34.58 1896.73,-27.93"/>
</g>
<!-- 53 -->
<g id="node54" class="node">
<title>53</title>
<path fill="none" stroke="#56c1d8" stroke-width="2" d="M2436,-180C2436,-180 2342,-180 2342,-180 2336,-180 2330,-174 2330,-168 2330,-168 2330,-156 2330,-156 2330,-150 2336,-144 2342,-144 2342,-144 2436,-144 2436,-144 2442,-144 2448,-150 2448,-156 2448,-156 2448,-168 2448,-168 2448,-174 2442,-180 2436,-180"/>
<text text-anchor="middle" x="2389" y="-165" font-family="sans" font-size="10.00">stellarscope_resume</text>
<text text-anchor="middle" x="2389" y="-154" font-family="sans" font-size="10.00">pmode: individual</text>
</g>
<!-- 53&#45;&gt;52 -->
<g id="edge85" class="edge">
<title>53&#45;&gt;52</title>
<path fill="none" stroke="grey" stroke-width="2" d="M2329.69,-146.05C2326.75,-145.34 2323.85,-144.66 2321,-144 2264.02,-130.79 2199.39,-117.02 2150.4,-106.83"/>
<polygon fill="grey" stroke="grey" stroke-width="2" points="2151.01,-103.38 2140.5,-104.77 2149.58,-110.23 2151.01,-103.38"/>
</g>
<!-- 54 -->
<g id="node55" class="node">
<title>54</title>
<path fill="none" stroke="#b6d856" stroke-width="2" d="M2222,-252C2222,-252 2144,-252 2144,-252 2138,-252 2132,-246 2132,-240 2132,-240 2132,-228 2132,-228 2132,-222 2138,-216 2144,-216 2144,-216 2222,-216 2222,-216 2228,-216 2234,-222 2234,-228 2234,-228 2234,-240 2234,-240 2234,-246 2228,-252 2222,-252"/>
<text text-anchor="middle" x="2183" y="-231.5" font-family="sans" font-size="10.00">stellarscope_load</text>
</g>
<!-- 54&#45;&gt;53 -->
<g id="edge89" class="edge">
<title>54&#45;&gt;53</title>
<path fill="none" stroke="grey" stroke-width="2" d="M2233.13,-215.97C2262.04,-206.14 2298.57,-193.73 2329,-183.39"/>
<polygon fill="grey" stroke="grey" stroke-width="2" points="2330.3,-186.64 2338.65,-180.11 2328.05,-180.01 2330.3,-186.64"/>
</g>
<!-- 60 -->
<g id="node61" class="node">
<title>60</title>
<path fill="none" stroke="#56c1d8" stroke-width="2" d="M1984,-180C1984,-180 1890,-180 1890,-180 1884,-180 1878,-174 1878,-168 1878,-168 1878,-156 1878,-156 1878,-150 1884,-144 1890,-144 1890,-144 1984,-144 1984,-144 1990,-144 1996,-150 1996,-156 1996,-156 1996,-168 1996,-168 1996,-174 1990,-180 1984,-180"/>
<text text-anchor="middle" x="1937" y="-165" font-family="sans" font-size="10.00">stellarscope_resume</text>
<text text-anchor="middle" x="1937" y="-154" font-family="sans" font-size="10.00">pmode: pseudobulk</text>
</g>
<!-- 54&#45;&gt;60 -->
<g id="edge99" class="edge">
<title>54&#45;&gt;60</title>
<path fill="none" stroke="grey" stroke-width="2" d="M2131.73,-218.41C2095.31,-208.05 2045.98,-194.01 2006.09,-182.66"/>
<polygon fill="grey" stroke="grey" stroke-width="2" points="2007,-179.28 1996.43,-179.91 2005.09,-186.01 2007,-179.28"/>
</g>
<!-- 61 -->
<g id="node62" class="node">
<title>61</title>
<path fill="none" stroke="#56c1d8" stroke-width="2" d="M2120,-180C2120,-180 2026,-180 2026,-180 2020,-180 2014,-174 2014,-168 2014,-168 2014,-156 2014,-156 2014,-150 2020,-144 2026,-144 2026,-144 2120,-144 2120,-144 2126,-144 2132,-150 2132,-156 2132,-156 2132,-168 2132,-168 2132,-174 2126,-180 2120,-180"/>
<text text-anchor="middle" x="2073" y="-165" font-family="sans" font-size="10.00">stellarscope_resume</text>
<text text-anchor="middle" x="2073" y="-154" font-family="sans" font-size="10.00">pmode: celltype</text>
</g>
<!-- 54&#45;&gt;61 -->
<g id="edge101" class="edge">
<title>54&#45;&gt;61</title>
<path fill="none" stroke="grey" stroke-width="2" d="M2156.09,-215.88C2141.84,-206.81 2124.15,-195.55 2108.76,-185.76"/>
<polygon fill="grey" stroke="grey" stroke-width="2" points="2110.33,-182.61 2100.01,-180.19 2106.57,-188.51 2110.33,-182.61"/>
</g>
<!-- 62 -->
<g id="node63" class="node">
<title>62</title>
<path fill="none" stroke="#d8c356" stroke-width="2" d="M2300,-180C2300,-180 2162,-180 2162,-180 2156,-180 2150,-174 2150,-168 2150,-168 2150,-156 2150,-156 2150,-150 2156,-144 2162,-144 2162,-144 2300,-144 2300,-144 2306,-144 2312,-150 2312,-156 2312,-156 2312,-168 2312,-168 2312,-174 2306,-180 2300,-180"/>
<text text-anchor="middle" x="2231" y="-165" font-family="sans" font-size="10.00">stellarscope_resume_celltype</text>
<text text-anchor="middle" x="2231" y="-154" font-family="sans" font-size="10.00">lvl: l1</text>
</g>
<!-- 54&#45;&gt;62 -->
<g id="edge103" class="edge">
<title>54&#45;&gt;62</title>
<path fill="none" stroke="grey" stroke-width="2" d="M2194.87,-215.7C2200.5,-207.47 2207.35,-197.48 2213.57,-188.42"/>
<polygon fill="grey" stroke="grey" stroke-width="2" points="2216.5,-190.33 2219.27,-180.1 2210.73,-186.37 2216.5,-190.33"/>
</g>
<!-- 55&#45;&gt;54 -->
<g id="edge91" class="edge">
<title>55&#45;&gt;54</title>
<path fill="none" stroke="grey" stroke-width="2" d="M2165.69,-287.7C2168.25,-279.9 2171.33,-270.51 2174.18,-261.83"/>
<polygon fill="grey" stroke="grey" stroke-width="2" points="2177.58,-262.7 2177.38,-252.1 2170.93,-260.51 2177.58,-262.7"/>
</g>
<!-- 56 -->
<g id="node57" class="node">
<title>56</title>
<path fill="none" stroke="#568ad8" stroke-width="2" d="M2195,-396C2195,-396 2163,-396 2163,-396 2157,-396 2151,-390 2151,-384 2151,-384 2151,-372 2151,-372 2151,-366 2157,-360 2163,-360 2163,-360 2195,-360 2195,-360 2201,-360 2207,-366 2207,-372 2207,-372 2207,-384 2207,-384 2207,-390 2201,-396 2195,-396"/>
<text text-anchor="middle" x="2179" y="-375.5" font-family="sans" font-size="10.00">scrublet</text>
</g>
<!-- 56&#45;&gt;54 -->
<g id="edge92" class="edge">
<title>56&#45;&gt;54</title>
<path fill="none" stroke="grey" stroke-width="2" d="M2200.71,-359.79C2210.76,-350.41 2221.64,-337.9 2227,-324 2232.76,-309.07 2232.43,-303.05 2227,-288 2223.25,-277.6 2216.46,-267.8 2209.33,-259.52"/>
<polygon fill="grey" stroke="grey" stroke-width="2" points="2211.83,-257.06 2202.47,-252.08 2206.68,-261.81 2211.83,-257.06"/>
</g>
<!-- 56&#45;&gt;55 -->
<g id="edge94" class="edge">
<title>56&#45;&gt;55</title>
<path fill="none" stroke="grey" stroke-width="2" d="M2174.3,-359.7C2172.19,-351.9 2169.64,-342.51 2167.28,-333.83"/>
<polygon fill="grey" stroke="grey" stroke-width="2" points="2170.64,-332.84 2164.64,-324.1 2163.88,-334.67 2170.64,-332.84"/>
</g>
<!-- 57 -->
<g id="node58" class="node">
<title>57</title>
<path fill="none" stroke="#d88d56" stroke-width="2" d="M2227,-468C2227,-468 2131,-468 2131,-468 2125,-468 2119,-462 2119,-456 2119,-456 2119,-444 2119,-444 2119,-438 2125,-432 2131,-432 2131,-432 2227,-432 2227,-432 2233,-432 2239,-438 2239,-444 2239,-444 2239,-456 2239,-456 2239,-462 2233,-468 2227,-468"/>
<text text-anchor="middle" x="2179" y="-447.5" font-family="sans" font-size="10.00">seurat_to_mtx_forscr</text>
</g>
<!-- 57&#45;&gt;56 -->
<g id="edge95" class="edge">
<title>57&#45;&gt;56</title>
<path fill="none" stroke="grey" stroke-width="2" d="M2179,-431.7C2179,-423.98 2179,-414.71 2179,-406.11"/>
<polygon fill="grey" stroke="grey" stroke-width="2" points="2182.5,-406.1 2179,-396.1 2175.5,-406.1 2182.5,-406.1"/>
</g>
<!-- 58 -->
<g id="node59" class="node">
<title>58</title>
<path fill="none" stroke="#ced856" stroke-width="2" d="M2244.5,-540C2244.5,-540 2113.5,-540 2113.5,-540 2107.5,-540 2101.5,-534 2101.5,-528 2101.5,-528 2101.5,-516 2101.5,-516 2101.5,-510 2107.5,-504 2113.5,-504 2113.5,-504 2244.5,-504 2244.5,-504 2250.5,-504 2256.5,-510 2256.5,-516 2256.5,-516 2256.5,-528 2256.5,-528 2256.5,-534 2250.5,-540 2244.5,-540"/>
<text text-anchor="middle" x="2179" y="-519.5" font-family="sans" font-size="10.00">annotate_celltypes_azimuth</text>
</g>
<!-- 58&#45;&gt;53 -->
<g id="edge90" class="edge">
<title>58&#45;&gt;53</title>
<path fill="none" stroke="grey" stroke-width="2" d="M2232.11,-503.82C2284.24,-483.22 2356,-443.22 2356,-379 2356,-379 2356,-379 2356,-305 2356,-263.97 2369.23,-217.97 2378.94,-189.74"/>
<polygon fill="grey" stroke="grey" stroke-width="2" points="2382.28,-190.78 2382.32,-180.19 2375.68,-188.45 2382.28,-190.78"/>
</g>
<!-- 58&#45;&gt;57 -->
<g id="edge96" class="edge">
<title>58&#45;&gt;57</title>
<path fill="none" stroke="grey" stroke-width="2" d="M2179,-503.7C2179,-495.98 2179,-486.71 2179,-478.11"/>
<polygon fill="grey" stroke="grey" stroke-width="2" points="2182.5,-478.1 2179,-468.1 2175.5,-478.1 2182.5,-478.1"/>
</g>
<!-- 58&#45;&gt;60 -->
<g id="edge100" class="edge">
<title>58&#45;&gt;60</title>
<path fill="none" stroke="grey" stroke-width="2" d="M2105.15,-503.92C2043.97,-484.87 1967,-447.33 1967,-379 1967,-379 1967,-379 1967,-305 1967,-264.16 1954.97,-218.11 1946.15,-189.82"/>
<polygon fill="grey" stroke="grey" stroke-width="2" points="1949.46,-188.69 1943.07,-180.24 1942.8,-190.83 1949.46,-188.69"/>
</g>
<!-- 58&#45;&gt;61 -->
<g id="edge102" class="edge">
<title>58&#45;&gt;61</title>
<path fill="none" stroke="grey" stroke-width="2" d="M2150.27,-503.96C2136.63,-494.71 2120.95,-482.26 2110,-468 2083.91,-434.03 2073,-421.84 2073,-379 2073,-379 2073,-379 2073,-305 2073,-265 2073,-218.65 2073,-190.08"/>
<polygon fill="grey" stroke="grey" stroke-width="2" points="2076.5,-190.05 2073,-180.05 2069.5,-190.05 2076.5,-190.05"/>
</g>
<!-- 58&#45;&gt;62 -->
<g id="edge104" class="edge">
<title>58&#45;&gt;62</title>
<path fill="none" stroke="grey" stroke-width="2" d="M2207.73,-503.96C2221.37,-494.71 2237.05,-482.26 2248,-468 2274.09,-434.03 2285,-421.84 2285,-379 2285,-379 2285,-379 2285,-305 2285,-262.11 2263.21,-216.41 2247.31,-188.78"/>
<polygon fill="grey" stroke="grey" stroke-width="2" points="2250.3,-186.95 2242.19,-180.13 2244.28,-190.52 2250.3,-186.95"/>
</g>
<!-- 59&#45;&gt;58 -->
<g id="edge97" class="edge">
<title>59&#45;&gt;58</title>
<path fill="none" stroke="grey" stroke-width="2" d="M2179,-575.7C2179,-567.98 2179,-558.71 2179,-550.11"/>
<polygon fill="grey" stroke="grey" stroke-width="2" points="2182.5,-550.1 2179,-540.1 2175.5,-550.1 2182.5,-550.1"/>
</g>
<!-- 60&#45;&gt;52 -->
<g id="edge86" class="edge">
<title>60&#45;&gt;52</title>
<path fill="none" stroke="grey" stroke-width="2" d="M1970.27,-143.88C1988.46,-134.51 2011.19,-122.81 2030.64,-112.8"/>
<polygon fill="grey" stroke="grey" stroke-width="2" points="2032.31,-115.88 2039.6,-108.19 2029.11,-109.65 2032.31,-115.88"/>
</g>
<!-- 61&#45;&gt;52 -->
<g id="edge87" class="edge">
<title>61&#45;&gt;52</title>
<path fill="none" stroke="grey" stroke-width="2" d="M2073,-143.7C2073,-135.98 2073,-126.71 2073,-118.11"/>
<polygon fill="grey" stroke="grey" stroke-width="2" points="2076.5,-118.1 2073,-108.1 2069.5,-118.1 2076.5,-118.1"/>
</g>
<!-- 62&#45;&gt;52 -->
<g id="edge88" class="edge">
<title>62&#45;&gt;52</title>
<path fill="none" stroke="grey" stroke-width="2" d="M2192.35,-143.88C2170.75,-134.31 2143.65,-122.3 2120.73,-112.15"/>
<polygon fill="grey" stroke="grey" stroke-width="2" points="2122.09,-108.92 2111.53,-108.07 2119.25,-115.32 2122.09,-108.92"/>
</g>
<!-- 63 -->
<g id="node64" class="node">
<title>63</title>
<path fill="none" stroke="#61d856" stroke-width="2" d="M2754.5,-108C2754.5,-108 2643.5,-108 2643.5,-108 2637.5,-108 2631.5,-102 2631.5,-96 2631.5,-96 2631.5,-84 2631.5,-84 2631.5,-78 2637.5,-72 2643.5,-72 2643.5,-72 2754.5,-72 2754.5,-72 2760.5,-72 2766.5,-78 2766.5,-84 2766.5,-84 2766.5,-96 2766.5,-96 2766.5,-102 2760.5,-108 2754.5,-108"/>
<text text-anchor="middle" x="2699" y="-87.5" font-family="sans" font-size="10.00">stellarscope_poolmodes</text>
</g>
<!-- 63&#45;&gt;0 -->
<g id="edge11" class="edge">
<title>63&#45;&gt;0</title>
<path fill="none" stroke="grey" stroke-width="2" d="M2631.24,-83.36C2462.47,-69.31 2027.47,-33.11 1896.11,-22.17"/>
<polygon fill="grey" stroke="grey" stroke-width="2" points="1896.38,-18.68 1886.12,-21.34 1895.8,-25.66 1896.38,-18.68"/>
</g>
<!-- 64 -->
<g id="node65" class="node">
<title>64</title>
<path fill="none" stroke="#56c1d8" stroke-width="2" d="M3062,-180C3062,-180 2968,-180 2968,-180 2962,-180 2956,-174 2956,-168 2956,-168 2956,-156 2956,-156 2956,-150 2962,-144 2968,-144 2968,-144 3062,-144 3062,-144 3068,-144 3074,-150 3074,-156 3074,-156 3074,-168 3074,-168 3074,-174 3068,-180 3062,-180"/>
<text text-anchor="middle" x="3015" y="-165" font-family="sans" font-size="10.00">stellarscope_resume</text>
<text text-anchor="middle" x="3015" y="-154" font-family="sans" font-size="10.00">pmode: individual</text>
</g>
<!-- 64&#45;&gt;63 -->
<g id="edge105" class="edge">
<title>64&#45;&gt;63</title>
<path fill="none" stroke="grey" stroke-width="2" d="M2955.69,-146.05C2952.75,-145.34 2949.85,-144.66 2947,-144 2890.02,-130.79 2825.39,-117.02 2776.4,-106.83"/>
<polygon fill="grey" stroke="grey" stroke-width="2" points="2777.01,-103.38 2766.5,-104.77 2775.58,-110.23 2777.01,-103.38"/>
</g>
<!-- 65 -->
<g id="node66" class="node">
<title>65</title>
<path fill="none" stroke="#b6d856" stroke-width="2" d="M2848,-252C2848,-252 2770,-252 2770,-252 2764,-252 2758,-246 2758,-240 2758,-240 2758,-228 2758,-228 2758,-222 2764,-216 2770,-216 2770,-216 2848,-216 2848,-216 2854,-216 2860,-222 2860,-228 2860,-228 2860,-240 2860,-240 2860,-246 2854,-252 2848,-252"/>
<text text-anchor="middle" x="2809" y="-231.5" font-family="sans" font-size="10.00">stellarscope_load</text>
</g>
<!-- 65&#45;&gt;64 -->
<g id="edge109" class="edge">
<title>65&#45;&gt;64</title>
<path fill="none" stroke="grey" stroke-width="2" d="M2859.13,-215.97C2888.04,-206.14 2924.57,-193.73 2955,-183.39"/>
<polygon fill="grey" stroke="grey" stroke-width="2" points="2956.3,-186.64 2964.65,-180.11 2954.05,-180.01 2956.3,-186.64"/>
</g>
<!-- 71 -->
<g id="node72" class="node">
<title>71</title>
<path fill="none" stroke="#56c1d8" stroke-width="2" d="M2610,-180C2610,-180 2516,-180 2516,-180 2510,-180 2504,-174 2504,-168 2504,-168 2504,-156 2504,-156 2504,-150 2510,-144 2516,-144 2516,-144 2610,-144 2610,-144 2616,-144 2622,-150 2622,-156 2622,-156 2622,-168 2622,-168 2622,-174 2616,-180 2610,-180"/>
<text text-anchor="middle" x="2563" y="-165" font-family="sans" font-size="10.00">stellarscope_resume</text>
<text text-anchor="middle" x="2563" y="-154" font-family="sans" font-size="10.00">pmode: pseudobulk</text>
</g>
<!-- 65&#45;&gt;71 -->
<g id="edge119" class="edge">
<title>65&#45;&gt;71</title>
<path fill="none" stroke="grey" stroke-width="2" d="M2757.73,-218.41C2721.31,-208.05 2671.98,-194.01 2632.09,-182.66"/>
<polygon fill="grey" stroke="grey" stroke-width="2" points="2633,-179.28 2622.43,-179.91 2631.09,-186.01 2633,-179.28"/>
</g>
<!-- 72 -->
<g id="node73" class="node">
<title>72</title>
<path fill="none" stroke="#56c1d8" stroke-width="2" d="M2746,-180C2746,-180 2652,-180 2652,-180 2646,-180 2640,-174 2640,-168 2640,-168 2640,-156 2640,-156 2640,-150 2646,-144 2652,-144 2652,-144 2746,-144 2746,-144 2752,-144 2758,-150 2758,-156 2758,-156 2758,-168 2758,-168 2758,-174 2752,-180 2746,-180"/>
<text text-anchor="middle" x="2699" y="-165" font-family="sans" font-size="10.00">stellarscope_resume</text>
<text text-anchor="middle" x="2699" y="-154" font-family="sans" font-size="10.00">pmode: celltype</text>
</g>
<!-- 65&#45;&gt;72 -->
<g id="edge121" class="edge">
<title>65&#45;&gt;72</title>
<path fill="none" stroke="grey" stroke-width="2" d="M2782.09,-215.88C2767.84,-206.81 2750.15,-195.55 2734.76,-185.76"/>
<polygon fill="grey" stroke="grey" stroke-width="2" points="2736.33,-182.61 2726.01,-180.19 2732.57,-188.51 2736.33,-182.61"/>
</g>
<!-- 73 -->
<g id="node74" class="node">
<title>73</title>
<path fill="none" stroke="#d8c356" stroke-width="2" d="M2926,-180C2926,-180 2788,-180 2788,-180 2782,-180 2776,-174 2776,-168 2776,-168 2776,-156 2776,-156 2776,-150 2782,-144 2788,-144 2788,-144 2926,-144 2926,-144 2932,-144 2938,-150 2938,-156 2938,-156 2938,-168 2938,-168 2938,-174 2932,-180 2926,-180"/>
<text text-anchor="middle" x="2857" y="-165" font-family="sans" font-size="10.00">stellarscope_resume_celltype</text>
<text text-anchor="middle" x="2857" y="-154" font-family="sans" font-size="10.00">lvl: l1</text>
</g>
<!-- 65&#45;&gt;73 -->
<g id="edge123" class="edge">
<title>65&#45;&gt;73</title>
<path fill="none" stroke="grey" stroke-width="2" d="M2820.87,-215.7C2826.5,-207.47 2833.35,-197.48 2839.57,-188.42"/>
<polygon fill="grey" stroke="grey" stroke-width="2" points="2842.5,-190.33 2845.27,-180.1 2836.73,-186.37 2842.5,-190.33"/>
</g>
<!-- 66&#45;&gt;65 -->
<g id="edge111" class="edge">
<title>66&#45;&gt;65</title>
<path fill="none" stroke="grey" stroke-width="2" d="M2791.69,-287.7C2794.25,-279.9 2797.33,-270.51 2800.18,-261.83"/>
<polygon fill="grey" stroke="grey" stroke-width="2" points="2803.58,-262.7 2803.38,-252.1 2796.93,-260.51 2803.58,-262.7"/>
</g>
<!-- 67 -->
<g id="node68" class="node">
<title>67</title>
<path fill="none" stroke="#568ad8" stroke-width="2" d="M2821,-396C2821,-396 2789,-396 2789,-396 2783,-396 2777,-390 2777,-384 2777,-384 2777,-372 2777,-372 2777,-366 2783,-360 2789,-360 2789,-360 2821,-360 2821,-360 2827,-360 2833,-366 2833,-372 2833,-372 2833,-384 2833,-384 2833,-390 2827,-396 2821,-396"/>
<text text-anchor="middle" x="2805" y="-375.5" font-family="sans" font-size="10.00">scrublet</text>
</g>
<!-- 67&#45;&gt;65 -->
<g id="edge112" class="edge">
<title>67&#45;&gt;65</title>
<path fill="none" stroke="grey" stroke-width="2" d="M2826.71,-359.79C2836.76,-350.41 2847.64,-337.9 2853,-324 2858.76,-309.07 2858.43,-303.05 2853,-288 2849.25,-277.6 2842.46,-267.8 2835.33,-259.52"/>
<polygon fill="grey" stroke="grey" stroke-width="2" points="2837.83,-257.06 2828.47,-252.08 2832.68,-261.81 2837.83,-257.06"/>
</g>
<!-- 67&#45;&gt;66 -->
<g id="edge114" class="edge">
<title>67&#45;&gt;66</title>
<path fill="none" stroke="grey" stroke-width="2" d="M2800.3,-359.7C2798.19,-351.9 2795.64,-342.51 2793.28,-333.83"/>
<polygon fill="grey" stroke="grey" stroke-width="2" points="2796.64,-332.84 2790.64,-324.1 2789.88,-334.67 2796.64,-332.84"/>
</g>
<!-- 68 -->
<g id="node69" class="node">
<title>68</title>
<path fill="none" stroke="#d88d56" stroke-width="2" d="M2853,-468C2853,-468 2757,-468 2757,-468 2751,-468 2745,-462 2745,-456 2745,-456 2745,-444 2745,-444 2745,-438 2751,-432 2757,-432 2757,-432 2853,-432 2853,-432 2859,-432 2865,-438 2865,-444 2865,-444 2865,-456 2865,-456 2865,-462 2859,-468 2853,-468"/>
<text text-anchor="middle" x="2805" y="-447.5" font-family="sans" font-size="10.00">seurat_to_mtx_forscr</text>
</g>
<!-- 68&#45;&gt;67 -->
<g id="edge115" class="edge">
<title>68&#45;&gt;67</title>
<path fill="none" stroke="grey" stroke-width="2" d="M2805,-431.7C2805,-423.98 2805,-414.71 2805,-406.11"/>
<polygon fill="grey" stroke="grey" stroke-width="2" points="2808.5,-406.1 2805,-396.1 2801.5,-406.1 2808.5,-406.1"/>
</g>
<!-- 69 -->
<g id="node70" class="node">
<title>69</title>
<path fill="none" stroke="#ced856" stroke-width="2" d="M2870.5,-540C2870.5,-540 2739.5,-540 2739.5,-540 2733.5,-540 2727.5,-534 2727.5,-528 2727.5,-528 2727.5,-516 2727.5,-516 2727.5,-510 2733.5,-504 2739.5,-504 2739.5,-504 2870.5,-504 2870.5,-504 2876.5,-504 2882.5,-510 2882.5,-516 2882.5,-516 2882.5,-528 2882.5,-528 2882.5,-534 2876.5,-540 2870.5,-540"/>
<text text-anchor="middle" x="2805" y="-519.5" font-family="sans" font-size="10.00">annotate_celltypes_azimuth</text>
</g>
<!-- 69&#45;&gt;64 -->
<g id="edge110" class="edge">
<title>69&#45;&gt;64</title>
<path fill="none" stroke="grey" stroke-width="2" d="M2858.11,-503.82C2910.24,-483.22 2982,-443.22 2982,-379 2982,-379 2982,-379 2982,-305 2982,-263.97 2995.23,-217.97 3004.94,-189.74"/>
<polygon fill="grey" stroke="grey" stroke-width="2" points="3008.28,-190.78 3008.32,-180.19 3001.68,-188.45 3008.28,-190.78"/>
</g>
<!-- 69&#45;&gt;68 -->
<g id="edge116" class="edge">
<title>69&#45;&gt;68</title>
<path fill="none" stroke="grey" stroke-width="2" d="M2805,-503.7C2805,-495.98 2805,-486.71 2805,-478.11"/>
<polygon fill="grey" stroke="grey" stroke-width="2" points="2808.5,-478.1 2805,-468.1 2801.5,-478.1 2808.5,-478.1"/>
</g>
<!-- 69&#45;&gt;71 -->
<g id="edge120" class="edge">
<title>69&#45;&gt;71</title>
<path fill="none" stroke="grey" stroke-width="2" d="M2731.15,-503.92C2669.97,-484.87 2593,-447.33 2593,-379 2593,-379 2593,-379 2593,-305 2593,-264.16 2580.97,-218.11 2572.15,-189.82"/>
<polygon fill="grey" stroke="grey" stroke-width="2" points="2575.46,-188.69 2569.07,-180.24 2568.8,-190.83 2575.46,-188.69"/>
</g>
<!-- 69&#45;&gt;72 -->
<g id="edge122" class="edge">
<title>69&#45;&gt;72</title>
<path fill="none" stroke="grey" stroke-width="2" d="M2776.27,-503.96C2762.63,-494.71 2746.95,-482.26 2736,-468 2709.91,-434.03 2699,-421.84 2699,-379 2699,-379 2699,-379 2699,-305 2699,-265 2699,-218.65 2699,-190.08"/>
<polygon fill="grey" stroke="grey" stroke-width="2" points="2702.5,-190.05 2699,-180.05 2695.5,-190.05 2702.5,-190.05"/>
</g>
<!-- 69&#45;&gt;73 -->
<g id="edge124" class="edge">
<title>69&#45;&gt;73</title>
<path fill="none" stroke="grey" stroke-width="2" d="M2833.73,-503.96C2847.37,-494.71 2863.05,-482.26 2874,-468 2900.09,-434.03 2911,-421.84 2911,-379 2911,-379 2911,-379 2911,-305 2911,-262.11 2889.21,-216.41 2873.31,-188.78"/>
<polygon fill="grey" stroke="grey" stroke-width="2" points="2876.3,-186.95 2868.19,-180.13 2870.28,-190.52 2876.3,-186.95"/>
</g>
<!-- 70&#45;&gt;69 -->
<g id="edge117" class="edge">
<title>70&#45;&gt;69</title>
<path fill="none" stroke="grey" stroke-width="2" d="M2805,-575.7C2805,-567.98 2805,-558.71 2805,-550.11"/>
<polygon fill="grey" stroke="grey" stroke-width="2" points="2808.5,-550.1 2805,-540.1 2801.5,-550.1 2808.5,-550.1"/>
</g>
<!-- 71&#45;&gt;63 -->
<g id="edge106" class="edge">
<title>71&#45;&gt;63</title>
<path fill="none" stroke="grey" stroke-width="2" d="M2596.27,-143.88C2614.46,-134.51 2637.19,-122.81 2656.64,-112.8"/>
<polygon fill="grey" stroke="grey" stroke-width="2" points="2658.31,-115.88 2665.6,-108.19 2655.11,-109.65 2658.31,-115.88"/>
</g>
<!-- 72&#45;&gt;63 -->
<g id="edge107" class="edge">
<title>72&#45;&gt;63</title>
<path fill="none" stroke="grey" stroke-width="2" d="M2699,-143.7C2699,-135.98 2699,-126.71 2699,-118.11"/>
<polygon fill="grey" stroke="grey" stroke-width="2" points="2702.5,-118.1 2699,-108.1 2695.5,-118.1 2702.5,-118.1"/>
</g>
<!-- 73&#45;&gt;63 -->
<g id="edge108" class="edge">
<title>73&#45;&gt;63</title>
<path fill="none" stroke="grey" stroke-width="2" d="M2818.35,-143.88C2796.75,-134.31 2769.65,-122.3 2746.73,-112.15"/>
<polygon fill="grey" stroke="grey" stroke-width="2" points="2748.09,-108.92 2737.53,-108.07 2745.25,-115.32 2748.09,-108.92"/>
</g>
<!-- 74 -->
<g id="node75" class="node">
<title>74</title>
<path fill="none" stroke="#61d856" stroke-width="2" d="M3462.5,-108C3462.5,-108 3351.5,-108 3351.5,-108 3345.5,-108 3339.5,-102 3339.5,-96 3339.5,-96 3339.5,-84 3339.5,-84 3339.5,-78 3345.5,-72 3351.5,-72 3351.5,-72 3462.5,-72 3462.5,-72 3468.5,-72 3474.5,-78 3474.5,-84 3474.5,-84 3474.5,-96 3474.5,-96 3474.5,-102 3468.5,-108 3462.5,-108"/>
<text text-anchor="middle" x="3407" y="-87.5" font-family="sans" font-size="10.00">stellarscope_poolmodes</text>
</g>
<!-- 74&#45;&gt;0 -->
<g id="edge12" class="edge">
<title>74&#45;&gt;0</title>
<path fill="none" stroke="grey" stroke-width="2" d="M3339.38,-83.97C3288.44,-80.3 3216.86,-75.4 3154,-72 2657.23,-45.16 2052.68,-25.17 1896.35,-20.2"/>
<polygon fill="grey" stroke="grey" stroke-width="2" points="1896.39,-16.7 1886.29,-19.88 1896.17,-23.7 1896.39,-16.7"/>
</g>
<!-- 75 -->
<g id="node76" class="node">
<title>75</title>
<path fill="none" stroke="#56c1d8" stroke-width="2" d="M3454,-180C3454,-180 3360,-180 3360,-180 3354,-180 3348,-174 3348,-168 3348,-168 3348,-156 3348,-156 3348,-150 3354,-144 3360,-144 3360,-144 3454,-144 3454,-144 3460,-144 3466,-150 3466,-156 3466,-156 3466,-168 3466,-168 3466,-174 3460,-180 3454,-180"/>
<text text-anchor="middle" x="3407" y="-165" font-family="sans" font-size="10.00">stellarscope_resume</text>
<text text-anchor="middle" x="3407" y="-154" font-family="sans" font-size="10.00">pmode: individual</text>
</g>
<!-- 75&#45;&gt;74 -->
<g id="edge125" class="edge">
<title>75&#45;&gt;74</title>
<path fill="none" stroke="grey" stroke-width="2" d="M3407,-143.7C3407,-135.98 3407,-126.71 3407,-118.11"/>
<polygon fill="grey" stroke="grey" stroke-width="2" points="3410.5,-118.1 3407,-108.1 3403.5,-118.1 3410.5,-118.1"/>
</g>
<!-- 76 -->
<g id="node77" class="node">
<title>76</title>
<path fill="none" stroke="#b6d856" stroke-width="2" d="M3480,-252C3480,-252 3402,-252 3402,-252 3396,-252 3390,-246 3390,-240 3390,-240 3390,-228 3390,-228 3390,-222 3396,-216 3402,-216 3402,-216 3480,-216 3480,-216 3486,-216 3492,-222 3492,-228 3492,-228 3492,-240 3492,-240 3492,-246 3486,-252 3480,-252"/>
<text text-anchor="middle" x="3441" y="-231.5" font-family="sans" font-size="10.00">stellarscope_load</text>
</g>
<!-- 76&#45;&gt;75 -->
<g id="edge129" class="edge">
<title>76&#45;&gt;75</title>
<path fill="none" stroke="grey" stroke-width="2" d="M3432.6,-215.7C3428.73,-207.73 3424.05,-198.1 3419.76,-189.26"/>
<polygon fill="grey" stroke="grey" stroke-width="2" points="3422.83,-187.57 3415.31,-180.1 3416.53,-190.63 3422.83,-187.57"/>
</g>
<!-- 82 -->
<g id="node83" class="node">
<title>82</title>
<path fill="none" stroke="#56c1d8" stroke-width="2" d="M3590,-180C3590,-180 3496,-180 3496,-180 3490,-180 3484,-174 3484,-168 3484,-168 3484,-156 3484,-156 3484,-150 3490,-144 3496,-144 3496,-144 3590,-144 3590,-144 3596,-144 3602,-150 3602,-156 3602,-156 3602,-168 3602,-168 3602,-174 3596,-180 3590,-180"/>
<text text-anchor="middle" x="3543" y="-165" font-family="sans" font-size="10.00">stellarscope_resume</text>
<text text-anchor="middle" x="3543" y="-154" font-family="sans" font-size="10.00">pmode: pseudobulk</text>
</g>
<!-- 76&#45;&gt;82 -->
<g id="edge139" class="edge">
<title>76&#45;&gt;82</title>
<path fill="none" stroke="grey" stroke-width="2" d="M3465.95,-215.88C3479.04,-206.89 3495.26,-195.76 3509.44,-186.03"/>
<polygon fill="grey" stroke="grey" stroke-width="2" points="3511.69,-188.73 3517.95,-180.19 3507.73,-182.96 3511.69,-188.73"/>
</g>
<!-- 83 -->
<g id="node84" class="node">
<title>83</title>
<path fill="none" stroke="#56c1d8" stroke-width="2" d="M3726,-180C3726,-180 3632,-180 3632,-180 3626,-180 3620,-174 3620,-168 3620,-168 3620,-156 3620,-156 3620,-150 3626,-144 3632,-144 3632,-144 3726,-144 3726,-144 3732,-144 3738,-150 3738,-156 3738,-156 3738,-168 3738,-168 3738,-174 3732,-180 3726,-180"/>
<text text-anchor="middle" x="3679" y="-165" font-family="sans" font-size="10.00">stellarscope_resume</text>
<text text-anchor="middle" x="3679" y="-154" font-family="sans" font-size="10.00">pmode: celltype</text>
</g>
<!-- 76&#45;&gt;83 -->
<g id="edge141" class="edge">
<title>76&#45;&gt;83</title>
<path fill="none" stroke="grey" stroke-width="2" d="M3492.06,-217.98C3526.79,-207.77 3573.13,-194.14 3610.98,-183"/>
<polygon fill="grey" stroke="grey" stroke-width="2" points="3612.31,-186.26 3620.92,-180.08 3610.33,-179.55 3612.31,-186.26"/>
</g>
<!-- 84 -->
<g id="node85" class="node">
<title>84</title>
<path fill="none" stroke="#d8c356" stroke-width="2" d="M3318,-180C3318,-180 3180,-180 3180,-180 3174,-180 3168,-174 3168,-168 3168,-168 3168,-156 3168,-156 3168,-150 3174,-144 3180,-144 3180,-144 3318,-144 3318,-144 3324,-144 3330,-150 3330,-156 3330,-156 3330,-168 3330,-168 3330,-174 3324,-180 3318,-180"/>
<text text-anchor="middle" x="3249" y="-165" font-family="sans" font-size="10.00">stellarscope_resume_celltype</text>
<text text-anchor="middle" x="3249" y="-154" font-family="sans" font-size="10.00">lvl: l1</text>
</g>
<!-- 76&#45;&gt;84 -->
<g id="edge143" class="edge">
<title>76&#45;&gt;84</title>
<path fill="none" stroke="grey" stroke-width="2" d="M3394.03,-215.88C3367.32,-206.14 3333.68,-193.87 3305.53,-183.61"/>
<polygon fill="grey" stroke="grey" stroke-width="2" points="3306.41,-180.21 3295.82,-180.07 3304.01,-186.78 3306.41,-180.21"/>
</g>
<!-- 77&#45;&gt;76 -->
<g id="edge131" class="edge">
<title>77&#45;&gt;76</title>
<path fill="none" stroke="grey" stroke-width="2" d="M3423.69,-287.7C3426.25,-279.9 3429.33,-270.51 3432.18,-261.83"/>
<polygon fill="grey" stroke="grey" stroke-width="2" points="3435.58,-262.7 3435.38,-252.1 3428.93,-260.51 3435.58,-262.7"/>
</g>
<!-- 78 -->
<g id="node79" class="node">
<title>78</title>
<path fill="none" stroke="#568ad8" stroke-width="2" d="M3435,-396C3435,-396 3403,-396 3403,-396 3397,-396 3391,-390 3391,-384 3391,-384 3391,-372 3391,-372 3391,-366 3397,-360 3403,-360 3403,-360 3435,-360 3435,-360 3441,-360 3447,-366 3447,-372 3447,-372 3447,-384 3447,-384 3447,-390 3441,-396 3435,-396"/>
<text text-anchor="middle" x="3419" y="-375.5" font-family="sans" font-size="10.00">scrublet</text>
</g>
<!-- 78&#45;&gt;76 -->
<g id="edge132" class="edge">
<title>78&#45;&gt;76</title>
<path fill="none" stroke="grey" stroke-width="2" d="M3447.33,-362.68C3461.76,-353.71 3477.92,-340.69 3486,-324 3492.97,-309.6 3491.52,-303.02 3486,-288 3482.22,-277.7 3475.44,-268.02 3468.28,-259.84"/>
<polygon fill="grey" stroke="grey" stroke-width="2" points="3470.77,-257.38 3461.38,-252.47 3465.66,-262.16 3470.77,-257.38"/>
</g>
<!-- 78&#45;&gt;77 -->
<g id="edge134" class="edge">
<title>78&#45;&gt;77</title>
<path fill="none" stroke="grey" stroke-width="2" d="M3418.75,-359.7C3418.64,-351.98 3418.51,-342.71 3418.39,-334.11"/>
<polygon fill="grey" stroke="grey" stroke-width="2" points="3421.89,-334.05 3418.24,-324.1 3414.89,-334.15 3421.89,-334.05"/>
</g>
<!-- 79 -->
<g id="node80" class="node">
<title>79</title>
<path fill="none" stroke="#d88d56" stroke-width="2" d="M3467,-468C3467,-468 3371,-468 3371,-468 3365,-468 3359,-462 3359,-456 3359,-456 3359,-444 3359,-444 3359,-438 3365,-432 3371,-432 3371,-432 3467,-432 3467,-432 3473,-432 3479,-438 3479,-444 3479,-444 3479,-456 3479,-456 3479,-462 3473,-468 3467,-468"/>
<text text-anchor="middle" x="3419" y="-447.5" font-family="sans" font-size="10.00">seurat_to_mtx_forscr</text>
</g>
<!-- 79&#45;&gt;78 -->
<g id="edge135" class="edge">
<title>79&#45;&gt;78</title>
<path fill="none" stroke="grey" stroke-width="2" d="M3419,-431.7C3419,-423.98 3419,-414.71 3419,-406.11"/>
<polygon fill="grey" stroke="grey" stroke-width="2" points="3422.5,-406.1 3419,-396.1 3415.5,-406.1 3422.5,-406.1"/>
</g>
<!-- 80 -->
<g id="node81" class="node">
<title>80</title>
<path fill="none" stroke="#ced856" stroke-width="2" d="M3474.5,-540C3474.5,-540 3343.5,-540 3343.5,-540 3337.5,-540 3331.5,-534 3331.5,-528 3331.5,-528 3331.5,-516 3331.5,-516 3331.5,-510 3337.5,-504 3343.5,-504 3343.5,-504 3474.5,-504 3474.5,-504 3480.5,-504 3486.5,-510 3486.5,-516 3486.5,-516 3486.5,-528 3486.5,-528 3486.5,-534 3480.5,-540 3474.5,-540"/>
<text text-anchor="middle" x="3409" y="-519.5" font-family="sans" font-size="10.00">annotate_celltypes_azimuth</text>
</g>
<!-- 80&#45;&gt;75 -->
<g id="edge130" class="edge">
<title>80&#45;&gt;75</title>
<path fill="none" stroke="grey" stroke-width="2" d="M3383.45,-503.89C3371.53,-494.63 3358.21,-482.18 3350,-468 3329.74,-432.99 3331,-419.45 3331,-379 3331,-379 3331,-379 3331,-305 3331,-259.64 3361.52,-214.75 3383.88,-187.95"/>
<polygon fill="grey" stroke="grey" stroke-width="2" points="3386.64,-190.09 3390.51,-180.23 3381.34,-185.53 3386.64,-190.09"/>
</g>
<!-- 80&#45;&gt;79 -->
<g id="edge136" class="edge">
<title>80&#45;&gt;79</title>
<path fill="none" stroke="grey" stroke-width="2" d="M3411.47,-503.7C3412.57,-495.98 3413.9,-486.71 3415.13,-478.11"/>
<polygon fill="grey" stroke="grey" stroke-width="2" points="3418.61,-478.5 3416.56,-468.1 3411.68,-477.51 3418.61,-478.5"/>
</g>
<!-- 80&#45;&gt;82 -->
<g id="edge140" class="edge">
<title>80&#45;&gt;82</title>
<path fill="none" stroke="grey" stroke-width="2" d="M3442.81,-504C3482.51,-481.36 3543,-437.3 3543,-379 3543,-379 3543,-379 3543,-305 3543,-265 3543,-218.65 3543,-190.08"/>
<polygon fill="grey" stroke="grey" stroke-width="2" points="3546.5,-190.05 3543,-180.05 3539.5,-190.05 3546.5,-190.05"/>
</g>
<!-- 80&#45;&gt;83 -->
<g id="edge142" class="edge">
<title>80&#45;&gt;83</title>
<path fill="none" stroke="grey" stroke-width="2" d="M3486.61,-504.69C3550.28,-486.23 3630,-449.12 3630,-379 3630,-379 3630,-379 3630,-305 3630,-262.78 3649.6,-217.16 3664.01,-189.33"/>
<polygon fill="grey" stroke="grey" stroke-width="2" points="3667.23,-190.74 3668.85,-180.27 3661.05,-187.44 3667.23,-190.74"/>
</g>
<!-- 80&#45;&gt;84 -->
<g id="edge144" class="edge">
<title>80&#45;&gt;84</title>
<path fill="none" stroke="grey" stroke-width="2" d="M3365.68,-503.89C3319.21,-482.35 3252,-440.56 3252,-379 3252,-379 3252,-379 3252,-305 3252,-264.99 3250.79,-218.65 3249.91,-190.08"/>
<polygon fill="grey" stroke="grey" stroke-width="2" points="3253.41,-189.93 3249.59,-180.05 3246.41,-190.15 3253.41,-189.93"/>
</g>
<!-- 81&#45;&gt;80 -->
<g id="edge137" class="edge">
<title>81&#45;&gt;80</title>
<path fill="none" stroke="grey" stroke-width="2" d="M3385.66,-575.7C3389.19,-567.73 3393.46,-558.1 3397.37,-549.26"/>
<polygon fill="grey" stroke="grey" stroke-width="2" points="3400.58,-550.67 3401.43,-540.1 3394.18,-547.83 3400.58,-550.67"/>
</g>
<!-- 82&#45;&gt;74 -->
<g id="edge126" class="edge">
<title>82&#45;&gt;74</title>
<path fill="none" stroke="grey" stroke-width="2" d="M3509.73,-143.88C3491.54,-134.51 3468.81,-122.81 3449.36,-112.8"/>
<polygon fill="grey" stroke="grey" stroke-width="2" points="3450.89,-109.65 3440.4,-108.19 3447.69,-115.88 3450.89,-109.65"/>
</g>
<!-- 83&#45;&gt;74 -->
<g id="edge127" class="edge">
<title>83&#45;&gt;74</title>
<path fill="none" stroke="grey" stroke-width="2" d="M3619.98,-145.81C3579.83,-135.48 3526.33,-121.71 3482.99,-110.56"/>
<polygon fill="grey" stroke="grey" stroke-width="2" points="3483.62,-107.1 3473.06,-108 3481.88,-113.88 3483.62,-107.1"/>
</g>
<!-- 84&#45;&gt;74 -->
<g id="edge128" class="edge">
<title>84&#45;&gt;74</title>
<path fill="none" stroke="grey" stroke-width="2" d="M3287.65,-143.88C3309.25,-134.31 3336.35,-122.3 3359.27,-112.15"/>
<polygon fill="grey" stroke="grey" stroke-width="2" points="3360.75,-115.32 3368.47,-108.07 3357.91,-108.92 3360.75,-115.32"/>
</g>
</g>
</svg>
