<?xml version="1.0" encoding="UTF-8" standalone="no"?>
<!DOCTYPE svg PUBLIC "-//W3C//DTD SVG 1.1//EN"
 "http://www.w3.org/Graphics/SVG/1.1/DTD/svg11.dtd">
<!-- Generated by graphviz version 2.43.0 (0)
 -->
<!-- Title: snakemake_dag Pages: 1 -->
<svg width="1359pt" height="2578pt"
 viewBox="0.00 0.00 1359.00 2578.00" xmlns="http://www.w3.org/2000/svg" xmlns:xlink="http://www.w3.org/1999/xlink">
<g id="graph0" class="graph" transform="scale(1 1) rotate(0) translate(4 2574)">
<title>snakemake_dag</title>
<polygon fill="white" stroke="transparent" points="-4,4 -4,-2574 1355,-2574 1355,4 -4,4"/>
<!-- 0 -->
<g id="node1" class="node">
<title>0</title>
<text text-anchor="start" x="247.5" y="-291.6" font-family="sans" font-weight="bold" font-size="18.00">rna_gex</text>
<text text-anchor="start" x="7.5" y="-267.8" font-family="sans" font-size="10.00"> </text>
<text text-anchor="start" x="11.5" y="-267.8" font-family="sans" font-weight="bold" font-size="14.00">↪ input</text>
<text text-anchor="start" x="69.5" y="-267.8" font-family="sans" font-size="10.00"> </text>
<text text-anchor="start" x="7.5" y="-248" font-family="monospace" font-size="10.00">results/rna_gex_PRJNA587486/align_multi_starsolo/DZ1_GSM4148372/Aligned.sortedByCoord.out.bam</text>
<text text-anchor="start" x="7.5" y="-230" font-family="monospace" font-size="10.00">results/rna_gex_PRJNA587486/align_multi_starsolo/DZ2_GSM4148373/Aligned.sortedByCoord.out.bam</text>
<text text-anchor="start" x="7.5" y="-212" font-family="monospace" font-size="10.00">results/rna_gex_PRJNA587486/align_multi_starsolo/GC1_GSM4148370/Aligned.sortedByCoord.out.bam</text>
<text text-anchor="start" x="7.5" y="-194" font-family="monospace" font-size="10.00">results/rna_gex_PRJNA587486/align_multi_starsolo/GC2_GSM4148371/Aligned.sortedByCoord.out.bam</text>
<text text-anchor="start" x="7.5" y="-176" font-family="monospace" font-size="10.00">results/rna_gex_PRJNA587486/align_multi_starsolo/LZ1_GSM4148374/Aligned.sortedByCoord.out.bam</text>
<text text-anchor="start" x="7.5" y="-158" font-family="monospace" font-size="10.00">results/rna_gex_PRJNA587486/align_multi_starsolo/LZ2_GSM4148375/Aligned.sortedByCoord.out.bam</text>
<text text-anchor="start" x="7.5" y="-140" font-family="monospace" font-size="10.00">results/rna_gex_PRJNA587486/stellarscope/DZ1_GSM4148372/poolmodes.txt</text>
<text text-anchor="start" x="7.5" y="-122" font-family="monospace" font-size="10.00">results/rna_gex_PRJNA587486/stellarscope/DZ2_GSM4148373/poolmodes.txt</text>
<text text-anchor="start" x="7.5" y="-104" font-family="monospace" font-size="10.00">results/rna_gex_PRJNA587486/stellarscope/GC1_GSM4148370/poolmodes.txt</text>
<text text-anchor="start" x="7.5" y="-86" font-family="monospace" font-size="10.00">results/rna_gex_PRJNA587486/stellarscope/GC2_GSM4148371/poolmodes.txt</text>
<text text-anchor="start" x="7.5" y="-68" font-family="monospace" font-size="10.00">results/rna_gex_PRJNA587486/stellarscope/LZ1_GSM4148374/poolmodes.txt</text>
<text text-anchor="start" x="7.5" y="-50" font-family="monospace" font-size="10.00">results/rna_gex_PRJNA587486/stellarscope/LZ2_GSM4148375/poolmodes.txt</text>
<text text-anchor="start" x="488.5" y="-29.8" font-family="sans" font-size="10.00"> </text>
<text text-anchor="start" x="492.5" y="-29.8" font-family="sans" font-weight="bold" font-size="14.00">output →</text>
<text text-anchor="start" x="562.5" y="-29.8" font-family="sans" font-size="10.00"> </text>
<text text-anchor="start" x="7.5" y="-10" font-family="monospace" font-size="10.00">results/rna_gex/completed.txt</text>
<polygon fill="#57d9b7" stroke="#57d9b7" points="1.5,-282 1.5,-282 573.5,-282 573.5,-282 1.5,-282"/>
<polygon fill="#57d9b7" stroke="#57d9b7" points="1.5,-44 1.5,-44 573.5,-44 573.5,-44 1.5,-44"/>
<polygon fill="none" stroke="#57d9b7" stroke-width="2" points="1,-1 1,-311 572,-311 572,-1 1,-1"/>
</g>
<!-- 1 -->
<g id="node2" class="node">
<title>1</title>
<text text-anchor="start" x="324" y="-2253.6" font-family="sans" font-weight="bold" font-size="18.00">align_multi_starsolo</text>
<text text-anchor="start" x="180.5" y="-2229.8" font-family="sans" font-size="10.00"> </text>
<text text-anchor="start" x="184.5" y="-2229.8" font-family="sans" font-weight="bold" font-size="14.00">↪ input</text>
<text text-anchor="start" x="242.5" y="-2229.8" font-family="sans" font-size="10.00"> </text>
<text text-anchor="start" x="180.5" y="-2210" font-family="monospace" font-size="10.00">&lt;input function&gt;</text>
<text text-anchor="start" x="589.5" y="-2189.8" font-family="sans" font-size="10.00"> </text>
<text text-anchor="start" x="593.5" y="-2189.8" font-family="sans" font-weight="bold" font-size="14.00">output →</text>
<text text-anchor="start" x="663.5" y="-2189.8" font-family="sans" font-size="10.00"> </text>
<text text-anchor="start" x="180.5" y="-2170" font-family="monospace" font-size="10.00">results/{dataset}/align_multi_starsolo/{samp}/Aligned.sortedByCoord.out.bam</text>
<text text-anchor="start" x="180.5" y="-2152" font-family="monospace" font-size="10.00">results/{dataset}/align_multi_starsolo/{samp}/Solo.out/Gene/filtered/barcodes.tsv</text>
<text text-anchor="start" x="180.5" y="-2134" font-family="monospace" font-size="10.00">results/{dataset}/align_multi_starsolo/{samp}/Solo.out/Gene/filtered/features.tsv</text>
<text text-anchor="start" x="180.5" y="-2116" font-family="monospace" font-size="10.00">results/{dataset}/align_multi_starsolo/{samp}/Solo.out/Gene/filtered/matrix.mtx</text>
<polygon fill="#80d957" stroke="#80d957" points="174.5,-2244 174.5,-2244 674.5,-2244 674.5,-2244 174.5,-2244"/>
<polygon fill="#80d957" stroke="#80d957" points="174.5,-2204 174.5,-2204 674.5,-2204 674.5,-2204 174.5,-2204"/>
<polygon fill="none" stroke="#80d957" stroke-width="2" points="174,-2107 174,-2273 673,-2273 673,-2107 174,-2107"/>
</g>
<!-- 1&#45;&gt;0 -->
<g id="edge2" class="edge">
<title>1&#45;&gt;0</title>
<path fill="none" stroke="grey" stroke-width="2" d="M303.76,-2105.92C215.78,-2034.16 111.5,-1921.74 111.5,-1792 111.5,-1792 111.5,-1792 111.5,-707 111.5,-637.65 112.55,-619.25 129.5,-552 149.1,-474.27 180.33,-391.39 209.79,-321.72"/>
<polygon fill="grey" stroke="grey" stroke-width="2" points="213.06,-322.99 213.75,-312.42 206.62,-320.25 213.06,-322.99"/>
</g>
<!-- 7 -->
<g id="node8" class="node">
<title>7</title>
<text text-anchor="start" x="620.5" y="-1233.6" font-family="sans" font-weight="bold" font-size="18.00">stellarscope_cellsort</text>
<text text-anchor="start" x="497.5" y="-1209.8" font-family="sans" font-size="10.00"> </text>
<text text-anchor="start" x="501.5" y="-1209.8" font-family="sans" font-weight="bold" font-size="14.00">↪ input</text>
<text text-anchor="start" x="559.5" y="-1209.8" font-family="sans" font-size="10.00"> </text>
<text text-anchor="start" x="497.5" y="-1190" font-family="monospace" font-size="10.00">results/{dataset}/align_multi_starsolo/{samp}/Aligned.sortedByCoord.out.bam</text>
<text text-anchor="start" x="497.5" y="-1172" font-family="monospace" font-size="10.00">results/{dataset}/canonicalQC/{samp}/scrublet/SCR.barcodes.pass.tsv</text>
<text text-anchor="start" x="870.5" y="-1151.8" font-family="sans" font-size="10.00"> </text>
<text text-anchor="start" x="874.5" y="-1151.8" font-family="sans" font-weight="bold" font-size="14.00">output →</text>
<text text-anchor="start" x="944.5" y="-1151.8" font-family="sans" font-size="10.00"> </text>
<text text-anchor="start" x="497.5" y="-1132" font-family="monospace" font-size="10.00">results/{dataset}/stellarscope/{samp}/Aligned.sortedByCB.bam</text>
<polygon fill="#57d99b" stroke="#57d99b" points="491.5,-1224 491.5,-1224 955.5,-1224 955.5,-1224 491.5,-1224"/>
<polygon fill="#57d99b" stroke="#57d99b" points="491.5,-1166 491.5,-1166 955.5,-1166 955.5,-1166 491.5,-1166"/>
<polygon fill="none" stroke="#57d99b" stroke-width="2" points="491,-1123 491,-1253 954,-1253 954,-1123 491,-1123"/>
</g>
<!-- 1&#45;&gt;7 -->
<g id="edge12" class="edge">
<title>1&#45;&gt;7</title>
<path fill="none" stroke="grey" stroke-width="2" d="M423.5,-2105.74C423.5,-2025.41 423.5,-1900.38 423.5,-1792 423.5,-1792 423.5,-1792 423.5,-1604 423.5,-1461.39 399.34,-1400.48 489.5,-1290 498.56,-1278.9 509.07,-1268.99 520.53,-1260.15"/>
<polygon fill="grey" stroke="grey" stroke-width="2" points="522.63,-1262.94 528.6,-1254.19 518.48,-1257.31 522.63,-1262.94"/>
</g>
<!-- 11 -->
<g id="node12" class="node">
<title>11</title>
<text text-anchor="start" x="674.5" y="-2049.6" font-family="sans" font-weight="bold" font-size="18.00">cell_qc</text>
<text text-anchor="start" x="464.5" y="-2025.8" font-family="sans" font-size="10.00"> </text>
<text text-anchor="start" x="468.5" y="-2025.8" font-family="sans" font-weight="bold" font-size="14.00">↪ input</text>
<text text-anchor="start" x="526.5" y="-2025.8" font-family="sans" font-size="10.00"> </text>
<text text-anchor="start" x="464.5" y="-2006" font-family="monospace" font-size="10.00">results/{dataset}/align_multi_starsolo/{samp}/Solo.out/Gene/filtered/barcodes.tsv</text>
<text text-anchor="start" x="464.5" y="-1988" font-family="monospace" font-size="10.00">results/{dataset}/align_multi_starsolo/{samp}/Solo.out/Gene/filtered/features.tsv</text>
<text text-anchor="start" x="464.5" y="-1970" font-family="monospace" font-size="10.00">results/{dataset}/align_multi_starsolo/{samp}/Solo.out/Gene/filtered/matrix.mtx</text>
<text text-anchor="start" x="873.5" y="-1949.8" font-family="sans" font-size="10.00"> </text>
<text text-anchor="start" x="877.5" y="-1949.8" font-family="sans" font-weight="bold" font-size="14.00">output →</text>
<text text-anchor="start" x="947.5" y="-1949.8" font-family="sans" font-size="10.00"> </text>
<text text-anchor="start" x="464.5" y="-1930" font-family="monospace" font-size="10.00">results/{dataset}/canonicalQC/{samp}/barcodes.pass.tsv</text>
<text text-anchor="start" x="464.5" y="-1912" font-family="monospace" font-size="10.00">results/{dataset}/canonicalQC/{samp}/tx_seurat.cell_qc.rds</text>
<polygon fill="#9bd957" stroke="#9bd957" points="458.5,-2040 458.5,-2040 958.5,-2040 958.5,-2040 458.5,-2040"/>
<polygon fill="#9bd957" stroke="#9bd957" points="458.5,-1964 458.5,-1964 958.5,-1964 958.5,-1964 458.5,-1964"/>
<polygon fill="none" stroke="#9bd957" stroke-width="2" points="458,-1903 458,-2069 957,-2069 957,-1903 458,-1903"/>
</g>
<!-- 1&#45;&gt;11 -->
<g id="edge16" class="edge">
<title>1&#45;&gt;11</title>
<path fill="none" stroke="grey" stroke-width="2" d="M540.24,-2105.96C554.18,-2096.05 568.46,-2085.9 582.51,-2075.9"/>
<polygon fill="grey" stroke="grey" stroke-width="2" points="584.63,-2078.69 590.75,-2070.04 580.57,-2072.98 584.63,-2078.69"/>
</g>
<!-- 2 -->
<g id="node3" class="node">
<title>2</title>
<text text-anchor="start" x="363.5" y="-2421.6" font-family="sans" font-weight="bold" font-size="18.00">sra_to_fastq</text>
<text text-anchor="start" x="228.5" y="-2397.8" font-family="sans" font-size="10.00"> </text>
<text text-anchor="start" x="232.5" y="-2397.8" font-family="sans" font-weight="bold" font-size="14.00">↪ input</text>
<text text-anchor="start" x="290.5" y="-2397.8" font-family="sans" font-size="10.00"> </text>
<text text-anchor="start" x="228.5" y="-2378" font-family="monospace" font-size="10.00">results/{dataset}/sra/{samp}/{sra_run}.sra</text>
<text text-anchor="start" x="541.5" y="-2357.8" font-family="sans" font-size="10.00"> </text>
<text text-anchor="start" x="545.5" y="-2357.8" font-family="sans" font-weight="bold" font-size="14.00">output →</text>
<text text-anchor="start" x="615.5" y="-2357.8" font-family="sans" font-size="10.00"> </text>
<text text-anchor="start" x="228.5" y="-2338" font-family="monospace" font-size="10.00">results/{dataset}/fastq/{samp}/{sra_run,SRR[0&#45;9]{6,9}}_1.fastq.gz</text>
<text text-anchor="start" x="228.5" y="-2320" font-family="monospace" font-size="10.00">results/{dataset}/fastq/{samp}/{sra_run,SRR[0&#45;9]{6,9}}_2.fastq.gz</text>
<polygon fill="#d9a957" stroke="#d9a957" points="222.5,-2412 222.5,-2412 626.5,-2412 626.5,-2412 222.5,-2412"/>
<polygon fill="#d9a957" stroke="#d9a957" points="222.5,-2372 222.5,-2372 626.5,-2372 626.5,-2372 222.5,-2372"/>
<polygon fill="none" stroke="#d9a957" stroke-width="2" points="222,-2311 222,-2441 625,-2441 625,-2311 222,-2311"/>
</g>
<!-- 2&#45;&gt;1 -->
<g id="edge3" class="edge">
<title>2&#45;&gt;1</title>
<path fill="none" stroke="grey" stroke-width="2" d="M423.5,-2309.87C423.5,-2301.55 423.5,-2292.9 423.5,-2284.25"/>
<polygon fill="grey" stroke="grey" stroke-width="2" points="427,-2284.09 423.5,-2274.09 420,-2284.09 427,-2284.09"/>
</g>
<!-- 3 -->
<g id="node4" class="node">
<title>3</title>
<text text-anchor="start" x="361" y="-2549.6" font-family="sans" font-weight="bold" font-size="18.00">prefetch_sra</text>
<text text-anchor="start" x="255.5" y="-2528" font-family="sans" font-size="10.00"> &#160;</text>
<text text-anchor="start" x="514.5" y="-2507.8" font-family="sans" font-size="10.00"> </text>
<text text-anchor="start" x="518.5" y="-2507.8" font-family="sans" font-weight="bold" font-size="14.00">output →</text>
<text text-anchor="start" x="588.5" y="-2507.8" font-family="sans" font-size="10.00"> </text>
<text text-anchor="start" x="255.5" y="-2488" font-family="monospace" font-size="10.00">results/{dataset}/sra/{samp}/{sra_run,SRR[0&#45;9]{6,9}}.sra</text>
<polygon fill="#d97257" stroke="#d97257" points="249.5,-2540 249.5,-2540 599.5,-2540 599.5,-2540 249.5,-2540"/>
<polygon fill="#d97257" stroke="#d97257" points="249.5,-2522 249.5,-2522 599.5,-2522 599.5,-2522 249.5,-2522"/>
<polygon fill="none" stroke="#d97257" stroke-width="2" points="249,-2479 249,-2569 598,-2569 598,-2479 249,-2479"/>
</g>
<!-- 3&#45;&gt;2 -->
<g id="edge4" class="edge">
<title>3&#45;&gt;2</title>
<path fill="none" stroke="grey" stroke-width="2" d="M423.5,-2477.61C423.5,-2469.54 423.5,-2460.95 423.5,-2452.32"/>
<polygon fill="grey" stroke="grey" stroke-width="2" points="427,-2452.2 423.5,-2442.2 420,-2452.2 427,-2452.2"/>
</g>
<!-- 4 -->
<g id="node5" class="node">
<title>4</title>
<text text-anchor="start" x="342" y="-495.6" font-family="sans" font-weight="bold" font-size="18.00">stellarscope_poolmodes</text>
<text text-anchor="start" x="272.5" y="-471.8" font-family="sans" font-size="10.00"> </text>
<text text-anchor="start" x="276.5" y="-471.8" font-family="sans" font-weight="bold" font-size="14.00">↪ input</text>
<text text-anchor="start" x="334.5" y="-471.8" font-family="sans" font-size="10.00"> </text>
<text text-anchor="start" x="272.5" y="-452" font-family="monospace" font-size="10.00">results/{dataset}/stellarscope/{samp}/celltype&#45;TE_counts.mtx</text>
<text text-anchor="start" x="272.5" y="-434" font-family="monospace" font-size="10.00">results/{dataset}/stellarscope/{samp}/celltype.l1&#45;TE_counts.mtx</text>
<text text-anchor="start" x="272.5" y="-416" font-family="monospace" font-size="10.00">results/{dataset}/stellarscope/{samp}/individual&#45;TE_counts.mtx</text>
<text text-anchor="start" x="272.5" y="-398" font-family="monospace" font-size="10.00">results/{dataset}/stellarscope/{samp}/pseudobulk&#45;TE_counts.mtx</text>
<text text-anchor="start" x="573.5" y="-377.8" font-family="sans" font-size="10.00"> </text>
<text text-anchor="start" x="577.5" y="-377.8" font-family="sans" font-weight="bold" font-size="14.00">output →</text>
<text text-anchor="start" x="647.5" y="-377.8" font-family="sans" font-size="10.00"> </text>
<text text-anchor="start" x="272.5" y="-358" font-family="monospace" font-size="10.00">results/{dataset}/stellarscope/{samp}/poolmodes.txt</text>
<polygon fill="#57d964" stroke="#57d964" points="266.5,-486 266.5,-486 658.5,-486 658.5,-486 266.5,-486"/>
<polygon fill="#57d964" stroke="#57d964" points="266.5,-392 266.5,-392 658.5,-392 658.5,-392 266.5,-392"/>
<polygon fill="none" stroke="#57d964" stroke-width="2" points="266,-349 266,-515 657,-515 657,-349 266,-349"/>
</g>
<!-- 4&#45;&gt;0 -->
<g id="edge1" class="edge">
<title>4&#45;&gt;0</title>
<path fill="none" stroke="grey" stroke-width="2" d="M408.28,-347.67C402.7,-338.94 396.9,-329.85 390.99,-320.6"/>
<polygon fill="grey" stroke="grey" stroke-width="2" points="393.86,-318.6 385.53,-312.06 387.96,-322.37 393.86,-318.6"/>
</g>
<!-- 5 -->
<g id="node6" class="node">
<title>5</title>
<text text-anchor="start" x="359" y="-843.6" font-family="sans" font-weight="bold" font-size="18.00">stellarscope_resume</text>
<text text-anchor="start" x="146.5" y="-819.8" font-family="sans" font-size="10.00"> </text>
<text text-anchor="start" x="150.5" y="-819.8" font-family="sans" font-weight="bold" font-size="14.00">↪ input</text>
<text text-anchor="start" x="208.5" y="-819.8" font-family="sans" font-size="10.00"> </text>
<text text-anchor="start" x="146.5" y="-800" font-family="monospace" font-size="10.00">results/{dataset}/canonicalQC/{samp}/tonsilref.celltype.l2.tsv</text>
<text text-anchor="start" x="146.5" y="-782" font-family="monospace" font-size="10.00">results/{dataset}/stellarscope/{samp}/stload&#45;checkpoint.dedup_umi.pickle</text>
<text text-anchor="start" x="699.5" y="-761.8" font-family="sans" font-size="10.00"> </text>
<text text-anchor="start" x="703.5" y="-761.8" font-family="sans" font-weight="bold" font-size="14.00">output →</text>
<text text-anchor="start" x="773.5" y="-761.8" font-family="sans" font-size="10.00"> </text>
<text text-anchor="start" x="146.5" y="-742" font-family="monospace" font-size="10.00">results/{dataset}/stellarscope/{samp}/{pmode,pseudobulk|individual|celltype}&#45;TE_counts.best_average.mtx</text>
<text text-anchor="start" x="146.5" y="-724" font-family="monospace" font-size="10.00">results/{dataset}/stellarscope/{samp}/{pmode,pseudobulk|individual|celltype}&#45;TE_counts.best_conf.mtx</text>
<text text-anchor="start" x="146.5" y="-706" font-family="monospace" font-size="10.00">results/{dataset}/stellarscope/{samp}/{pmode,pseudobulk|individual|celltype}&#45;TE_counts.best_random.mtx</text>
<text text-anchor="start" x="146.5" y="-688" font-family="monospace" font-size="10.00">results/{dataset}/stellarscope/{samp}/{pmode,pseudobulk|individual|celltype}&#45;TE_counts.initial_random.mtx</text>
<text text-anchor="start" x="146.5" y="-670" font-family="monospace" font-size="10.00">results/{dataset}/stellarscope/{samp}/{pmode,pseudobulk|individual|celltype}&#45;TE_counts.initial_unique.mtx</text>
<text text-anchor="start" x="146.5" y="-652" font-family="monospace" font-size="10.00">results/{dataset}/stellarscope/{samp}/{pmode,pseudobulk|individual|celltype}&#45;TE_counts.mtx</text>
<text text-anchor="start" x="146.5" y="-634" font-family="monospace" font-size="10.00">results/{dataset}/stellarscope/{samp}/{pmode,pseudobulk|individual|celltype}&#45;TE_counts.total_hits.mtx</text>
<text text-anchor="start" x="146.5" y="-616" font-family="monospace" font-size="10.00">results/{dataset}/stellarscope/{samp}/{pmode,pseudobulk|individual|celltype}&#45;barcodes.tsv</text>
<text text-anchor="start" x="146.5" y="-598" font-family="monospace" font-size="10.00">results/{dataset}/stellarscope/{samp}/{pmode,pseudobulk|individual|celltype}&#45;checkpoint.final.pickle</text>
<text text-anchor="start" x="146.5" y="-580" font-family="monospace" font-size="10.00">results/{dataset}/stellarscope/{samp}/{pmode,pseudobulk|individual|celltype}&#45;features.tsv</text>
<text text-anchor="start" x="146.5" y="-562" font-family="monospace" font-size="10.00">results/{dataset}/stellarscope/{samp}/{pmode,pseudobulk|individual|celltype}&#45;stats.final.tsv</text>
<polygon fill="#64d957" stroke="#64d957" points="140.5,-834 140.5,-834 784.5,-834 784.5,-834 140.5,-834"/>
<polygon fill="#64d957" stroke="#64d957" points="140.5,-776 140.5,-776 784.5,-776 784.5,-776 140.5,-776"/>
<polygon fill="none" stroke="#64d957" stroke-width="2" points="140,-553 140,-863 783,-863 783,-553 140,-553"/>
</g>
<!-- 5&#45;&gt;4 -->
<g id="edge5" class="edge">
<title>5&#45;&gt;4</title>
<path fill="none" stroke="grey" stroke-width="2" d="M461.5,-551.98C461.5,-543.29 461.5,-534.69 461.5,-526.34"/>
<polygon fill="grey" stroke="grey" stroke-width="2" points="465,-526.28 461.5,-516.28 458,-526.28 465,-526.28"/>
</g>
<!-- 6 -->
<g id="node7" class="node">
<title>6</title>
<text text-anchor="start" x="668" y="-1065.6" font-family="sans" font-weight="bold" font-size="18.00">stellarscope_load</text>
<text text-anchor="start" x="523.5" y="-1041.8" font-family="sans" font-size="10.00"> </text>
<text text-anchor="start" x="527.5" y="-1041.8" font-family="sans" font-weight="bold" font-size="14.00">↪ input</text>
<text text-anchor="start" x="585.5" y="-1041.8" font-family="sans" font-size="10.00"> </text>
<text text-anchor="start" x="523.5" y="-1022" font-family="monospace" font-size="10.00">resources/retro.hg38.v1.gtf</text>
<text text-anchor="start" x="523.5" y="-1004" font-family="monospace" font-size="10.00">results/{dataset}/canonicalQC/{samp}/scrublet/SCR.barcodes.pass.tsv</text>
<text text-anchor="start" x="523.5" y="-986" font-family="monospace" font-size="10.00">results/{dataset}/stellarscope/{samp}/Aligned.sortedByCB.bam</text>
<text text-anchor="start" x="908.5" y="-965.8" font-family="sans" font-size="10.00"> </text>
<text text-anchor="start" x="912.5" y="-965.8" font-family="sans" font-weight="bold" font-size="14.00">output →</text>
<text text-anchor="start" x="982.5" y="-965.8" font-family="sans" font-size="10.00"> </text>
<text text-anchor="start" x="523.5" y="-946" font-family="monospace" font-size="10.00">results/{dataset}/stellarscope/{samp}/stload&#45;checkpoint.dedup_umi.pickle</text>
<text text-anchor="start" x="523.5" y="-928" font-family="monospace" font-size="10.00">results/{dataset}/stellarscope/{samp}/stload&#45;checkpoint.load_alignment.pickle</text>
<text text-anchor="start" x="523.5" y="-910" font-family="monospace" font-size="10.00">results/{dataset}/stellarscope/{samp}/stload&#45;stats.final.tsv</text>
<polygon fill="#57d980" stroke="#57d980" points="517.5,-1056 517.5,-1056 993.5,-1056 993.5,-1056 517.5,-1056"/>
<polygon fill="#57d980" stroke="#57d980" points="517.5,-980 517.5,-980 993.5,-980 993.5,-980 517.5,-980"/>
<polygon fill="none" stroke="#57d980" stroke-width="2" points="517,-901 517,-1085 992,-1085 992,-901 517,-901"/>
</g>
<!-- 6&#45;&gt;5 -->
<g id="edge8" class="edge">
<title>6&#45;&gt;5</title>
<path fill="none" stroke="grey" stroke-width="2" d="M658.97,-899.73C649.43,-890.51 639.55,-880.98 629.55,-871.31"/>
<polygon fill="grey" stroke="grey" stroke-width="2" points="631.86,-868.68 622.24,-864.25 627,-873.72 631.86,-868.68"/>
</g>
<!-- 12 -->
<g id="node13" class="node">
<title>12</title>
<text text-anchor="start" x="929.5" y="-843.6" font-family="sans" font-weight="bold" font-size="18.00">stellarscope_resume_celltype</text>
<text text-anchor="start" x="809.5" y="-819.8" font-family="sans" font-size="10.00"> </text>
<text text-anchor="start" x="813.5" y="-819.8" font-family="sans" font-weight="bold" font-size="14.00">↪ input</text>
<text text-anchor="start" x="871.5" y="-819.8" font-family="sans" font-size="10.00"> </text>
<text text-anchor="start" x="809.5" y="-800" font-family="monospace" font-size="10.00">&lt;input function&gt;</text>
<text text-anchor="start" x="809.5" y="-782" font-family="monospace" font-size="10.00">results/{dataset}/stellarscope/{samp}/stload&#45;checkpoint.dedup_umi.pickle</text>
<text text-anchor="start" x="1266.5" y="-761.8" font-family="sans" font-size="10.00"> </text>
<text text-anchor="start" x="1270.5" y="-761.8" font-family="sans" font-weight="bold" font-size="14.00">output →</text>
<text text-anchor="start" x="1340.5" y="-761.8" font-family="sans" font-size="10.00"> </text>
<text text-anchor="start" x="809.5" y="-742" font-family="monospace" font-size="10.00">results/{dataset}/stellarscope/{samp}/celltype.{lvl,(l1|l3)}&#45;TE_counts.best_average.mtx</text>
<text text-anchor="start" x="809.5" y="-724" font-family="monospace" font-size="10.00">results/{dataset}/stellarscope/{samp}/celltype.{lvl,(l1|l3)}&#45;TE_counts.best_conf.mtx</text>
<text text-anchor="start" x="809.5" y="-706" font-family="monospace" font-size="10.00">results/{dataset}/stellarscope/{samp}/celltype.{lvl,(l1|l3)}&#45;TE_counts.best_random.mtx</text>
<text text-anchor="start" x="809.5" y="-688" font-family="monospace" font-size="10.00">results/{dataset}/stellarscope/{samp}/celltype.{lvl,(l1|l3)}&#45;TE_counts.initial_random.mtx</text>
<text text-anchor="start" x="809.5" y="-670" font-family="monospace" font-size="10.00">results/{dataset}/stellarscope/{samp}/celltype.{lvl,(l1|l3)}&#45;TE_counts.initial_unique.mtx</text>
<text text-anchor="start" x="809.5" y="-652" font-family="monospace" font-size="10.00">results/{dataset}/stellarscope/{samp}/celltype.{lvl,(l1|l3)}&#45;TE_counts.mtx</text>
<text text-anchor="start" x="809.5" y="-634" font-family="monospace" font-size="10.00">results/{dataset}/stellarscope/{samp}/celltype.{lvl,(l1|l3)}&#45;TE_counts.total_hits.mtx</text>
<text text-anchor="start" x="809.5" y="-616" font-family="monospace" font-size="10.00">results/{dataset}/stellarscope/{samp}/celltype.{lvl,(l1|l3)}&#45;barcodes.tsv</text>
<text text-anchor="start" x="809.5" y="-598" font-family="monospace" font-size="10.00">results/{dataset}/stellarscope/{samp}/celltype.{lvl,(l1|l3)}&#45;checkpoint.final.pickle</text>
<text text-anchor="start" x="809.5" y="-580" font-family="monospace" font-size="10.00">results/{dataset}/stellarscope/{samp}/celltype.{lvl,(l1|l3)}&#45;features.tsv</text>
<text text-anchor="start" x="809.5" y="-562" font-family="monospace" font-size="10.00">results/{dataset}/stellarscope/{samp}/celltype.{lvl,(l1|l3)}&#45;stats.final.tsv</text>
<polygon fill="#578dd9" stroke="#578dd9" points="803.5,-834 803.5,-834 1351.5,-834 1351.5,-834 803.5,-834"/>
<polygon fill="#578dd9" stroke="#578dd9" points="803.5,-776 803.5,-776 1351.5,-776 1351.5,-776 803.5,-776"/>
<polygon fill="none" stroke="#578dd9" stroke-width="2" points="803,-553 803,-863 1350,-863 1350,-553 803,-553"/>
</g>
<!-- 6&#45;&gt;12 -->
<g id="edge18" class="edge">
<title>6&#45;&gt;12</title>
<path fill="none" stroke="grey" stroke-width="2" d="M859.49,-899.73C870.08,-890.42 881.03,-880.79 892.14,-871.03"/>
<polygon fill="grey" stroke="grey" stroke-width="2" points="894.65,-873.48 899.85,-864.25 890.03,-868.22 894.65,-873.48"/>
</g>
<!-- 7&#45;&gt;6 -->
<g id="edge10" class="edge">
<title>7&#45;&gt;6</title>
<path fill="none" stroke="grey" stroke-width="2" d="M733.29,-1121.93C734.67,-1113.58 736.12,-1104.88 737.57,-1096.12"/>
<polygon fill="grey" stroke="grey" stroke-width="2" points="741.03,-1096.65 739.21,-1086.21 734.12,-1095.5 741.03,-1096.65"/>
</g>
<!-- 8 -->
<g id="node9" class="node">
<title>8</title>
<text text-anchor="start" x="682" y="-1473.6" font-family="sans" font-weight="bold" font-size="18.00">scrublet</text>
<text text-anchor="start" x="506.5" y="-1449.8" font-family="sans" font-size="10.00"> </text>
<text text-anchor="start" x="510.5" y="-1449.8" font-family="sans" font-weight="bold" font-size="14.00">↪ input</text>
<text text-anchor="start" x="568.5" y="-1449.8" font-family="sans" font-size="10.00"> </text>
<text text-anchor="start" x="506.5" y="-1430" font-family="monospace" font-size="10.00">results/{dataset}/canonicalQC/{samp}/tx_seurat.mapped.barcodes.tsv</text>
<text text-anchor="start" x="506.5" y="-1412" font-family="monospace" font-size="10.00">results/{dataset}/canonicalQC/{samp}/tx_seurat.mapped.counts.mtx</text>
<text text-anchor="start" x="506.5" y="-1394" font-family="monospace" font-size="10.00">results/{dataset}/canonicalQC/{samp}/tx_seurat.mapped.features.tsv</text>
<text text-anchor="start" x="861.5" y="-1373.8" font-family="sans" font-size="10.00"> </text>
<text text-anchor="start" x="865.5" y="-1373.8" font-family="sans" font-weight="bold" font-size="14.00">output →</text>
<text text-anchor="start" x="935.5" y="-1373.8" font-family="sans" font-size="10.00"> </text>
<text text-anchor="start" x="506.5" y="-1354" font-family="monospace" font-size="10.00">results/{dataset}/canonicalQC/{samp}/scrublet/SCR.barcodes.pass.tsv</text>
<text text-anchor="start" x="506.5" y="-1336" font-family="monospace" font-size="10.00">results/{dataset}/canonicalQC/{samp}/scrublet/SCR.predictions_all.tsv</text>
<text text-anchor="start" x="506.5" y="-1318" font-family="monospace" font-size="10.00">results/{dataset}/canonicalQC/{samp}/scrublet/SCR.predictions_single.tsv</text>
<text text-anchor="start" x="506.5" y="-1300" font-family="monospace" font-size="10.00">results/{dataset}/canonicalQC/{samp}/scrublet/SCR.summary.txt</text>
<polygon fill="#d95757" stroke="#d95757" points="500.5,-1464 500.5,-1464 946.5,-1464 946.5,-1464 500.5,-1464"/>
<polygon fill="#d95757" stroke="#d95757" points="500.5,-1388 500.5,-1388 946.5,-1388 946.5,-1388 500.5,-1388"/>
<polygon fill="none" stroke="#d95757" stroke-width="2" points="500,-1291 500,-1493 945,-1493 945,-1291 500,-1291"/>
</g>
<!-- 8&#45;&gt;6 -->
<g id="edge9" class="edge">
<title>8&#45;&gt;6</title>
<path fill="none" stroke="grey" stroke-width="2" d="M936.99,-1289.76C947.55,-1278.93 956.9,-1267.03 964.5,-1254 994.05,-1203.32 993.23,-1173.15 964.5,-1122 958.84,-1111.92 952.03,-1102.54 944.37,-1093.83"/>
<polygon fill="grey" stroke="grey" stroke-width="2" points="946.8,-1091.3 937.44,-1086.34 941.67,-1096.06 946.8,-1091.3"/>
</g>
<!-- 8&#45;&gt;7 -->
<g id="edge11" class="edge">
<title>8&#45;&gt;7</title>
<path fill="none" stroke="grey" stroke-width="2" d="M722.5,-1290C722.5,-1281.3 722.5,-1272.61 722.5,-1264.17"/>
<polygon fill="grey" stroke="grey" stroke-width="2" points="726,-1264.03 722.5,-1254.03 719,-1264.03 726,-1264.03"/>
</g>
<!-- 9 -->
<g id="node10" class="node">
<title>9</title>
<text text-anchor="start" x="608.5" y="-1659.6" font-family="sans" font-weight="bold" font-size="18.00">seurat_to_mtx_forscr</text>
<text text-anchor="start" x="514.5" y="-1635.8" font-family="sans" font-size="10.00"> </text>
<text text-anchor="start" x="518.5" y="-1635.8" font-family="sans" font-weight="bold" font-size="14.00">↪ input</text>
<text text-anchor="start" x="576.5" y="-1635.8" font-family="sans" font-size="10.00"> </text>
<text text-anchor="start" x="514.5" y="-1616" font-family="monospace" font-size="10.00">results/{dataset}/canonicalQC/{samp}/tx_seurat.mapped.rds</text>
<text text-anchor="start" x="833.5" y="-1595.8" font-family="sans" font-size="10.00"> </text>
<text text-anchor="start" x="837.5" y="-1595.8" font-family="sans" font-weight="bold" font-size="14.00">output →</text>
<text text-anchor="start" x="907.5" y="-1595.8" font-family="sans" font-size="10.00"> </text>
<text text-anchor="start" x="514.5" y="-1576" font-family="monospace" font-size="10.00">results/{dataset}/canonicalQC/{samp}/tx_seurat.mapped.barcodes.tsv</text>
<text text-anchor="start" x="514.5" y="-1558" font-family="monospace" font-size="10.00">results/{dataset}/canonicalQC/{samp}/tx_seurat.mapped.counts.mtx</text>
<text text-anchor="start" x="514.5" y="-1540" font-family="monospace" font-size="10.00">results/{dataset}/canonicalQC/{samp}/tx_seurat.mapped.features.tsv</text>
<polygon fill="#5772d9" stroke="#5772d9" points="508.5,-1650 508.5,-1650 918.5,-1650 918.5,-1650 508.5,-1650"/>
<polygon fill="#5772d9" stroke="#5772d9" points="508.5,-1610 508.5,-1610 918.5,-1610 918.5,-1610 508.5,-1610"/>
<polygon fill="none" stroke="#5772d9" stroke-width="2" points="508,-1531 508,-1679 917,-1679 917,-1531 508,-1531"/>
</g>
<!-- 9&#45;&gt;8 -->
<g id="edge13" class="edge">
<title>9&#45;&gt;8</title>
<path fill="none" stroke="grey" stroke-width="2" d="M716.01,-1529.91C716.4,-1521.63 716.81,-1513.06 717.22,-1504.45"/>
<polygon fill="grey" stroke="grey" stroke-width="2" points="720.72,-1504.48 717.7,-1494.32 713.73,-1504.15 720.72,-1504.48"/>
</g>
<!-- 10 -->
<g id="node11" class="node">
<title>10</title>
<text text-anchor="start" x="570" y="-1845.6" font-family="sans" font-weight="bold" font-size="18.00">annotate_celltypes_azimuth</text>
<text text-anchor="start" x="523.5" y="-1821.8" font-family="sans" font-size="10.00"> </text>
<text text-anchor="start" x="527.5" y="-1821.8" font-family="sans" font-weight="bold" font-size="14.00">↪ input</text>
<text text-anchor="start" x="585.5" y="-1821.8" font-family="sans" font-size="10.00"> </text>
<text text-anchor="start" x="523.5" y="-1802" font-family="monospace" font-size="10.00">results/{dataset}/canonicalQC/{samp}/tx_seurat.cell_qc.rds</text>
<text text-anchor="start" x="818.5" y="-1781.8" font-family="sans" font-size="10.00"> </text>
<text text-anchor="start" x="822.5" y="-1781.8" font-family="sans" font-weight="bold" font-size="14.00">output →</text>
<text text-anchor="start" x="892.5" y="-1781.8" font-family="sans" font-size="10.00"> </text>
<text text-anchor="start" x="523.5" y="-1762" font-family="monospace" font-size="10.00">results/{dataset}/canonicalQC/{samp}/tonsilref.celltype.l1.tsv</text>
<text text-anchor="start" x="523.5" y="-1744" font-family="monospace" font-size="10.00">results/{dataset}/canonicalQC/{samp}/tonsilref.celltype.l2.tsv</text>
<text text-anchor="start" x="523.5" y="-1726" font-family="monospace" font-size="10.00">results/{dataset}/canonicalQC/{samp}/tx_seurat.mapped.rds</text>
<polygon fill="#57d9d2" stroke="#57d9d2" points="517.5,-1836 517.5,-1836 903.5,-1836 903.5,-1836 517.5,-1836"/>
<polygon fill="#57d9d2" stroke="#57d9d2" points="517.5,-1796 517.5,-1796 903.5,-1796 903.5,-1796 517.5,-1796"/>
<polygon fill="none" stroke="#57d9d2" stroke-width="2" points="517,-1717 517,-1865 902,-1865 902,-1717 517,-1717"/>
</g>
<!-- 10&#45;&gt;5 -->
<g id="edge7" class="edge">
<title>10&#45;&gt;5</title>
<path fill="none" stroke="grey" stroke-width="2" d="M531.17,-1715.88C518.38,-1705.35 506.86,-1693.44 497.5,-1680 424.02,-1574.52 461.5,-1521.56 461.5,-1393 461.5,-1393 461.5,-1393 461.5,-1187 461.5,-1083.12 461.5,-966.53 461.5,-874.51"/>
<polygon fill="grey" stroke="grey" stroke-width="2" points="465,-874.27 461.5,-864.27 458,-874.27 465,-874.27"/>
</g>
<!-- 10&#45;&gt;9 -->
<g id="edge14" class="edge">
<title>10&#45;&gt;9</title>
<path fill="none" stroke="grey" stroke-width="2" d="M710.71,-1715.96C710.85,-1707.49 710.99,-1698.81 711.13,-1690.22"/>
<polygon fill="grey" stroke="grey" stroke-width="2" points="714.63,-1690.25 711.29,-1680.19 707.63,-1690.13 714.63,-1690.25"/>
</g>
<!-- 10&#45;&gt;12 -->
<g id="edge17" class="edge">
<title>10&#45;&gt;12</title>
<path fill="none" stroke="grey" stroke-width="2" d="M885.27,-1715.94C900.65,-1705.27 915.06,-1693.32 927.5,-1680 1021.98,-1578.83 1048.5,-1531.43 1048.5,-1393 1048.5,-1393 1048.5,-1393 1048.5,-1187 1048.5,-1082.94 1055.2,-966.35 1062.04,-874.37"/>
<polygon fill="grey" stroke="grey" stroke-width="2" points="1065.55,-874.37 1062.81,-864.13 1058.57,-873.84 1065.55,-874.37"/>
</g>
<!-- 11&#45;&gt;10 -->
<g id="edge15" class="edge">
<title>11&#45;&gt;10</title>
<path fill="none" stroke="grey" stroke-width="2" d="M708.36,-1901.75C708.45,-1893.34 708.54,-1884.79 708.63,-1876.36"/>
<polygon fill="grey" stroke="grey" stroke-width="2" points="712.13,-1876.2 708.73,-1866.16 705.13,-1876.13 712.13,-1876.2"/>
</g>
<!-- 12&#45;&gt;4 -->
<g id="edge6" class="edge">
<title>12&#45;&gt;4</title>
<path fill="none" stroke="grey" stroke-width="2" d="M801.76,-556.2C798.66,-554.78 795.57,-553.38 792.5,-552 752.76,-534.14 709.45,-516.99 667.66,-501.54"/>
<polygon fill="grey" stroke="grey" stroke-width="2" points="668.8,-498.23 658.21,-498.07 666.39,-504.8 668.8,-498.23"/>
</g>
</g>
</svg>
