<?xml version="1.0" encoding="UTF-8" standalone="no"?>
<!DOCTYPE svg PUBLIC "-//W3C//DTD SVG 1.1//EN"
 "http://www.w3.org/Graphics/SVG/1.1/DTD/svg11.dtd">
<!-- Generated by graphviz version 2.43.0 (0)
 -->
<!-- Title: snakemake_dag Pages: 1 -->
<svg width="1284pt" height="3150pt"
 viewBox="0.00 0.00 1283.86 3150.00" xmlns="http://www.w3.org/2000/svg" xmlns:xlink="http://www.w3.org/1999/xlink">
<g id="graph0" class="graph" transform="scale(1 1) rotate(0) translate(4 3146)">
<title>snakemake_dag</title>
<polygon fill="white" stroke="transparent" points="-4,4 -4,-3146 1279.86,-3146 1279.86,4 -4,4"/>
<!-- 0 -->
<g id="node1" class="node">
<title>0</title>
<text text-anchor="start" x="877.5" y="-377.6" font-family="sans" font-weight="bold" font-size="18.00">all</text>
<text text-anchor="start" x="661.5" y="-353.8" font-family="sans" font-size="10.00"> </text>
<text text-anchor="start" x="665.5" y="-353.8" font-family="sans" font-weight="bold" font-size="14.00">↪ input</text>
<text text-anchor="start" x="723.5" y="-353.8" font-family="sans" font-size="10.00"> </text>
<text text-anchor="start" x="661.5" y="-334" font-family="monospace" font-size="10.00">results/rna_gex_PRJNA587486/analysis/DZ1_GSM4148372/celltype.l1.sct.h5seurat</text>
<text text-anchor="start" x="661.5" y="-316" font-family="monospace" font-size="10.00">results/rna_gex_PRJNA587486/analysis/DZ1_GSM4148372/celltype.sct.h5seurat</text>
<text text-anchor="start" x="661.5" y="-298" font-family="monospace" font-size="10.00">results/rna_gex_PRJNA587486/analysis/DZ1_GSM4148372/pseudobulk.sct.h5seurat</text>
<text text-anchor="start" x="661.5" y="-280" font-family="monospace" font-size="10.00">results/rna_gex_PRJNA587486/analysis/DZ2_GSM4148373/celltype.l1.sct.h5seurat</text>
<text text-anchor="start" x="661.5" y="-262" font-family="monospace" font-size="10.00">results/rna_gex_PRJNA587486/analysis/DZ2_GSM4148373/celltype.sct.h5seurat</text>
<text text-anchor="start" x="661.5" y="-244" font-family="monospace" font-size="10.00">results/rna_gex_PRJNA587486/analysis/DZ2_GSM4148373/pseudobulk.sct.h5seurat</text>
<text text-anchor="start" x="661.5" y="-226" font-family="monospace" font-size="10.00">results/rna_gex_PRJNA587486/analysis/GC1_GSM4148370/celltype.l1.sct.h5seurat</text>
<text text-anchor="start" x="661.5" y="-208" font-family="monospace" font-size="10.00">results/rna_gex_PRJNA587486/analysis/GC1_GSM4148370/celltype.sct.h5seurat</text>
<text text-anchor="start" x="661.5" y="-190" font-family="monospace" font-size="10.00">results/rna_gex_PRJNA587486/analysis/GC1_GSM4148370/pseudobulk.sct.h5seurat</text>
<text text-anchor="start" x="661.5" y="-172" font-family="monospace" font-size="10.00">results/rna_gex_PRJNA587486/analysis/GC2_GSM4148371/celltype.l1.sct.h5seurat</text>
<text text-anchor="start" x="661.5" y="-154" font-family="monospace" font-size="10.00">results/rna_gex_PRJNA587486/analysis/GC2_GSM4148371/celltype.sct.h5seurat</text>
<text text-anchor="start" x="661.5" y="-136" font-family="monospace" font-size="10.00">results/rna_gex_PRJNA587486/analysis/GC2_GSM4148371/pseudobulk.sct.h5seurat</text>
<text text-anchor="start" x="661.5" y="-118" font-family="monospace" font-size="10.00">results/rna_gex_PRJNA587486/analysis/LZ1_GSM4148374/celltype.l1.sct.h5seurat</text>
<text text-anchor="start" x="661.5" y="-100" font-family="monospace" font-size="10.00">results/rna_gex_PRJNA587486/analysis/LZ1_GSM4148374/celltype.sct.h5seurat</text>
<text text-anchor="start" x="661.5" y="-82" font-family="monospace" font-size="10.00">results/rna_gex_PRJNA587486/analysis/LZ1_GSM4148374/pseudobulk.sct.h5seurat</text>
<text text-anchor="start" x="661.5" y="-64" font-family="monospace" font-size="10.00">results/rna_gex_PRJNA587486/analysis/LZ2_GSM4148375/celltype.l1.sct.h5seurat</text>
<text text-anchor="start" x="661.5" y="-46" font-family="monospace" font-size="10.00">results/rna_gex_PRJNA587486/analysis/LZ2_GSM4148375/celltype.sct.h5seurat</text>
<text text-anchor="start" x="661.5" y="-28" font-family="monospace" font-size="10.00">results/rna_gex_PRJNA587486/analysis/LZ2_GSM4148375/pseudobulk.sct.h5seurat</text>
<text text-anchor="start" x="1111.5" y="-10" font-family="sans" font-size="10.00"> &#160;</text>
<polygon fill="#d9c457" stroke="#d9c457" points="655.5,-368 655.5,-368 1125.5,-368 1125.5,-368 655.5,-368"/>
<polygon fill="#d9c457" stroke="#d9c457" points="655.5,-22 655.5,-22 1125.5,-22 1125.5,-22 655.5,-22"/>
<polygon fill="none" stroke="#d9c457" stroke-width="2" points="655,-1 655,-397 1124,-397 1124,-1 655,-1"/>
</g>
<!-- 1 -->
<g id="node2" class="node">
<title>1</title>
<text text-anchor="start" x="829.5" y="-527.6" font-family="sans" font-weight="bold" font-size="18.00">sctransform</text>
<text text-anchor="start" x="610.5" y="-503.8" font-family="sans" font-size="10.00"> </text>
<text text-anchor="start" x="614.5" y="-503.8" font-family="sans" font-weight="bold" font-size="14.00">↪ input</text>
<text text-anchor="start" x="672.5" y="-503.8" font-family="sans" font-size="10.00"> </text>
<text text-anchor="start" x="610.5" y="-484" font-family="monospace" font-size="10.00">results/{dataset}/analysis/{samp}/{exptag}.agg.h5seurat</text>
<text text-anchor="start" x="1091.5" y="-463.8" font-family="sans" font-size="10.00"> </text>
<text text-anchor="start" x="1095.5" y="-463.8" font-family="sans" font-weight="bold" font-size="14.00">output →</text>
<text text-anchor="start" x="1165.5" y="-463.8" font-family="sans" font-size="10.00"> </text>
<text text-anchor="start" x="610.5" y="-444" font-family="monospace" font-size="10.00">results/{dataset}/analysis/{samp}/{exptag,pseudobulk|individual|celltype(.l\d)*}.sct.h5seurat</text>
<polygon fill="#d9a957" stroke="#d9a957" points="604.5,-518 604.5,-518 1176.5,-518 1176.5,-518 604.5,-518"/>
<polygon fill="#d9a957" stroke="#d9a957" points="604.5,-478 604.5,-478 1176.5,-478 1176.5,-478 604.5,-478"/>
<polygon fill="none" stroke="#d9a957" stroke-width="2" points="604,-435 604,-547 1175,-547 1175,-435 604,-435"/>
</g>
<!-- 1&#45;&gt;0 -->
<g id="edge1" class="edge">
<title>1&#45;&gt;0</title>
<path fill="none" stroke="grey" stroke-width="2" d="M889.5,-433.74C889.5,-425.78 889.5,-417.24 889.5,-408.31"/>
<polygon fill="grey" stroke="grey" stroke-width="2" points="893,-408.06 889.5,-398.06 886,-408.06 893,-408.06"/>
</g>
<!-- 2 -->
<g id="node3" class="node">
<title>2</title>
<text text-anchor="start" x="791.5" y="-677.6" font-family="sans" font-weight="bold" font-size="18.00">aggregate_features</text>
<text text-anchor="start" x="610.5" y="-653.8" font-family="sans" font-size="10.00"> </text>
<text text-anchor="start" x="614.5" y="-653.8" font-family="sans" font-weight="bold" font-size="14.00">↪ input</text>
<text text-anchor="start" x="672.5" y="-653.8" font-family="sans" font-size="10.00"> </text>
<text text-anchor="start" x="610.5" y="-634" font-family="monospace" font-size="10.00">results/{dataset}/analysis/{samp}/{exptag}.map.h5seurat</text>
<text text-anchor="start" x="1091.5" y="-613.8" font-family="sans" font-size="10.00"> </text>
<text text-anchor="start" x="1095.5" y="-613.8" font-family="sans" font-weight="bold" font-size="14.00">output →</text>
<text text-anchor="start" x="1165.5" y="-613.8" font-family="sans" font-size="10.00"> </text>
<text text-anchor="start" x="610.5" y="-594" font-family="monospace" font-size="10.00">results/{dataset}/analysis/{samp}/{exptag,pseudobulk|individual|celltype(.l\d)*}.agg.h5seurat</text>
<polygon fill="#d97257" stroke="#d97257" points="604.5,-668 604.5,-668 1176.5,-668 1176.5,-668 604.5,-668"/>
<polygon fill="#d97257" stroke="#d97257" points="604.5,-628 604.5,-628 1176.5,-628 1176.5,-628 604.5,-628"/>
<polygon fill="none" stroke="#d97257" stroke-width="2" points="604,-585 604,-697 1175,-697 1175,-585 604,-585"/>
</g>
<!-- 2&#45;&gt;1 -->
<g id="edge2" class="edge">
<title>2&#45;&gt;1</title>
<path fill="none" stroke="grey" stroke-width="2" d="M889.5,-583.63C889.5,-575.38 889.5,-566.82 889.5,-558.4"/>
<polygon fill="grey" stroke="grey" stroke-width="2" points="893,-558.22 889.5,-548.22 886,-558.22 893,-558.22"/>
</g>
<!-- 3 -->
<g id="node4" class="node">
<title>3</title>
<text text-anchor="start" x="823" y="-827.6" font-family="sans" font-weight="bold" font-size="18.00">map_azimuth</text>
<text text-anchor="start" x="610.5" y="-803.8" font-family="sans" font-size="10.00"> </text>
<text text-anchor="start" x="614.5" y="-803.8" font-family="sans" font-weight="bold" font-size="14.00">↪ input</text>
<text text-anchor="start" x="672.5" y="-803.8" font-family="sans" font-size="10.00"> </text>
<text text-anchor="start" x="610.5" y="-784" font-family="monospace" font-size="10.00">results/{dataset}/analysis/{samp}/{exptag}.orig.h5seurat</text>
<text text-anchor="start" x="1091.5" y="-763.8" font-family="sans" font-size="10.00"> </text>
<text text-anchor="start" x="1095.5" y="-763.8" font-family="sans" font-weight="bold" font-size="14.00">output →</text>
<text text-anchor="start" x="1165.5" y="-763.8" font-family="sans" font-size="10.00"> </text>
<text text-anchor="start" x="610.5" y="-744" font-family="monospace" font-size="10.00">results/{dataset}/analysis/{samp}/{exptag,pseudobulk|individual|celltype(.l\d)*}.map.h5seurat</text>
<polygon fill="#57d9b7" stroke="#57d9b7" points="604.5,-818 604.5,-818 1176.5,-818 1176.5,-818 604.5,-818"/>
<polygon fill="#57d9b7" stroke="#57d9b7" points="604.5,-778 604.5,-778 1176.5,-778 1176.5,-778 604.5,-778"/>
<polygon fill="none" stroke="#57d9b7" stroke-width="2" points="604,-735 604,-847 1175,-847 1175,-735 604,-735"/>
</g>
<!-- 3&#45;&gt;2 -->
<g id="edge3" class="edge">
<title>3&#45;&gt;2</title>
<path fill="none" stroke="grey" stroke-width="2" d="M889.5,-733.63C889.5,-725.38 889.5,-716.82 889.5,-708.4"/>
<polygon fill="grey" stroke="grey" stroke-width="2" points="893,-708.22 889.5,-698.22 886,-708.22 893,-708.22"/>
</g>
<!-- 4 -->
<g id="node5" class="node">
<title>4</title>
<text text-anchor="start" x="801" y="-1067.6" font-family="sans" font-weight="bold" font-size="18.00">create_seurat_obj</text>
<text text-anchor="start" x="607.5" y="-1043.8" font-family="sans" font-size="10.00"> </text>
<text text-anchor="start" x="611.5" y="-1043.8" font-family="sans" font-weight="bold" font-size="14.00">↪ input</text>
<text text-anchor="start" x="669.5" y="-1043.8" font-family="sans" font-size="10.00"> </text>
<text text-anchor="start" x="607.5" y="-1024" font-family="monospace" font-size="10.00">results/{dataset}/align_multi_starsolo/{samp}/Solo.out/Gene/filtered/barcodes.tsv</text>
<text text-anchor="start" x="607.5" y="-1006" font-family="monospace" font-size="10.00">results/{dataset}/align_multi_starsolo/{samp}/Solo.out/Gene/filtered/features.tsv</text>
<text text-anchor="start" x="607.5" y="-988" font-family="monospace" font-size="10.00">results/{dataset}/align_multi_starsolo/{samp}/Solo.out/Gene/filtered/matrix.mtx</text>
<text text-anchor="start" x="607.5" y="-970" font-family="monospace" font-size="10.00">results/{dataset}/stellarscope/{samp}/{exptag}&#45;TE_counts.mtx</text>
<text text-anchor="start" x="607.5" y="-952" font-family="monospace" font-size="10.00">results/{dataset}/stellarscope/{samp}/{exptag}&#45;barcodes.tsv</text>
<text text-anchor="start" x="607.5" y="-934" font-family="monospace" font-size="10.00">results/{dataset}/stellarscope/{samp}/{exptag}&#45;features.tsv</text>
<text text-anchor="start" x="1094.5" y="-913.8" font-family="sans" font-size="10.00"> </text>
<text text-anchor="start" x="1098.5" y="-913.8" font-family="sans" font-weight="bold" font-size="14.00">output →</text>
<text text-anchor="start" x="1168.5" y="-913.8" font-family="sans" font-size="10.00"> </text>
<text text-anchor="start" x="607.5" y="-894" font-family="monospace" font-size="10.00">results/{dataset}/analysis/{samp}/{exptag,pseudobulk|individual|celltype(.l\d)*}.orig.h5seurat</text>
<polygon fill="#57d99b" stroke="#57d99b" points="601.5,-1058 601.5,-1058 1179.5,-1058 1179.5,-1058 601.5,-1058"/>
<polygon fill="#57d99b" stroke="#57d99b" points="601.5,-928 601.5,-928 1179.5,-928 1179.5,-928 601.5,-928"/>
<polygon fill="none" stroke="#57d99b" stroke-width="2" points="601,-885 601,-1087 1178,-1087 1178,-885 601,-885"/>
</g>
<!-- 4&#45;&gt;3 -->
<g id="edge4" class="edge">
<title>4&#45;&gt;3</title>
<path fill="none" stroke="grey" stroke-width="2" d="M889.5,-883.98C889.5,-875.22 889.5,-866.52 889.5,-858.16"/>
<polygon fill="grey" stroke="grey" stroke-width="2" points="893,-858.14 889.5,-848.14 886,-858.14 893,-858.14"/>
</g>
<!-- 5 -->
<g id="node6" class="node">
<title>5</title>
<text text-anchor="start" x="787" y="-1415.6" font-family="sans" font-weight="bold" font-size="18.00">stellarscope_resume</text>
<text text-anchor="start" x="574.5" y="-1391.8" font-family="sans" font-size="10.00"> </text>
<text text-anchor="start" x="578.5" y="-1391.8" font-family="sans" font-weight="bold" font-size="14.00">↪ input</text>
<text text-anchor="start" x="636.5" y="-1391.8" font-family="sans" font-size="10.00"> </text>
<text text-anchor="start" x="574.5" y="-1372" font-family="monospace" font-size="10.00">results/{dataset}/canonicalQC/{samp}/tonsilref.celltype.l2.tsv</text>
<text text-anchor="start" x="574.5" y="-1354" font-family="monospace" font-size="10.00">results/{dataset}/stellarscope/{samp}/stload&#45;checkpoint.dedup_umi.pickle</text>
<text text-anchor="start" x="1127.5" y="-1333.8" font-family="sans" font-size="10.00"> </text>
<text text-anchor="start" x="1131.5" y="-1333.8" font-family="sans" font-weight="bold" font-size="14.00">output →</text>
<text text-anchor="start" x="1201.5" y="-1333.8" font-family="sans" font-size="10.00"> </text>
<text text-anchor="start" x="574.5" y="-1314" font-family="monospace" font-size="10.00">results/{dataset}/stellarscope/{samp}/{pmode,pseudobulk|individual|celltype}&#45;TE_counts.best_average.mtx</text>
<text text-anchor="start" x="574.5" y="-1296" font-family="monospace" font-size="10.00">results/{dataset}/stellarscope/{samp}/{pmode,pseudobulk|individual|celltype}&#45;TE_counts.best_conf.mtx</text>
<text text-anchor="start" x="574.5" y="-1278" font-family="monospace" font-size="10.00">results/{dataset}/stellarscope/{samp}/{pmode,pseudobulk|individual|celltype}&#45;TE_counts.best_random.mtx</text>
<text text-anchor="start" x="574.5" y="-1260" font-family="monospace" font-size="10.00">results/{dataset}/stellarscope/{samp}/{pmode,pseudobulk|individual|celltype}&#45;TE_counts.initial_random.mtx</text>
<text text-anchor="start" x="574.5" y="-1242" font-family="monospace" font-size="10.00">results/{dataset}/stellarscope/{samp}/{pmode,pseudobulk|individual|celltype}&#45;TE_counts.initial_unique.mtx</text>
<text text-anchor="start" x="574.5" y="-1224" font-family="monospace" font-size="10.00">results/{dataset}/stellarscope/{samp}/{pmode,pseudobulk|individual|celltype}&#45;TE_counts.mtx</text>
<text text-anchor="start" x="574.5" y="-1206" font-family="monospace" font-size="10.00">results/{dataset}/stellarscope/{samp}/{pmode,pseudobulk|individual|celltype}&#45;TE_counts.total_hits.mtx</text>
<text text-anchor="start" x="574.5" y="-1188" font-family="monospace" font-size="10.00">results/{dataset}/stellarscope/{samp}/{pmode,pseudobulk|individual|celltype}&#45;barcodes.tsv</text>
<text text-anchor="start" x="574.5" y="-1170" font-family="monospace" font-size="10.00">results/{dataset}/stellarscope/{samp}/{pmode,pseudobulk|individual|celltype}&#45;checkpoint.final.pickle</text>
<text text-anchor="start" x="574.5" y="-1152" font-family="monospace" font-size="10.00">results/{dataset}/stellarscope/{samp}/{pmode,pseudobulk|individual|celltype}&#45;features.tsv</text>
<text text-anchor="start" x="574.5" y="-1134" font-family="monospace" font-size="10.00">results/{dataset}/stellarscope/{samp}/{pmode,pseudobulk|individual|celltype}&#45;stats.final.tsv</text>
<polygon fill="#57c4d9" stroke="#57c4d9" points="568.5,-1406 568.5,-1406 1212.5,-1406 1212.5,-1406 568.5,-1406"/>
<polygon fill="#57c4d9" stroke="#57c4d9" points="568.5,-1348 568.5,-1348 1212.5,-1348 1212.5,-1348 568.5,-1348"/>
<polygon fill="none" stroke="#57c4d9" stroke-width="2" points="568,-1125 568,-1435 1211,-1435 1211,-1125 568,-1125"/>
</g>
<!-- 5&#45;&gt;4 -->
<g id="edge6" class="edge">
<title>5&#45;&gt;4</title>
<path fill="none" stroke="grey" stroke-width="2" d="M889.5,-1123.6C889.5,-1115.07 889.5,-1106.6 889.5,-1098.28"/>
<polygon fill="grey" stroke="grey" stroke-width="2" points="893,-1098.22 889.5,-1088.22 886,-1098.22 893,-1098.22"/>
</g>
<!-- 6 -->
<g id="node7" class="node">
<title>6</title>
<text text-anchor="start" x="523" y="-1637.6" font-family="sans" font-weight="bold" font-size="18.00">stellarscope_load</text>
<text text-anchor="start" x="378.5" y="-1613.8" font-family="sans" font-size="10.00"> </text>
<text text-anchor="start" x="382.5" y="-1613.8" font-family="sans" font-weight="bold" font-size="14.00">↪ input</text>
<text text-anchor="start" x="440.5" y="-1613.8" font-family="sans" font-size="10.00"> </text>
<text text-anchor="start" x="378.5" y="-1594" font-family="monospace" font-size="10.00">resources/retro.hg38.v1.gtf</text>
<text text-anchor="start" x="378.5" y="-1576" font-family="monospace" font-size="10.00">results/{dataset}/canonicalQC/{samp}/scrublet/SCR.barcodes.pass.tsv</text>
<text text-anchor="start" x="378.5" y="-1558" font-family="monospace" font-size="10.00">results/{dataset}/stellarscope/{samp}/Aligned.sortedByCB.bam</text>
<text text-anchor="start" x="763.5" y="-1537.8" font-family="sans" font-size="10.00"> </text>
<text text-anchor="start" x="767.5" y="-1537.8" font-family="sans" font-weight="bold" font-size="14.00">output →</text>
<text text-anchor="start" x="837.5" y="-1537.8" font-family="sans" font-size="10.00"> </text>
<text text-anchor="start" x="378.5" y="-1518" font-family="monospace" font-size="10.00">results/{dataset}/stellarscope/{samp}/stload&#45;checkpoint.dedup_umi.pickle</text>
<text text-anchor="start" x="378.5" y="-1500" font-family="monospace" font-size="10.00">results/{dataset}/stellarscope/{samp}/stload&#45;checkpoint.load_alignment.pickle</text>
<text text-anchor="start" x="378.5" y="-1482" font-family="monospace" font-size="10.00">results/{dataset}/stellarscope/{samp}/stload&#45;stats.final.tsv</text>
<polygon fill="#64d957" stroke="#64d957" points="372.5,-1628 372.5,-1628 848.5,-1628 848.5,-1628 372.5,-1628"/>
<polygon fill="#64d957" stroke="#64d957" points="372.5,-1552 372.5,-1552 848.5,-1552 848.5,-1552 372.5,-1552"/>
<polygon fill="none" stroke="#64d957" stroke-width="2" points="372,-1473 372,-1657 847,-1657 847,-1473 372,-1473"/>
</g>
<!-- 6&#45;&gt;5 -->
<g id="edge9" class="edge">
<title>6&#45;&gt;5</title>
<path fill="none" stroke="grey" stroke-width="2" d="M700.8,-1471.73C709.82,-1462.6 719.16,-1453.16 728.63,-1443.59"/>
<polygon fill="grey" stroke="grey" stroke-width="2" points="731.35,-1445.82 735.89,-1436.25 726.37,-1440.9 731.35,-1445.82"/>
</g>
<!-- 15 -->
<g id="node16" class="node">
<title>15</title>
<text text-anchor="start" x="127.5" y="-1415.6" font-family="sans" font-weight="bold" font-size="18.00">stellarscope_resume_celltype</text>
<text text-anchor="start" x="7.5" y="-1391.8" font-family="sans" font-size="10.00"> </text>
<text text-anchor="start" x="11.5" y="-1391.8" font-family="sans" font-weight="bold" font-size="14.00">↪ input</text>
<text text-anchor="start" x="69.5" y="-1391.8" font-family="sans" font-size="10.00"> </text>
<text text-anchor="start" x="7.5" y="-1372" font-family="monospace" font-size="10.00">&lt;input function&gt;</text>
<text text-anchor="start" x="7.5" y="-1354" font-family="monospace" font-size="10.00">results/{dataset}/stellarscope/{samp}/stload&#45;checkpoint.dedup_umi.pickle</text>
<text text-anchor="start" x="464.5" y="-1333.8" font-family="sans" font-size="10.00"> </text>
<text text-anchor="start" x="468.5" y="-1333.8" font-family="sans" font-weight="bold" font-size="14.00">output →</text>
<text text-anchor="start" x="538.5" y="-1333.8" font-family="sans" font-size="10.00"> </text>
<text text-anchor="start" x="7.5" y="-1314" font-family="monospace" font-size="10.00">results/{dataset}/stellarscope/{samp}/celltype.{lvl,(l1|l3)}&#45;TE_counts.best_average.mtx</text>
<text text-anchor="start" x="7.5" y="-1296" font-family="monospace" font-size="10.00">results/{dataset}/stellarscope/{samp}/celltype.{lvl,(l1|l3)}&#45;TE_counts.best_conf.mtx</text>
<text text-anchor="start" x="7.5" y="-1278" font-family="monospace" font-size="10.00">results/{dataset}/stellarscope/{samp}/celltype.{lvl,(l1|l3)}&#45;TE_counts.best_random.mtx</text>
<text text-anchor="start" x="7.5" y="-1260" font-family="monospace" font-size="10.00">results/{dataset}/stellarscope/{samp}/celltype.{lvl,(l1|l3)}&#45;TE_counts.initial_random.mtx</text>
<text text-anchor="start" x="7.5" y="-1242" font-family="monospace" font-size="10.00">results/{dataset}/stellarscope/{samp}/celltype.{lvl,(l1|l3)}&#45;TE_counts.initial_unique.mtx</text>
<text text-anchor="start" x="7.5" y="-1224" font-family="monospace" font-size="10.00">results/{dataset}/stellarscope/{samp}/celltype.{lvl,(l1|l3)}&#45;TE_counts.mtx</text>
<text text-anchor="start" x="7.5" y="-1206" font-family="monospace" font-size="10.00">results/{dataset}/stellarscope/{samp}/celltype.{lvl,(l1|l3)}&#45;TE_counts.total_hits.mtx</text>
<text text-anchor="start" x="7.5" y="-1188" font-family="monospace" font-size="10.00">results/{dataset}/stellarscope/{samp}/celltype.{lvl,(l1|l3)}&#45;barcodes.tsv</text>
<text text-anchor="start" x="7.5" y="-1170" font-family="monospace" font-size="10.00">results/{dataset}/stellarscope/{samp}/celltype.{lvl,(l1|l3)}&#45;checkpoint.final.pickle</text>
<text text-anchor="start" x="7.5" y="-1152" font-family="monospace" font-size="10.00">results/{dataset}/stellarscope/{samp}/celltype.{lvl,(l1|l3)}&#45;features.tsv</text>
<text text-anchor="start" x="7.5" y="-1134" font-family="monospace" font-size="10.00">results/{dataset}/stellarscope/{samp}/celltype.{lvl,(l1|l3)}&#45;stats.final.tsv</text>
<polygon fill="#9bd957" stroke="#9bd957" points="1.5,-1406 1.5,-1406 549.5,-1406 549.5,-1406 1.5,-1406"/>
<polygon fill="#9bd957" stroke="#9bd957" points="1.5,-1348 1.5,-1348 549.5,-1348 549.5,-1348 1.5,-1348"/>
<polygon fill="none" stroke="#9bd957" stroke-width="2" points="1,-1125 1,-1435 548,-1435 548,-1125 1,-1125"/>
</g>
<!-- 6&#45;&gt;15 -->
<g id="edge21" class="edge">
<title>6&#45;&gt;15</title>
<path fill="none" stroke="grey" stroke-width="2" d="M500.27,-1471.73C489.15,-1462.33 477.64,-1452.61 465.97,-1442.75"/>
<polygon fill="grey" stroke="grey" stroke-width="2" points="468.18,-1440.03 458.28,-1436.25 463.66,-1445.38 468.18,-1440.03"/>
</g>
<!-- 7 -->
<g id="node8" class="node">
<title>7</title>
<text text-anchor="start" x="526.5" y="-1805.6" font-family="sans" font-weight="bold" font-size="18.00">stellarscope_cellsort</text>
<text text-anchor="start" x="403.5" y="-1781.8" font-family="sans" font-size="10.00"> </text>
<text text-anchor="start" x="407.5" y="-1781.8" font-family="sans" font-weight="bold" font-size="14.00">↪ input</text>
<text text-anchor="start" x="465.5" y="-1781.8" font-family="sans" font-size="10.00"> </text>
<text text-anchor="start" x="403.5" y="-1762" font-family="monospace" font-size="10.00">results/{dataset}/align_multi_starsolo/{samp}/Aligned.sortedByCoord.out.bam</text>
<text text-anchor="start" x="403.5" y="-1744" font-family="monospace" font-size="10.00">results/{dataset}/canonicalQC/{samp}/scrublet/SCR.barcodes.pass.tsv</text>
<text text-anchor="start" x="776.5" y="-1723.8" font-family="sans" font-size="10.00"> </text>
<text text-anchor="start" x="780.5" y="-1723.8" font-family="sans" font-weight="bold" font-size="14.00">output →</text>
<text text-anchor="start" x="850.5" y="-1723.8" font-family="sans" font-size="10.00"> </text>
<text text-anchor="start" x="403.5" y="-1704" font-family="monospace" font-size="10.00">results/{dataset}/stellarscope/{samp}/Aligned.sortedByCB.bam</text>
<polygon fill="#80d957" stroke="#80d957" points="397.5,-1796 397.5,-1796 861.5,-1796 861.5,-1796 397.5,-1796"/>
<polygon fill="#80d957" stroke="#80d957" points="397.5,-1738 397.5,-1738 861.5,-1738 861.5,-1738 397.5,-1738"/>
<polygon fill="none" stroke="#80d957" stroke-width="2" points="397,-1695 397,-1825 860,-1825 860,-1695 397,-1695"/>
</g>
<!-- 7&#45;&gt;6 -->
<g id="edge10" class="edge">
<title>7&#45;&gt;6</title>
<path fill="none" stroke="grey" stroke-width="2" d="M622.09,-1693.93C621.28,-1685.67 620.43,-1677.07 619.58,-1668.4"/>
<polygon fill="grey" stroke="grey" stroke-width="2" points="623.04,-1667.82 618.58,-1658.21 616.07,-1668.51 623.04,-1667.82"/>
</g>
<!-- 8 -->
<g id="node9" class="node">
<title>8</title>
<text text-anchor="start" x="828" y="-2825.6" font-family="sans" font-weight="bold" font-size="18.00">align_multi_starsolo</text>
<text text-anchor="start" x="684.5" y="-2801.8" font-family="sans" font-size="10.00"> </text>
<text text-anchor="start" x="688.5" y="-2801.8" font-family="sans" font-weight="bold" font-size="14.00">↪ input</text>
<text text-anchor="start" x="746.5" y="-2801.8" font-family="sans" font-size="10.00"> </text>
<text text-anchor="start" x="684.5" y="-2782" font-family="monospace" font-size="10.00">&lt;input function&gt;</text>
<text text-anchor="start" x="1093.5" y="-2761.8" font-family="sans" font-size="10.00"> </text>
<text text-anchor="start" x="1097.5" y="-2761.8" font-family="sans" font-weight="bold" font-size="14.00">output →</text>
<text text-anchor="start" x="1167.5" y="-2761.8" font-family="sans" font-size="10.00"> </text>
<text text-anchor="start" x="684.5" y="-2742" font-family="monospace" font-size="10.00">results/{dataset}/align_multi_starsolo/{samp}/Aligned.sortedByCoord.out.bam</text>
<text text-anchor="start" x="684.5" y="-2724" font-family="monospace" font-size="10.00">results/{dataset}/align_multi_starsolo/{samp}/Solo.out/Gene/filtered/barcodes.tsv</text>
<text text-anchor="start" x="684.5" y="-2706" font-family="monospace" font-size="10.00">results/{dataset}/align_multi_starsolo/{samp}/Solo.out/Gene/filtered/features.tsv</text>
<text text-anchor="start" x="684.5" y="-2688" font-family="monospace" font-size="10.00">results/{dataset}/align_multi_starsolo/{samp}/Solo.out/Gene/filtered/matrix.mtx</text>
<polygon fill="#d98d57" stroke="#d98d57" points="678.5,-2816 678.5,-2816 1178.5,-2816 1178.5,-2816 678.5,-2816"/>
<polygon fill="#d98d57" stroke="#d98d57" points="678.5,-2776 678.5,-2776 1178.5,-2776 1178.5,-2776 678.5,-2776"/>
<polygon fill="none" stroke="#d98d57" stroke-width="2" points="678,-2679 678,-2845 1177,-2845 1177,-2679 678,-2679"/>
</g>
<!-- 8&#45;&gt;4 -->
<g id="edge7" class="edge">
<title>8&#45;&gt;4</title>
<path fill="none" stroke="grey" stroke-width="2" d="M1047.24,-2677.92C1135.22,-2606.16 1239.5,-2493.74 1239.5,-2364 1239.5,-2364 1239.5,-2364 1239.5,-1564 1239.5,-1368.26 1332.75,-1284.35 1220.5,-1124 1210.9,-1110.29 1199.66,-1097.94 1187.23,-1086.83"/>
<polygon fill="grey" stroke="grey" stroke-width="2" points="1189.21,-1083.92 1179.34,-1080.07 1184.66,-1089.24 1189.21,-1083.92"/>
</g>
<!-- 8&#45;&gt;7 -->
<g id="edge12" class="edge">
<title>8&#45;&gt;7</title>
<path fill="none" stroke="grey" stroke-width="2" d="M927.5,-2677.74C927.5,-2597.41 927.5,-2472.38 927.5,-2364 927.5,-2364 927.5,-2364 927.5,-2176 927.5,-2033.3 950.8,-1972.49 860.5,-1862 851.41,-1850.88 840.85,-1840.95 829.36,-1832.09"/>
<polygon fill="grey" stroke="grey" stroke-width="2" points="831.38,-1829.23 821.26,-1826.12 827.23,-1834.87 831.38,-1829.23"/>
</g>
<!-- 14 -->
<g id="node15" class="node">
<title>14</title>
<text text-anchor="start" x="610.5" y="-2621.6" font-family="sans" font-weight="bold" font-size="18.00">cell_qc</text>
<text text-anchor="start" x="400.5" y="-2597.8" font-family="sans" font-size="10.00"> </text>
<text text-anchor="start" x="404.5" y="-2597.8" font-family="sans" font-weight="bold" font-size="14.00">↪ input</text>
<text text-anchor="start" x="462.5" y="-2597.8" font-family="sans" font-size="10.00"> </text>
<text text-anchor="start" x="400.5" y="-2578" font-family="monospace" font-size="10.00">results/{dataset}/align_multi_starsolo/{samp}/Solo.out/Gene/filtered/barcodes.tsv</text>
<text text-anchor="start" x="400.5" y="-2560" font-family="monospace" font-size="10.00">results/{dataset}/align_multi_starsolo/{samp}/Solo.out/Gene/filtered/features.tsv</text>
<text text-anchor="start" x="400.5" y="-2542" font-family="monospace" font-size="10.00">results/{dataset}/align_multi_starsolo/{samp}/Solo.out/Gene/filtered/matrix.mtx</text>
<text text-anchor="start" x="809.5" y="-2521.8" font-family="sans" font-size="10.00"> </text>
<text text-anchor="start" x="813.5" y="-2521.8" font-family="sans" font-weight="bold" font-size="14.00">output →</text>
<text text-anchor="start" x="883.5" y="-2521.8" font-family="sans" font-size="10.00"> </text>
<text text-anchor="start" x="400.5" y="-2502" font-family="monospace" font-size="10.00">results/{dataset}/canonicalQC/{samp}/barcodes.pass.tsv</text>
<text text-anchor="start" x="400.5" y="-2484" font-family="monospace" font-size="10.00">results/{dataset}/canonicalQC/{samp}/tx_seurat.cell_qc.rds</text>
<polygon fill="#d95757" stroke="#d95757" points="394.5,-2612 394.5,-2612 894.5,-2612 894.5,-2612 394.5,-2612"/>
<polygon fill="#d95757" stroke="#d95757" points="394.5,-2536 394.5,-2536 894.5,-2536 894.5,-2536 394.5,-2536"/>
<polygon fill="none" stroke="#d95757" stroke-width="2" points="394,-2475 394,-2641 893,-2641 893,-2475 394,-2475"/>
</g>
<!-- 8&#45;&gt;14 -->
<g id="edge19" class="edge">
<title>8&#45;&gt;14</title>
<path fill="none" stroke="grey" stroke-width="2" d="M810.76,-2677.96C796.82,-2668.05 782.54,-2657.9 768.49,-2647.9"/>
<polygon fill="grey" stroke="grey" stroke-width="2" points="770.43,-2644.98 760.25,-2642.04 766.37,-2650.69 770.43,-2644.98"/>
</g>
<!-- 9 -->
<g id="node10" class="node">
<title>9</title>
<text text-anchor="start" x="867.5" y="-2993.6" font-family="sans" font-weight="bold" font-size="18.00">sra_to_fastq</text>
<text text-anchor="start" x="732.5" y="-2969.8" font-family="sans" font-size="10.00"> </text>
<text text-anchor="start" x="736.5" y="-2969.8" font-family="sans" font-weight="bold" font-size="14.00">↪ input</text>
<text text-anchor="start" x="794.5" y="-2969.8" font-family="sans" font-size="10.00"> </text>
<text text-anchor="start" x="732.5" y="-2950" font-family="monospace" font-size="10.00">results/{dataset}/sra/{samp}/{sra_run}.sra</text>
<text text-anchor="start" x="1045.5" y="-2929.8" font-family="sans" font-size="10.00"> </text>
<text text-anchor="start" x="1049.5" y="-2929.8" font-family="sans" font-weight="bold" font-size="14.00">output →</text>
<text text-anchor="start" x="1119.5" y="-2929.8" font-family="sans" font-size="10.00"> </text>
<text text-anchor="start" x="732.5" y="-2910" font-family="monospace" font-size="10.00">results/{dataset}/fastq/{samp}/{sra_run,SRR[0&#45;9]{6,9}}_1.fastq.gz</text>
<text text-anchor="start" x="732.5" y="-2892" font-family="monospace" font-size="10.00">results/{dataset}/fastq/{samp}/{sra_run,SRR[0&#45;9]{6,9}}_2.fastq.gz</text>
<polygon fill="#57d980" stroke="#57d980" points="726.5,-2984 726.5,-2984 1130.5,-2984 1130.5,-2984 726.5,-2984"/>
<polygon fill="#57d980" stroke="#57d980" points="726.5,-2944 726.5,-2944 1130.5,-2944 1130.5,-2944 726.5,-2944"/>
<polygon fill="none" stroke="#57d980" stroke-width="2" points="726,-2883 726,-3013 1129,-3013 1129,-2883 726,-2883"/>
</g>
<!-- 9&#45;&gt;8 -->
<g id="edge14" class="edge">
<title>9&#45;&gt;8</title>
<path fill="none" stroke="grey" stroke-width="2" d="M927.5,-2881.87C927.5,-2873.55 927.5,-2864.9 927.5,-2856.25"/>
<polygon fill="grey" stroke="grey" stroke-width="2" points="931,-2856.09 927.5,-2846.09 924,-2856.09 931,-2856.09"/>
</g>
<!-- 10 -->
<g id="node11" class="node">
<title>10</title>
<text text-anchor="start" x="865" y="-3121.6" font-family="sans" font-weight="bold" font-size="18.00">prefetch_sra</text>
<text text-anchor="start" x="759.5" y="-3100" font-family="sans" font-size="10.00"> &#160;</text>
<text text-anchor="start" x="1018.5" y="-3079.8" font-family="sans" font-size="10.00"> </text>
<text text-anchor="start" x="1022.5" y="-3079.8" font-family="sans" font-weight="bold" font-size="14.00">output →</text>
<text text-anchor="start" x="1092.5" y="-3079.8" font-family="sans" font-size="10.00"> </text>
<text text-anchor="start" x="759.5" y="-3060" font-family="monospace" font-size="10.00">results/{dataset}/sra/{samp}/{sra_run,SRR[0&#45;9]{6,9}}.sra</text>
<polygon fill="#578dd9" stroke="#578dd9" points="753.5,-3112 753.5,-3112 1103.5,-3112 1103.5,-3112 753.5,-3112"/>
<polygon fill="#578dd9" stroke="#578dd9" points="753.5,-3094 753.5,-3094 1103.5,-3094 1103.5,-3094 753.5,-3094"/>
<polygon fill="none" stroke="#578dd9" stroke-width="2" points="753,-3051 753,-3141 1102,-3141 1102,-3051 753,-3051"/>
</g>
<!-- 10&#45;&gt;9 -->
<g id="edge15" class="edge">
<title>10&#45;&gt;9</title>
<path fill="none" stroke="grey" stroke-width="2" d="M927.5,-3049.61C927.5,-3041.54 927.5,-3032.95 927.5,-3024.32"/>
<polygon fill="grey" stroke="grey" stroke-width="2" points="931,-3024.2 927.5,-3014.2 924,-3024.2 931,-3024.2"/>
</g>
<!-- 11 -->
<g id="node12" class="node">
<title>11</title>
<text text-anchor="start" x="588" y="-2045.6" font-family="sans" font-weight="bold" font-size="18.00">scrublet</text>
<text text-anchor="start" x="412.5" y="-2021.8" font-family="sans" font-size="10.00"> </text>
<text text-anchor="start" x="416.5" y="-2021.8" font-family="sans" font-weight="bold" font-size="14.00">↪ input</text>
<text text-anchor="start" x="474.5" y="-2021.8" font-family="sans" font-size="10.00"> </text>
<text text-anchor="start" x="412.5" y="-2002" font-family="monospace" font-size="10.00">results/{dataset}/canonicalQC/{samp}/tx_seurat.mapped.barcodes.tsv</text>
<text text-anchor="start" x="412.5" y="-1984" font-family="monospace" font-size="10.00">results/{dataset}/canonicalQC/{samp}/tx_seurat.mapped.counts.mtx</text>
<text text-anchor="start" x="412.5" y="-1966" font-family="monospace" font-size="10.00">results/{dataset}/canonicalQC/{samp}/tx_seurat.mapped.features.tsv</text>
<text text-anchor="start" x="767.5" y="-1945.8" font-family="sans" font-size="10.00"> </text>
<text text-anchor="start" x="771.5" y="-1945.8" font-family="sans" font-weight="bold" font-size="14.00">output →</text>
<text text-anchor="start" x="841.5" y="-1945.8" font-family="sans" font-size="10.00"> </text>
<text text-anchor="start" x="412.5" y="-1926" font-family="monospace" font-size="10.00">results/{dataset}/canonicalQC/{samp}/scrublet/SCR.barcodes.pass.tsv</text>
<text text-anchor="start" x="412.5" y="-1908" font-family="monospace" font-size="10.00">results/{dataset}/canonicalQC/{samp}/scrublet/SCR.predictions_all.tsv</text>
<text text-anchor="start" x="412.5" y="-1890" font-family="monospace" font-size="10.00">results/{dataset}/canonicalQC/{samp}/scrublet/SCR.predictions_single.tsv</text>
<text text-anchor="start" x="412.5" y="-1872" font-family="monospace" font-size="10.00">results/{dataset}/canonicalQC/{samp}/scrublet/SCR.summary.txt</text>
<polygon fill="#b7d957" stroke="#b7d957" points="406.5,-2036 406.5,-2036 852.5,-2036 852.5,-2036 406.5,-2036"/>
<polygon fill="#b7d957" stroke="#b7d957" points="406.5,-1960 406.5,-1960 852.5,-1960 852.5,-1960 406.5,-1960"/>
<polygon fill="none" stroke="#b7d957" stroke-width="2" points="406,-1863 406,-2065 851,-2065 851,-1863 406,-1863"/>
</g>
<!-- 11&#45;&gt;6 -->
<g id="edge11" class="edge">
<title>11&#45;&gt;6</title>
<path fill="none" stroke="grey" stroke-width="2" d="M414.01,-1861.76C403.45,-1850.93 394.1,-1839.03 386.5,-1826 356.95,-1775.32 357.1,-1744.77 386.5,-1694 392.38,-1683.84 399.41,-1674.42 407.28,-1665.69"/>
<polygon fill="grey" stroke="grey" stroke-width="2" points="410.06,-1667.85 414.41,-1658.19 404.99,-1663.03 410.06,-1667.85"/>
</g>
<!-- 11&#45;&gt;7 -->
<g id="edge13" class="edge">
<title>11&#45;&gt;7</title>
<path fill="none" stroke="grey" stroke-width="2" d="M628.5,-1862C628.5,-1853.3 628.5,-1844.61 628.5,-1836.17"/>
<polygon fill="grey" stroke="grey" stroke-width="2" points="632,-1836.03 628.5,-1826.03 625,-1836.03 632,-1836.03"/>
</g>
<!-- 12 -->
<g id="node13" class="node">
<title>12</title>
<text text-anchor="start" x="526.5" y="-2231.6" font-family="sans" font-weight="bold" font-size="18.00">seurat_to_mtx_forscr</text>
<text text-anchor="start" x="432.5" y="-2207.8" font-family="sans" font-size="10.00"> </text>
<text text-anchor="start" x="436.5" y="-2207.8" font-family="sans" font-weight="bold" font-size="14.00">↪ input</text>
<text text-anchor="start" x="494.5" y="-2207.8" font-family="sans" font-size="10.00"> </text>
<text text-anchor="start" x="432.5" y="-2188" font-family="monospace" font-size="10.00">results/{dataset}/canonicalQC/{samp}/tx_seurat.mapped.rds</text>
<text text-anchor="start" x="751.5" y="-2167.8" font-family="sans" font-size="10.00"> </text>
<text text-anchor="start" x="755.5" y="-2167.8" font-family="sans" font-weight="bold" font-size="14.00">output →</text>
<text text-anchor="start" x="825.5" y="-2167.8" font-family="sans" font-size="10.00"> </text>
<text text-anchor="start" x="432.5" y="-2148" font-family="monospace" font-size="10.00">results/{dataset}/canonicalQC/{samp}/tx_seurat.mapped.barcodes.tsv</text>
<text text-anchor="start" x="432.5" y="-2130" font-family="monospace" font-size="10.00">results/{dataset}/canonicalQC/{samp}/tx_seurat.mapped.counts.mtx</text>
<text text-anchor="start" x="432.5" y="-2112" font-family="monospace" font-size="10.00">results/{dataset}/canonicalQC/{samp}/tx_seurat.mapped.features.tsv</text>
<polygon fill="#57d964" stroke="#57d964" points="426.5,-2222 426.5,-2222 836.5,-2222 836.5,-2222 426.5,-2222"/>
<polygon fill="#57d964" stroke="#57d964" points="426.5,-2182 426.5,-2182 836.5,-2182 836.5,-2182 426.5,-2182"/>
<polygon fill="none" stroke="#57d964" stroke-width="2" points="426,-2103 426,-2251 835,-2251 835,-2103 426,-2103"/>
</g>
<!-- 12&#45;&gt;11 -->
<g id="edge16" class="edge">
<title>12&#45;&gt;11</title>
<path fill="none" stroke="grey" stroke-width="2" d="M629.8,-2101.91C629.72,-2093.63 629.64,-2085.06 629.56,-2076.45"/>
<polygon fill="grey" stroke="grey" stroke-width="2" points="633.06,-2076.29 629.46,-2066.32 626.06,-2076.36 633.06,-2076.29"/>
</g>
<!-- 13 -->
<g id="node14" class="node">
<title>13</title>
<text text-anchor="start" x="501" y="-2417.6" font-family="sans" font-weight="bold" font-size="18.00">annotate_celltypes_azimuth</text>
<text text-anchor="start" x="454.5" y="-2393.8" font-family="sans" font-size="10.00"> </text>
<text text-anchor="start" x="458.5" y="-2393.8" font-family="sans" font-weight="bold" font-size="14.00">↪ input</text>
<text text-anchor="start" x="516.5" y="-2393.8" font-family="sans" font-size="10.00"> </text>
<text text-anchor="start" x="454.5" y="-2374" font-family="monospace" font-size="10.00">results/{dataset}/canonicalQC/{samp}/tx_seurat.cell_qc.rds</text>
<text text-anchor="start" x="749.5" y="-2353.8" font-family="sans" font-size="10.00"> </text>
<text text-anchor="start" x="753.5" y="-2353.8" font-family="sans" font-weight="bold" font-size="14.00">output →</text>
<text text-anchor="start" x="823.5" y="-2353.8" font-family="sans" font-size="10.00"> </text>
<text text-anchor="start" x="454.5" y="-2334" font-family="monospace" font-size="10.00">results/{dataset}/canonicalQC/{samp}/tonsilref.celltype.l1.tsv</text>
<text text-anchor="start" x="454.5" y="-2316" font-family="monospace" font-size="10.00">results/{dataset}/canonicalQC/{samp}/tonsilref.celltype.l2.tsv</text>
<text text-anchor="start" x="454.5" y="-2298" font-family="monospace" font-size="10.00">results/{dataset}/canonicalQC/{samp}/tx_seurat.mapped.rds</text>
<polygon fill="#d2d957" stroke="#d2d957" points="448.5,-2408 448.5,-2408 834.5,-2408 834.5,-2408 448.5,-2408"/>
<polygon fill="#d2d957" stroke="#d2d957" points="448.5,-2368 448.5,-2368 834.5,-2368 834.5,-2368 448.5,-2368"/>
<polygon fill="none" stroke="#d2d957" stroke-width="2" points="448,-2289 448,-2437 833,-2437 833,-2289 448,-2289"/>
</g>
<!-- 13&#45;&gt;5 -->
<g id="edge8" class="edge">
<title>13&#45;&gt;5</title>
<path fill="none" stroke="grey" stroke-width="2" d="M810.78,-2287.67C823.54,-2277.15 835.09,-2265.3 844.5,-2252 919.09,-2146.61 889.5,-2094.11 889.5,-1965 889.5,-1965 889.5,-1965 889.5,-1759 889.5,-1655.12 889.5,-1538.53 889.5,-1446.51"/>
<polygon fill="grey" stroke="grey" stroke-width="2" points="893,-1446.27 889.5,-1436.27 886,-1446.27 893,-1446.27"/>
</g>
<!-- 13&#45;&gt;12 -->
<g id="edge17" class="edge">
<title>13&#45;&gt;12</title>
<path fill="none" stroke="grey" stroke-width="2" d="M636.48,-2287.96C636.02,-2279.49 635.54,-2270.81 635.08,-2262.22"/>
<polygon fill="grey" stroke="grey" stroke-width="2" points="638.57,-2261.99 634.53,-2252.19 631.58,-2262.37 638.57,-2261.99"/>
</g>
<!-- 13&#45;&gt;15 -->
<g id="edge20" class="edge">
<title>13&#45;&gt;15</title>
<path fill="none" stroke="grey" stroke-width="2" d="M457.38,-2287.85C442.1,-2277.25 427.82,-2265.34 415.5,-2252 322.5,-2151.28 302.5,-2102.09 302.5,-1965 302.5,-1965 302.5,-1965 302.5,-1759 302.5,-1654.94 295.8,-1538.35 288.96,-1446.37"/>
<polygon fill="grey" stroke="grey" stroke-width="2" points="292.43,-1445.84 288.19,-1436.13 285.45,-1446.37 292.43,-1445.84"/>
</g>
<!-- 14&#45;&gt;13 -->
<g id="edge18" class="edge">
<title>14&#45;&gt;13</title>
<path fill="none" stroke="grey" stroke-width="2" d="M642.21,-2473.75C642.08,-2465.34 641.94,-2456.79 641.81,-2448.36"/>
<polygon fill="grey" stroke="grey" stroke-width="2" points="645.31,-2448.11 641.65,-2438.16 638.31,-2448.22 645.31,-2448.11"/>
</g>
<!-- 15&#45;&gt;4 -->
<g id="edge5" class="edge">
<title>15&#45;&gt;4</title>
<path fill="none" stroke="grey" stroke-width="2" d="M549.13,-1128.03C551.93,-1126.67 554.72,-1125.33 557.5,-1124 579.85,-1113.31 603.25,-1102.64 626.85,-1092.24"/>
<polygon fill="grey" stroke="grey" stroke-width="2" points="628.5,-1095.33 636.25,-1088.11 625.69,-1088.92 628.5,-1095.33"/>
</g>
</g>
</svg>
