<?xml version="1.0" encoding="UTF-8" standalone="no"?>
<!DOCTYPE svg PUBLIC "-//W3C//DTD SVG 1.1//EN"
 "http://www.w3.org/Graphics/SVG/1.1/DTD/svg11.dtd">
<!-- Generated by graphviz version 2.43.0 (0)
 -->
<!-- Title: snakemake_dag Pages: 1 -->
<svg width="354pt" height="1052pt"
 viewBox="0.00 0.00 354.00 1052.00" xmlns="http://www.w3.org/2000/svg" xmlns:xlink="http://www.w3.org/1999/xlink">
<g id="graph0" class="graph" transform="scale(1 1) rotate(0) translate(4 1048)">
<title>snakemake_dag</title>
<polygon fill="white" stroke="transparent" points="-4,4 -4,-1048 350,-1048 350,4 -4,4"/>
<!-- 0 -->
<g id="node1" class="node">
<title>0</title>
<path fill="none" stroke="#97d856" stroke-width="2" d="M254,-36C254,-36 224,-36 224,-36 218,-36 212,-30 212,-24 212,-24 212,-12 212,-12 212,-6 218,0 224,0 224,0 254,0 254,0 260,0 266,-6 266,-12 266,-12 266,-24 266,-24 266,-30 260,-36 254,-36"/>
<text text-anchor="middle" x="239" y="-15.5" font-family="sans" font-size="10.00">all</text>
</g>
<!-- 1 -->
<g id="node2" class="node">
<title>1</title>
<path fill="none" stroke="#56d863" stroke-width="2" d="M264.5,-108C264.5,-108 213.5,-108 213.5,-108 207.5,-108 201.5,-102 201.5,-96 201.5,-96 201.5,-84 201.5,-84 201.5,-78 207.5,-72 213.5,-72 213.5,-72 264.5,-72 264.5,-72 270.5,-72 276.5,-78 276.5,-84 276.5,-84 276.5,-96 276.5,-96 276.5,-102 270.5,-108 264.5,-108"/>
<text text-anchor="middle" x="239" y="-87.5" font-family="sans" font-size="10.00">sctransform</text>
</g>
<!-- 1&#45;&gt;0 -->
<g id="edge1" class="edge">
<title>1&#45;&gt;0</title>
<path fill="none" stroke="grey" stroke-width="2" d="M239,-71.7C239,-63.98 239,-54.71 239,-46.11"/>
<polygon fill="grey" stroke="grey" stroke-width="2" points="242.5,-46.1 239,-36.1 235.5,-46.1 242.5,-46.1"/>
</g>
<!-- 2 -->
<g id="node3" class="node">
<title>2</title>
<path fill="none" stroke="#d8ac56" stroke-width="2" d="M283,-180C283,-180 195,-180 195,-180 189,-180 183,-174 183,-168 183,-168 183,-156 183,-156 183,-150 189,-144 195,-144 195,-144 283,-144 283,-144 289,-144 295,-150 295,-156 295,-156 295,-168 295,-168 295,-174 289,-180 283,-180"/>
<text text-anchor="middle" x="239" y="-159.5" font-family="sans" font-size="10.00">aggregate_features</text>
</g>
<!-- 2&#45;&gt;1 -->
<g id="edge2" class="edge">
<title>2&#45;&gt;1</title>
<path fill="none" stroke="grey" stroke-width="2" d="M239,-143.7C239,-135.98 239,-126.71 239,-118.11"/>
<polygon fill="grey" stroke="grey" stroke-width="2" points="242.5,-118.1 239,-108.1 235.5,-118.1 242.5,-118.1"/>
</g>
<!-- 3 -->
<g id="node4" class="node">
<title>3</title>
<path fill="none" stroke="#56d8b9" stroke-width="2" d="M268.5,-252C268.5,-252 209.5,-252 209.5,-252 203.5,-252 197.5,-246 197.5,-240 197.5,-240 197.5,-228 197.5,-228 197.5,-222 203.5,-216 209.5,-216 209.5,-216 268.5,-216 268.5,-216 274.5,-216 280.5,-222 280.5,-228 280.5,-228 280.5,-240 280.5,-240 280.5,-246 274.5,-252 268.5,-252"/>
<text text-anchor="middle" x="239" y="-231.5" font-family="sans" font-size="10.00">map_azimuth</text>
</g>
<!-- 3&#45;&gt;2 -->
<g id="edge3" class="edge">
<title>3&#45;&gt;2</title>
<path fill="none" stroke="grey" stroke-width="2" d="M239,-215.7C239,-207.98 239,-198.71 239,-190.11"/>
<polygon fill="grey" stroke="grey" stroke-width="2" points="242.5,-190.1 239,-180.1 235.5,-190.1 242.5,-190.1"/>
</g>
<!-- 4 -->
<g id="node5" class="node">
<title>4</title>
<path fill="none" stroke="#56d882" stroke-width="2" d="M279,-324C279,-324 199,-324 199,-324 193,-324 187,-318 187,-312 187,-312 187,-300 187,-300 187,-294 193,-288 199,-288 199,-288 279,-288 279,-288 285,-288 291,-294 291,-300 291,-300 291,-312 291,-312 291,-318 285,-324 279,-324"/>
<text text-anchor="middle" x="239" y="-303.5" font-family="sans" font-size="10.00">create_seurat_obj</text>
</g>
<!-- 4&#45;&gt;3 -->
<g id="edge4" class="edge">
<title>4&#45;&gt;3</title>
<path fill="none" stroke="grey" stroke-width="2" d="M239,-287.7C239,-279.98 239,-270.71 239,-262.11"/>
<polygon fill="grey" stroke="grey" stroke-width="2" points="242.5,-262.1 239,-252.1 235.5,-262.1 242.5,-262.1"/>
</g>
<!-- 5 -->
<g id="node6" class="node">
<title>5</title>
<path fill="none" stroke="#d87556" stroke-width="2" d="M286,-396C286,-396 192,-396 192,-396 186,-396 180,-390 180,-384 180,-384 180,-372 180,-372 180,-366 186,-360 192,-360 192,-360 286,-360 286,-360 292,-360 298,-366 298,-372 298,-372 298,-384 298,-384 298,-390 292,-396 286,-396"/>
<text text-anchor="middle" x="239" y="-375.5" font-family="sans" font-size="10.00">stellarscope_resume</text>
</g>
<!-- 5&#45;&gt;4 -->
<g id="edge6" class="edge">
<title>5&#45;&gt;4</title>
<path fill="none" stroke="grey" stroke-width="2" d="M239,-359.7C239,-351.98 239,-342.71 239,-334.11"/>
<polygon fill="grey" stroke="grey" stroke-width="2" points="242.5,-334.1 239,-324.1 235.5,-334.1 242.5,-334.1"/>
</g>
<!-- 6 -->
<g id="node7" class="node">
<title>6</title>
<path fill="none" stroke="#ced856" stroke-width="2" d="M179,-468C179,-468 101,-468 101,-468 95,-468 89,-462 89,-456 89,-456 89,-444 89,-444 89,-438 95,-432 101,-432 101,-432 179,-432 179,-432 185,-432 191,-438 191,-444 191,-444 191,-456 191,-456 191,-462 185,-468 179,-468"/>
<text text-anchor="middle" x="140" y="-447.5" font-family="sans" font-size="10.00">stellarscope_load</text>
</g>
<!-- 6&#45;&gt;5 -->
<g id="edge9" class="edge">
<title>6&#45;&gt;5</title>
<path fill="none" stroke="grey" stroke-width="2" d="M164.22,-431.88C176.92,-422.89 192.66,-411.76 206.42,-402.03"/>
<polygon fill="grey" stroke="grey" stroke-width="2" points="208.54,-404.82 214.69,-396.19 204.5,-399.11 208.54,-404.82"/>
</g>
<!-- 15 -->
<g id="node16" class="node">
<title>15</title>
<path fill="none" stroke="#56d8d0" stroke-width="2" d="M150,-396C150,-396 12,-396 12,-396 6,-396 0,-390 0,-384 0,-384 0,-372 0,-372 0,-366 6,-360 12,-360 12,-360 150,-360 150,-360 156,-360 162,-366 162,-372 162,-372 162,-384 162,-384 162,-390 156,-396 150,-396"/>
<text text-anchor="middle" x="81" y="-375.5" font-family="sans" font-size="10.00">stellarscope_resume_celltype</text>
</g>
<!-- 6&#45;&gt;15 -->
<g id="edge21" class="edge">
<title>6&#45;&gt;15</title>
<path fill="none" stroke="grey" stroke-width="2" d="M125.42,-431.7C118.34,-423.3 109.72,-413.07 101.95,-403.86"/>
<polygon fill="grey" stroke="grey" stroke-width="2" points="104.54,-401.49 95.42,-396.1 99.19,-406.01 104.54,-401.49"/>
</g>
<!-- 7 -->
<g id="node8" class="node">
<title>7</title>
<path fill="none" stroke="#d8c356" stroke-width="2" d="M209.5,-540C209.5,-540 116.5,-540 116.5,-540 110.5,-540 104.5,-534 104.5,-528 104.5,-528 104.5,-516 104.5,-516 104.5,-510 110.5,-504 116.5,-504 116.5,-504 209.5,-504 209.5,-504 215.5,-504 221.5,-510 221.5,-516 221.5,-516 221.5,-528 221.5,-528 221.5,-534 215.5,-540 209.5,-540"/>
<text text-anchor="middle" x="163" y="-519.5" font-family="sans" font-size="10.00">stellarscope_cellsort</text>
</g>
<!-- 7&#45;&gt;6 -->
<g id="edge11" class="edge">
<title>7&#45;&gt;6</title>
<path fill="none" stroke="grey" stroke-width="2" d="M157.31,-503.7C154.75,-495.9 151.67,-486.51 148.82,-477.83"/>
<polygon fill="grey" stroke="grey" stroke-width="2" points="152.07,-476.51 145.62,-468.1 145.42,-478.7 152.07,-476.51"/>
</g>
<!-- 8 -->
<g id="node9" class="node">
<title>8</title>
<path fill="none" stroke="#d88d56" stroke-width="2" d="M334,-900C334,-900 242,-900 242,-900 236,-900 230,-894 230,-888 230,-888 230,-876 230,-876 230,-870 236,-864 242,-864 242,-864 334,-864 334,-864 340,-864 346,-870 346,-876 346,-876 346,-888 346,-888 346,-894 340,-900 334,-900"/>
<text text-anchor="middle" x="288" y="-879.5" font-family="sans" font-size="10.00">align_multi_starsolo</text>
</g>
<!-- 8&#45;&gt;4 -->
<g id="edge5" class="edge">
<title>8&#45;&gt;4</title>
<path fill="none" stroke="grey" stroke-width="2" d="M295.69,-863.91C306.79,-837.62 326,-785.45 326,-739 326,-739 326,-739 326,-449 326,-408.55 328.47,-394.28 307,-360 299.66,-348.27 288.75,-338.11 277.81,-329.9"/>
<polygon fill="grey" stroke="grey" stroke-width="2" points="279.68,-326.94 269.5,-324.01 275.64,-332.65 279.68,-326.94"/>
</g>
<!-- 8&#45;&gt;7 -->
<g id="edge12" class="edge">
<title>8&#45;&gt;7</title>
<path fill="none" stroke="grey" stroke-width="2" d="M288,-863.95C288,-837.29 288,-784.11 288,-739 288,-739 288,-739 288,-665 288,-612.4 239.07,-570.03 202.44,-545.69"/>
<polygon fill="grey" stroke="grey" stroke-width="2" points="204.2,-542.66 193.9,-540.18 200.41,-548.54 204.2,-542.66"/>
</g>
<!-- 14 -->
<g id="node15" class="node">
<title>14</title>
<path fill="none" stroke="#568ad8" stroke-width="2" d="M218,-828C218,-828 188,-828 188,-828 182,-828 176,-822 176,-816 176,-816 176,-804 176,-804 176,-798 182,-792 188,-792 188,-792 218,-792 218,-792 224,-792 230,-798 230,-804 230,-804 230,-816 230,-816 230,-822 224,-828 218,-828"/>
<text text-anchor="middle" x="203" y="-807.5" font-family="sans" font-size="10.00">cell_qc</text>
</g>
<!-- 8&#45;&gt;14 -->
<g id="edge19" class="edge">
<title>8&#45;&gt;14</title>
<path fill="none" stroke="grey" stroke-width="2" d="M266.99,-863.7C256.28,-854.88 243.11,-844.03 231.5,-834.47"/>
<polygon fill="grey" stroke="grey" stroke-width="2" points="233.71,-831.76 223.77,-828.1 229.26,-837.16 233.71,-831.76"/>
</g>
<!-- 9 -->
<g id="node10" class="node">
<title>9</title>
<path fill="none" stroke="#56d89a" stroke-width="2" d="M314.5,-972C314.5,-972 261.5,-972 261.5,-972 255.5,-972 249.5,-966 249.5,-960 249.5,-960 249.5,-948 249.5,-948 249.5,-942 255.5,-936 261.5,-936 261.5,-936 314.5,-936 314.5,-936 320.5,-936 326.5,-942 326.5,-948 326.5,-948 326.5,-960 326.5,-960 326.5,-966 320.5,-972 314.5,-972"/>
<text text-anchor="middle" x="288" y="-951.5" font-family="sans" font-size="10.00">sra_to_fastq</text>
</g>
<!-- 9&#45;&gt;8 -->
<g id="edge14" class="edge">
<title>9&#45;&gt;8</title>
<path fill="none" stroke="grey" stroke-width="2" d="M288,-935.7C288,-927.98 288,-918.71 288,-910.11"/>
<polygon fill="grey" stroke="grey" stroke-width="2" points="291.5,-910.1 288,-900.1 284.5,-910.1 291.5,-910.1"/>
</g>
<!-- 10 -->
<g id="node11" class="node">
<title>10</title>
<path fill="none" stroke="#d85656" stroke-width="2" d="M314.5,-1044C314.5,-1044 261.5,-1044 261.5,-1044 255.5,-1044 249.5,-1038 249.5,-1032 249.5,-1032 249.5,-1020 249.5,-1020 249.5,-1014 255.5,-1008 261.5,-1008 261.5,-1008 314.5,-1008 314.5,-1008 320.5,-1008 326.5,-1014 326.5,-1020 326.5,-1020 326.5,-1032 326.5,-1032 326.5,-1038 320.5,-1044 314.5,-1044"/>
<text text-anchor="middle" x="288" y="-1023.5" font-family="sans" font-size="10.00">prefetch_sra</text>
</g>
<!-- 10&#45;&gt;9 -->
<g id="edge15" class="edge">
<title>10&#45;&gt;9</title>
<path fill="none" stroke="grey" stroke-width="2" d="M288,-1007.7C288,-999.98 288,-990.71 288,-982.11"/>
<polygon fill="grey" stroke="grey" stroke-width="2" points="291.5,-982.1 288,-972.1 284.5,-982.1 291.5,-982.1"/>
</g>
<!-- 11 -->
<g id="node12" class="node">
<title>11</title>
<path fill="none" stroke="#56a9d8" stroke-width="2" d="M178,-612C178,-612 146,-612 146,-612 140,-612 134,-606 134,-600 134,-600 134,-588 134,-588 134,-582 140,-576 146,-576 146,-576 178,-576 178,-576 184,-576 190,-582 190,-588 190,-588 190,-600 190,-600 190,-606 184,-612 178,-612"/>
<text text-anchor="middle" x="162" y="-591.5" font-family="sans" font-size="10.00">scrublet</text>
</g>
<!-- 11&#45;&gt;6 -->
<g id="edge10" class="edge">
<title>11&#45;&gt;6</title>
<path fill="none" stroke="grey" stroke-width="2" d="M133.67,-578.68C119.24,-569.71 103.08,-556.69 95,-540 88.03,-525.6 89.48,-519.02 95,-504 98.78,-493.7 105.56,-484.02 112.72,-475.84"/>
<polygon fill="grey" stroke="grey" stroke-width="2" points="115.34,-478.16 119.62,-468.47 110.23,-473.38 115.34,-478.16"/>
</g>
<!-- 11&#45;&gt;7 -->
<g id="edge13" class="edge">
<title>11&#45;&gt;7</title>
<path fill="none" stroke="grey" stroke-width="2" d="M162.25,-575.7C162.36,-567.98 162.49,-558.71 162.61,-550.11"/>
<polygon fill="grey" stroke="grey" stroke-width="2" points="166.11,-550.15 162.76,-540.1 159.11,-550.05 166.11,-550.15"/>
</g>
<!-- 12 -->
<g id="node13" class="node">
<title>12</title>
<path fill="none" stroke="#80d856" stroke-width="2" d="M210,-684C210,-684 114,-684 114,-684 108,-684 102,-678 102,-672 102,-672 102,-660 102,-660 102,-654 108,-648 114,-648 114,-648 210,-648 210,-648 216,-648 222,-654 222,-660 222,-660 222,-672 222,-672 222,-678 216,-684 210,-684"/>
<text text-anchor="middle" x="162" y="-663.5" font-family="sans" font-size="10.00">seurat_to_mtx_forscr</text>
</g>
<!-- 12&#45;&gt;11 -->
<g id="edge16" class="edge">
<title>12&#45;&gt;11</title>
<path fill="none" stroke="grey" stroke-width="2" d="M162,-647.7C162,-639.98 162,-630.71 162,-622.11"/>
<polygon fill="grey" stroke="grey" stroke-width="2" points="165.5,-622.1 162,-612.1 158.5,-622.1 165.5,-622.1"/>
</g>
<!-- 13 -->
<g id="node14" class="node">
<title>13</title>
<path fill="none" stroke="#56c1d8" stroke-width="2" d="M237.5,-756C237.5,-756 106.5,-756 106.5,-756 100.5,-756 94.5,-750 94.5,-744 94.5,-744 94.5,-732 94.5,-732 94.5,-726 100.5,-720 106.5,-720 106.5,-720 237.5,-720 237.5,-720 243.5,-720 249.5,-726 249.5,-732 249.5,-732 249.5,-744 249.5,-744 249.5,-750 243.5,-756 237.5,-756"/>
<text text-anchor="middle" x="172" y="-735.5" font-family="sans" font-size="10.00">annotate_celltypes_azimuth</text>
</g>
<!-- 13&#45;&gt;5 -->
<g id="edge8" class="edge">
<title>13&#45;&gt;5</title>
<path fill="none" stroke="grey" stroke-width="2" d="M197.55,-719.89C209.47,-710.63 222.79,-698.18 231,-684 251.26,-648.99 250,-635.45 250,-595 250,-595 250,-595 250,-521 250,-480.88 245.58,-434.57 242.34,-406.03"/>
<polygon fill="grey" stroke="grey" stroke-width="2" points="245.81,-405.54 241.17,-396.02 238.86,-406.36 245.81,-405.54"/>
</g>
<!-- 13&#45;&gt;12 -->
<g id="edge17" class="edge">
<title>13&#45;&gt;12</title>
<path fill="none" stroke="grey" stroke-width="2" d="M169.53,-719.7C168.43,-711.98 167.1,-702.71 165.87,-694.11"/>
<polygon fill="grey" stroke="grey" stroke-width="2" points="169.32,-693.51 164.44,-684.1 162.39,-694.5 169.32,-693.51"/>
</g>
<!-- 13&#45;&gt;15 -->
<g id="edge20" class="edge">
<title>13&#45;&gt;15</title>
<path fill="none" stroke="grey" stroke-width="2" d="M138.19,-720C98.49,-697.36 38,-653.3 38,-595 38,-595 38,-595 38,-521 38,-479.29 55.2,-433.54 67.84,-405.54"/>
<polygon fill="grey" stroke="grey" stroke-width="2" points="71.05,-406.96 72.09,-396.42 64.7,-404.01 71.05,-406.96"/>
</g>
<!-- 14&#45;&gt;13 -->
<g id="edge18" class="edge">
<title>14&#45;&gt;13</title>
<path fill="none" stroke="grey" stroke-width="2" d="M195.34,-791.7C191.81,-783.73 187.54,-774.1 183.63,-765.26"/>
<polygon fill="grey" stroke="grey" stroke-width="2" points="186.82,-763.83 179.57,-756.1 180.42,-766.67 186.82,-763.83"/>
</g>
<!-- 15&#45;&gt;4 -->
<g id="edge7" class="edge">
<title>15&#45;&gt;4</title>
<path fill="none" stroke="grey" stroke-width="2" d="M119.65,-359.88C141.25,-350.31 168.35,-338.3 191.27,-328.15"/>
<polygon fill="grey" stroke="grey" stroke-width="2" points="192.75,-331.32 200.47,-324.07 189.91,-324.92 192.75,-331.32"/>
</g>
</g>
</svg>
