<?xml version="1.0" encoding="UTF-8" standalone="no"?>
<!DOCTYPE svg PUBLIC "-//W3C//DTD SVG 1.1//EN"
 "http://www.w3.org/Graphics/SVG/1.1/DTD/svg11.dtd">
<!-- Generated by graphviz version 2.43.0 (0)
 -->
<!-- Title: snakemake_dag Pages: 1 -->
<svg width="359pt" height="836pt"
 viewBox="0.00 0.00 359.00 836.00" xmlns="http://www.w3.org/2000/svg" xmlns:xlink="http://www.w3.org/1999/xlink">
<g id="graph0" class="graph" transform="scale(1 1) rotate(0) translate(4 832)">
<title>snakemake_dag</title>
<polygon fill="white" stroke="transparent" points="-4,4 -4,-832 355,-832 355,4 -4,4"/>
<!-- 0 -->
<g id="node1" class="node">
<title>0</title>
<path fill="none" stroke="#56c1d8" stroke-width="2" d="M84,-36C84,-36 52,-36 52,-36 46,-36 40,-30 40,-24 40,-24 40,-12 40,-12 40,-6 46,0 52,0 52,0 84,0 84,0 90,0 96,-6 96,-12 96,-12 96,-24 96,-24 96,-30 90,-36 84,-36"/>
<text text-anchor="middle" x="68" y="-15.5" font-family="sans" font-size="10.00">rna_gex</text>
</g>
<!-- 1 -->
<g id="node2" class="node">
<title>1</title>
<path fill="none" stroke="#d85656" stroke-width="2" d="M104,-684C104,-684 12,-684 12,-684 6,-684 0,-678 0,-672 0,-672 0,-660 0,-660 0,-654 6,-648 12,-648 12,-648 104,-648 104,-648 110,-648 116,-654 116,-660 116,-660 116,-672 116,-672 116,-678 110,-684 104,-684"/>
<text text-anchor="middle" x="58" y="-663.5" font-family="sans" font-size="10.00">align_multi_starsolo</text>
</g>
<!-- 1&#45;&gt;0 -->
<g id="edge2" class="edge">
<title>1&#45;&gt;0</title>
<path fill="none" stroke="grey" stroke-width="2" d="M50.31,-647.91C39.21,-621.62 20,-569.45 20,-523 20,-523 20,-523 20,-161 20,-120.55 24.92,-109.92 39,-72 42.4,-62.86 47.15,-53.36 51.83,-44.98"/>
<polygon fill="grey" stroke="grey" stroke-width="2" points="55.01,-46.47 57,-36.06 48.96,-42.95 55.01,-46.47"/>
</g>
<!-- 7 -->
<g id="node8" class="node">
<title>7</title>
<path fill="none" stroke="#56d8b9" stroke-width="2" d="M229.5,-324C229.5,-324 136.5,-324 136.5,-324 130.5,-324 124.5,-318 124.5,-312 124.5,-312 124.5,-300 124.5,-300 124.5,-294 130.5,-288 136.5,-288 136.5,-288 229.5,-288 229.5,-288 235.5,-288 241.5,-294 241.5,-300 241.5,-300 241.5,-312 241.5,-312 241.5,-318 235.5,-324 229.5,-324"/>
<text text-anchor="middle" x="183" y="-303.5" font-family="sans" font-size="10.00">stellarscope_cellsort</text>
</g>
<!-- 1&#45;&gt;7 -->
<g id="edge12" class="edge">
<title>1&#45;&gt;7</title>
<path fill="none" stroke="grey" stroke-width="2" d="M58,-647.95C58,-621.29 58,-568.11 58,-523 58,-523 58,-523 58,-449 58,-396.4 106.93,-354.03 143.56,-329.69"/>
<polygon fill="grey" stroke="grey" stroke-width="2" points="145.59,-332.54 152.1,-324.18 141.8,-326.66 145.59,-332.54"/>
</g>
<!-- 11 -->
<g id="node12" class="node">
<title>11</title>
<path fill="none" stroke="#80d856" stroke-width="2" d="M158,-612C158,-612 128,-612 128,-612 122,-612 116,-606 116,-600 116,-600 116,-588 116,-588 116,-582 122,-576 128,-576 128,-576 158,-576 158,-576 164,-576 170,-582 170,-588 170,-588 170,-600 170,-600 170,-606 164,-612 158,-612"/>
<text text-anchor="middle" x="143" y="-591.5" font-family="sans" font-size="10.00">cell_qc</text>
</g>
<!-- 1&#45;&gt;11 -->
<g id="edge16" class="edge">
<title>1&#45;&gt;11</title>
<path fill="none" stroke="grey" stroke-width="2" d="M79.01,-647.7C89.72,-638.88 102.89,-628.03 114.5,-618.47"/>
<polygon fill="grey" stroke="grey" stroke-width="2" points="116.74,-621.16 122.23,-612.1 112.29,-615.76 116.74,-621.16"/>
</g>
<!-- 2 -->
<g id="node3" class="node">
<title>2</title>
<path fill="none" stroke="#97d856" stroke-width="2" d="M84.5,-756C84.5,-756 31.5,-756 31.5,-756 25.5,-756 19.5,-750 19.5,-744 19.5,-744 19.5,-732 19.5,-732 19.5,-726 25.5,-720 31.5,-720 31.5,-720 84.5,-720 84.5,-720 90.5,-720 96.5,-726 96.5,-732 96.5,-732 96.5,-744 96.5,-744 96.5,-750 90.5,-756 84.5,-756"/>
<text text-anchor="middle" x="58" y="-735.5" font-family="sans" font-size="10.00">sra_to_fastq</text>
</g>
<!-- 2&#45;&gt;1 -->
<g id="edge3" class="edge">
<title>2&#45;&gt;1</title>
<path fill="none" stroke="grey" stroke-width="2" d="M58,-719.7C58,-711.98 58,-702.71 58,-694.11"/>
<polygon fill="grey" stroke="grey" stroke-width="2" points="61.5,-694.1 58,-684.1 54.5,-694.1 61.5,-694.1"/>
</g>
<!-- 3 -->
<g id="node4" class="node">
<title>3</title>
<path fill="none" stroke="#56d89a" stroke-width="2" d="M84.5,-828C84.5,-828 31.5,-828 31.5,-828 25.5,-828 19.5,-822 19.5,-816 19.5,-816 19.5,-804 19.5,-804 19.5,-798 25.5,-792 31.5,-792 31.5,-792 84.5,-792 84.5,-792 90.5,-792 96.5,-798 96.5,-804 96.5,-804 96.5,-816 96.5,-816 96.5,-822 90.5,-828 84.5,-828"/>
<text text-anchor="middle" x="58" y="-807.5" font-family="sans" font-size="10.00">prefetch_sra</text>
</g>
<!-- 3&#45;&gt;2 -->
<g id="edge4" class="edge">
<title>3&#45;&gt;2</title>
<path fill="none" stroke="grey" stroke-width="2" d="M58,-791.7C58,-783.98 58,-774.71 58,-766.11"/>
<polygon fill="grey" stroke="grey" stroke-width="2" points="61.5,-766.1 58,-756.1 54.5,-766.1 61.5,-766.1"/>
</g>
<!-- 4 -->
<g id="node5" class="node">
<title>4</title>
<path fill="none" stroke="#56a9d8" stroke-width="2" d="M171.5,-108C171.5,-108 60.5,-108 60.5,-108 54.5,-108 48.5,-102 48.5,-96 48.5,-96 48.5,-84 48.5,-84 48.5,-78 54.5,-72 60.5,-72 60.5,-72 171.5,-72 171.5,-72 177.5,-72 183.5,-78 183.5,-84 183.5,-84 183.5,-96 183.5,-96 183.5,-102 177.5,-108 171.5,-108"/>
<text text-anchor="middle" x="116" y="-87.5" font-family="sans" font-size="10.00">stellarscope_poolmodes</text>
</g>
<!-- 4&#45;&gt;0 -->
<g id="edge1" class="edge">
<title>4&#45;&gt;0</title>
<path fill="none" stroke="grey" stroke-width="2" d="M104.13,-71.7C98.5,-63.47 91.65,-53.48 85.43,-44.42"/>
<polygon fill="grey" stroke="grey" stroke-width="2" points="88.27,-42.37 79.73,-36.1 82.5,-46.33 88.27,-42.37"/>
</g>
<!-- 5 -->
<g id="node6" class="node">
<title>5</title>
<path fill="none" stroke="#d8ac56" stroke-width="2" d="M159,-180C159,-180 65,-180 65,-180 59,-180 53,-174 53,-168 53,-168 53,-156 53,-156 53,-150 59,-144 65,-144 65,-144 159,-144 159,-144 165,-144 171,-150 171,-156 171,-156 171,-168 171,-168 171,-174 165,-180 159,-180"/>
<text text-anchor="middle" x="112" y="-159.5" font-family="sans" font-size="10.00">stellarscope_resume</text>
</g>
<!-- 5&#45;&gt;4 -->
<g id="edge6" class="edge">
<title>5&#45;&gt;4</title>
<path fill="none" stroke="grey" stroke-width="2" d="M112.99,-143.7C113.43,-135.98 113.96,-126.71 114.45,-118.11"/>
<polygon fill="grey" stroke="grey" stroke-width="2" points="117.95,-118.29 115.02,-108.1 110.96,-117.89 117.95,-118.29"/>
</g>
<!-- 6 -->
<g id="node7" class="node">
<title>6</title>
<path fill="none" stroke="#d87556" stroke-width="2" d="M245,-252C245,-252 167,-252 167,-252 161,-252 155,-246 155,-240 155,-240 155,-228 155,-228 155,-222 161,-216 167,-216 167,-216 245,-216 245,-216 251,-216 257,-222 257,-228 257,-228 257,-240 257,-240 257,-246 251,-252 245,-252"/>
<text text-anchor="middle" x="206" y="-231.5" font-family="sans" font-size="10.00">stellarscope_load</text>
</g>
<!-- 6&#45;&gt;5 -->
<g id="edge8" class="edge">
<title>6&#45;&gt;5</title>
<path fill="none" stroke="grey" stroke-width="2" d="M182.76,-215.7C170.81,-206.8 156.08,-195.82 143.15,-186.2"/>
<polygon fill="grey" stroke="grey" stroke-width="2" points="145.08,-183.27 134.97,-180.1 140.9,-188.88 145.08,-183.27"/>
</g>
<!-- 12 -->
<g id="node13" class="node">
<title>12</title>
<path fill="none" stroke="#d8c356" stroke-width="2" d="M339,-180C339,-180 201,-180 201,-180 195,-180 189,-174 189,-168 189,-168 189,-156 189,-156 189,-150 195,-144 201,-144 201,-144 339,-144 339,-144 345,-144 351,-150 351,-156 351,-156 351,-168 351,-168 351,-174 345,-180 339,-180"/>
<text text-anchor="middle" x="270" y="-159.5" font-family="sans" font-size="10.00">stellarscope_resume_celltype</text>
</g>
<!-- 6&#45;&gt;12 -->
<g id="edge18" class="edge">
<title>6&#45;&gt;12</title>
<path fill="none" stroke="grey" stroke-width="2" d="M221.82,-215.7C229.57,-207.22 239.04,-196.86 247.52,-187.58"/>
<polygon fill="grey" stroke="grey" stroke-width="2" points="250.2,-189.85 254.36,-180.1 245.03,-185.12 250.2,-189.85"/>
</g>
<!-- 7&#45;&gt;6 -->
<g id="edge9" class="edge">
<title>7&#45;&gt;6</title>
<path fill="none" stroke="grey" stroke-width="2" d="M188.69,-287.7C191.25,-279.9 194.33,-270.51 197.18,-261.83"/>
<polygon fill="grey" stroke="grey" stroke-width="2" points="200.58,-262.7 200.38,-252.1 193.93,-260.51 200.58,-262.7"/>
</g>
<!-- 8 -->
<g id="node9" class="node">
<title>8</title>
<path fill="none" stroke="#5673d8" stroke-width="2" d="M200,-396C200,-396 168,-396 168,-396 162,-396 156,-390 156,-384 156,-384 156,-372 156,-372 156,-366 162,-360 168,-360 168,-360 200,-360 200,-360 206,-360 212,-366 212,-372 212,-372 212,-384 212,-384 212,-390 206,-396 200,-396"/>
<text text-anchor="middle" x="184" y="-375.5" font-family="sans" font-size="10.00">scrublet</text>
</g>
<!-- 8&#45;&gt;6 -->
<g id="edge10" class="edge">
<title>8&#45;&gt;6</title>
<path fill="none" stroke="grey" stroke-width="2" d="M212.33,-362.68C226.76,-353.71 242.92,-340.69 251,-324 257.97,-309.6 256.52,-303.02 251,-288 247.22,-277.7 240.44,-268.02 233.28,-259.84"/>
<polygon fill="grey" stroke="grey" stroke-width="2" points="235.77,-257.38 226.38,-252.47 230.66,-262.16 235.77,-257.38"/>
</g>
<!-- 8&#45;&gt;7 -->
<g id="edge11" class="edge">
<title>8&#45;&gt;7</title>
<path fill="none" stroke="grey" stroke-width="2" d="M183.75,-359.7C183.64,-351.98 183.51,-342.71 183.39,-334.11"/>
<polygon fill="grey" stroke="grey" stroke-width="2" points="186.89,-334.05 183.24,-324.1 179.89,-334.15 186.89,-334.05"/>
</g>
<!-- 9 -->
<g id="node10" class="node">
<title>9</title>
<path fill="none" stroke="#ced856" stroke-width="2" d="M232,-468C232,-468 136,-468 136,-468 130,-468 124,-462 124,-456 124,-456 124,-444 124,-444 124,-438 130,-432 136,-432 136,-432 232,-432 232,-432 238,-432 244,-438 244,-444 244,-444 244,-456 244,-456 244,-462 238,-468 232,-468"/>
<text text-anchor="middle" x="184" y="-447.5" font-family="sans" font-size="10.00">seurat_to_mtx_forscr</text>
</g>
<!-- 9&#45;&gt;8 -->
<g id="edge13" class="edge">
<title>9&#45;&gt;8</title>
<path fill="none" stroke="grey" stroke-width="2" d="M184,-431.7C184,-423.98 184,-414.71 184,-406.11"/>
<polygon fill="grey" stroke="grey" stroke-width="2" points="187.5,-406.1 184,-396.1 180.5,-406.1 187.5,-406.1"/>
</g>
<!-- 10 -->
<g id="node11" class="node">
<title>10</title>
<path fill="none" stroke="#b6d856" stroke-width="2" d="M239.5,-540C239.5,-540 108.5,-540 108.5,-540 102.5,-540 96.5,-534 96.5,-528 96.5,-528 96.5,-516 96.5,-516 96.5,-510 102.5,-504 108.5,-504 108.5,-504 239.5,-504 239.5,-504 245.5,-504 251.5,-510 251.5,-516 251.5,-516 251.5,-528 251.5,-528 251.5,-534 245.5,-540 239.5,-540"/>
<text text-anchor="middle" x="174" y="-519.5" font-family="sans" font-size="10.00">annotate_celltypes_azimuth</text>
</g>
<!-- 10&#45;&gt;5 -->
<g id="edge7" class="edge">
<title>10&#45;&gt;5</title>
<path fill="none" stroke="grey" stroke-width="2" d="M148.45,-503.89C136.53,-494.63 123.21,-482.18 115,-468 94.74,-432.99 96,-419.45 96,-379 96,-379 96,-379 96,-305 96,-264.96 102.36,-218.97 107.06,-190.45"/>
<polygon fill="grey" stroke="grey" stroke-width="2" points="110.54,-190.86 108.76,-180.42 103.64,-189.69 110.54,-190.86"/>
</g>
<!-- 10&#45;&gt;9 -->
<g id="edge14" class="edge">
<title>10&#45;&gt;9</title>
<path fill="none" stroke="grey" stroke-width="2" d="M176.47,-503.7C177.57,-495.98 178.9,-486.71 180.13,-478.11"/>
<polygon fill="grey" stroke="grey" stroke-width="2" points="183.61,-478.5 181.56,-468.1 176.68,-477.51 183.61,-478.5"/>
</g>
<!-- 10&#45;&gt;12 -->
<g id="edge17" class="edge">
<title>10&#45;&gt;12</title>
<path fill="none" stroke="grey" stroke-width="2" d="M207.81,-504C247.51,-481.36 308,-437.3 308,-379 308,-379 308,-379 308,-305 308,-263.63 292.77,-217.72 281.59,-189.61"/>
<polygon fill="grey" stroke="grey" stroke-width="2" points="284.72,-188.02 277.69,-180.09 278.24,-190.67 284.72,-188.02"/>
</g>
<!-- 11&#45;&gt;10 -->
<g id="edge15" class="edge">
<title>11&#45;&gt;10</title>
<path fill="none" stroke="grey" stroke-width="2" d="M150.66,-575.7C154.19,-567.73 158.46,-558.1 162.37,-549.26"/>
<polygon fill="grey" stroke="grey" stroke-width="2" points="165.58,-550.67 166.43,-540.1 159.18,-547.83 165.58,-550.67"/>
</g>
<!-- 12&#45;&gt;4 -->
<g id="edge5" class="edge">
<title>12&#45;&gt;4</title>
<path fill="none" stroke="grey" stroke-width="2" d="M232.33,-143.88C211.37,-134.35 185.1,-122.41 162.82,-112.28"/>
<polygon fill="grey" stroke="grey" stroke-width="2" points="164.1,-109.02 153.55,-108.07 161.21,-115.39 164.1,-109.02"/>
</g>
</g>
</svg>
